<svg width="15" height="9" viewBox="0 0 15 9" fill="#AB7C94" xmlns="http://www.w3.org/2000/svg">
<path d="M14.7602 0.810577L14.2689 0.315817C14.1143 0.161304 13.9085 0.0761814 13.6886 0.0761814C13.4689 0.0761814 13.2629 0.161304 13.1083 0.315817L7.50335 5.92098L1.89197 0.309598C1.73758 0.155084 1.5316 0.0700836 1.31184 0.0700836C1.09208 0.0700836 0.885983 0.155084 0.731469 0.309598L0.240002 0.801309C-0.0800007 1.12107 -0.0800007 1.64193 0.240002 1.96168L6.92103 8.66674C7.07542 8.82113 7.28116 8.92991 7.50287 8.92991H7.50543C7.72531 8.92991 7.93104 8.82101 8.08543 8.66674L14.7602 1.97985C14.9149 1.82546 14.9998 1.61351 15 1.39375C15 1.17387 14.9149 0.964847 14.7602 0.810577Z" fill="#FF8364"/>
</svg>
