<svg width="66" height="66" viewBox="0 0 66 66" fill="none" xmlns="http://www.w3.org/2000/svg">
<path d="M62.7016 13.2406H43.6926C43.6926 13.2406 43.6926 13.1312 43.6926 13.0686V7.01889C43.6926 5.19713 42.2159 3.72046 40.3941 3.72046H25.5902C23.7685 3.72046 22.2918 5.19713 22.2918 7.01889V13.0843C22.2918 13.0843 22.2918 13.1937 22.2918 13.2562H3.29844C1.47668 13.2562 0 14.7329 0 16.5547V58.981C0 60.8028 1.47668 62.2794 3.29844 62.2794H62.7016C64.5233 62.2794 66 60.8028 66 58.981V16.539C66 14.7173 64.5233 13.2406 62.7016 13.2406ZM25.4183 13.053L25.4496 6.98763C25.4496 6.89266 25.5265 6.81567 25.6215 6.81567H40.4567C40.5516 6.81567 40.6286 6.89266 40.6286 6.98763V13.053C40.6286 13.148 40.5516 13.225 40.4567 13.225H25.5902C25.4953 13.225 25.4183 13.148 25.4183 13.053ZM3.29844 16.3671H62.7016C61.2321 19.1496 53.5879 32.3121 39.3624 35.4699V33.6565C39.3628 31.859 37.9236 30.3921 36.1265 30.3581H29.8735C28.0518 30.3581 26.5751 31.8347 26.5751 33.6565V35.5011C12.3652 32.3746 4.68972 19.1653 3.23591 16.3983L3.29844 16.3671ZM36.2515 33.6565V42.7546C36.2515 42.8495 36.1745 42.9265 36.0796 42.9265H29.8735C29.7786 42.9265 29.7016 42.8495 29.7016 42.7546V33.6565C29.7016 33.5615 29.7786 33.4846 29.8735 33.4846H36.1265C36.2029 33.506 36.2545 33.5772 36.2515 33.6565ZM62.8266 58.9966C62.8266 59.0916 62.7496 59.1686 62.6547 59.1686H3.29844C3.20347 59.1686 3.12648 59.0916 3.12648 58.9966V22.2136C6.97205 27.7944 14.6319 36.2827 26.5751 38.6901V42.7389C26.5751 44.5607 28.0518 46.0374 29.8735 46.0374H36.1265C37.9482 46.0374 39.4249 44.5607 39.4249 42.7389V38.6901C51.3681 36.314 59.028 27.7475 62.8735 22.2136L62.8266 58.9966Z" fill="white"/>
</svg>
