<svg width="66" height="66" viewBox="0 0 66 66" fill="none" xmlns="http://www.w3.org/2000/svg">
<g clip-path="url(#clip0)">
<path d="M65.7021 25.0868C64.9092 22.6562 62.7448 21.0857 60.1882 21.0857H43.701L38.5091 5.31877C37.711 2.89502 35.5511 1.33276 33.0018 1.33276C32.9937 1.33276 32.9853 1.33276 32.9772 1.33289C30.4175 1.34295 28.2584 2.92454 27.477 5.36221L22.4364 21.0857H5.81197C3.24889 21.0857 1.08279 22.6615 0.293733 25.1001C-0.495452 27.5387 0.336911 30.0847 2.41434 31.5863L15.8653 41.3089L10.6878 57.0321C9.88653 59.4655 10.705 62.0152 12.7729 63.5276C13.8114 64.2873 15.0035 64.6672 16.1964 64.6672C17.3784 64.6671 18.5611 64.2938 19.5946 63.5468L33.0688 53.8076L46.383 63.5304C48.4486 65.0389 51.1237 65.0461 53.1978 63.5494C55.2718 62.0526 56.1074 59.5115 55.3267 57.0757L50.272 41.3089L63.6086 31.5696C65.6734 30.0619 66.4952 27.5173 65.7021 25.0868ZM61.3283 28.4469L45.7381 39.8319L51.6444 58.256C52.042 59.4961 51.2017 60.2212 50.9347 60.4139C50.6678 60.6066 49.7148 61.1756 48.6631 60.4074L33.0803 49.028L17.3293 60.4131C16.2723 61.177 15.3218 60.6014 15.0555 60.4067C14.7893 60.2119 13.9525 59.4803 14.3605 58.2413L20.4225 39.8318L4.67943 28.4526C3.62177 27.688 3.87104 26.6043 3.9726 26.2905C4.07417 25.9767 4.50697 24.9524 5.81197 24.9524H25.2574L31.1592 6.54257C31.5571 5.3015 32.6631 5.20084 32.9927 5.19942H32.9994C33.337 5.19942 34.4317 5.29854 34.8367 6.52813L40.9035 24.9524H60.1883C61.4901 24.9524 61.9243 25.9732 62.0264 26.2861C62.1284 26.5991 62.3795 27.6794 61.3283 28.4469Z" fill="white"/>
</g>
<defs>
<clipPath id="clip0">
<rect width="66" height="66" fill="white"/>
</clipPath>
</defs>
</svg>
