<svg width="66" height="66" viewBox="0 0 66 66" fill="none" xmlns="http://www.w3.org/2000/svg">
<path d="M56.3298 9.67539C50.0961 3.44168 41.8167 0 32.9983 0C24.1799 0 15.9005 3.42785 9.66678 9.66157C-2.35835 21.6867 -3.22913 40.8993 7.48291 53.9196C6.00395 56.9466 4.24856 58.9646 2.28584 59.9321C1.08333 60.5265 0.40605 61.8258 0.599558 63.1527C0.806888 64.4934 1.82971 65.5301 3.17045 65.7374C3.90301 65.848 4.69087 65.9171 5.50636 65.9171C9.55621 65.9171 13.8134 64.521 17.3656 62.0746C22.148 64.6454 27.5248 66 32.9983 66C41.8167 66 50.0961 62.5721 56.3298 56.3384C62.5635 50.1047 65.9914 41.8115 65.9914 33.0069C65.9914 24.2023 62.5635 15.9091 56.3298 9.67539ZM53.6898 53.6984C48.161 59.2272 40.8077 62.2681 32.9983 62.2681C27.7736 62.2681 22.6456 60.872 18.1811 58.2459C17.8909 58.08 17.5591 57.9832 17.2412 57.9832C16.8404 57.9832 16.4257 58.1215 16.094 58.3703C11.8645 61.6461 7.60731 62.1298 5.74134 62.1713C7.96668 60.5127 9.83265 57.9418 11.3945 54.3619C11.6848 53.6984 11.5604 52.9244 11.0766 52.3715C0.848354 40.8163 1.38741 23.2071 12.3068 12.2877C17.8356 6.75895 25.1889 3.71812 32.9983 3.71812C40.8215 3.71812 48.161 6.75895 53.6898 12.2877C65.1068 23.7185 65.1068 42.2953 53.6898 53.6984Z" fill="white"/>
<path d="M41.3738 17.8857C38.3882 17.8857 35.5824 19.0468 33.4676 21.1616L32.9977 21.6315L32.5277 21.1616C30.413 19.0468 27.6071 17.8857 24.6215 17.8857C21.6498 17.8857 18.844 19.0468 16.743 21.1477C14.6282 23.2625 13.4672 26.0684 13.481 29.0401C13.481 32.0256 14.6559 34.8177 16.7568 36.9324L31.6708 51.8464C32.0301 52.2057 32.5139 52.3993 32.9838 52.3993C33.4538 52.3993 33.9376 52.2196 34.2969 51.8602L49.2523 36.9601C51.3671 34.8453 52.5281 32.0395 52.5281 29.0677C52.5281 26.0822 51.3671 23.2763 49.2662 21.1616C47.1514 19.0468 44.3455 17.8857 41.3738 17.8857ZM46.6123 34.3201L32.9838 47.8933L19.383 34.2924C17.9732 32.8826 17.1991 31.0166 17.1991 29.0263C17.1991 27.0359 17.9732 25.1699 19.3692 23.7739C20.7652 22.3779 22.6312 21.6039 24.6215 21.6039C26.6119 21.6039 28.4779 22.3779 29.8877 23.7877L31.6846 25.5846C32.4171 26.3172 33.592 26.3172 34.3246 25.5846L36.1076 23.8016C37.5175 22.3917 39.3834 21.6177 41.3738 21.6177C43.3503 21.6177 45.2163 22.3917 46.6262 23.8016C48.036 25.2114 48.81 27.0774 48.7962 29.0539C48.7962 31.0443 48.0222 32.9102 46.6123 34.3201Z" fill="white"/>
</svg>
