<svg width="694" height="297" viewBox="0 0 694 297" fill="none" xmlns="http://www.w3.org/2000/svg">
<path d="M91.9455 142.026C92.2055 143.376 91.3255 144.685 89.9655 144.945C88.6155 145.205 87.3055 144.326 87.0455 142.966C86.7855 141.616 87.6655 140.306 89.0255 140.046C90.3755 139.786 91.6855 140.666 91.9455 142.026Z" fill="#FFC050"/>
<path d="M174.148 169.5C174.658 172.15 172.928 174.71 170.278 175.23C167.628 175.74 165.068 174.01 164.548 171.36C164.038 168.71 165.768 166.15 168.418 165.63C171.068 165.11 173.638 166.85 174.148 169.5Z" fill="#FFC050"/>
<path d="M577.099 77.88C577.609 80.53 575.879 83.09 573.229 83.61C570.579 84.12 568.019 82.39 567.499 79.74C566.989 77.09 568.719 74.53 571.369 74.01C574.029 73.5 576.589 75.23 577.099 77.88Z" fill="#FFC050"/>
<path d="M667.946 231.026C668.206 232.376 667.326 233.686 665.966 233.946C664.616 234.206 663.306 233.326 663.046 231.966C662.786 230.616 663.666 229.306 665.026 229.046C666.376 228.786 667.686 229.666 667.946 231.026Z" fill="#FFC3AB"/>
<path d="M331.945 63.0324C332.205 64.3824 331.326 65.6924 329.966 65.9524C328.616 66.2124 327.306 65.3324 327.046 63.9724C326.786 62.6224 327.666 61.3124 329.026 61.0424C330.376 60.7924 331.685 61.6724 331.945 63.0324Z" fill="#FFC3AB"/>
<path d="M366.831 38.3722L366.83 38.3723C363.053 39.1011 359.385 36.6352 358.627 32.8163C357.9 29.0284 360.364 25.3557 364.169 24.6267C367.977 23.8972 371.645 26.3945 372.373 30.1812C373.101 33.9696 370.636 37.6431 366.831 38.3722Z" stroke="#FFC050"/>
<path d="M488.578 210.84C488.838 212.19 487.958 213.5 486.598 213.77C485.248 214.03 483.938 213.15 483.678 211.79C483.418 210.44 484.298 209.13 485.658 208.86C487.008 208.6 488.318 209.48 488.578 210.84Z" fill="#FFC050"/>
<path d="M527.409 174.69C527.859 177.02 526.329 179.28 523.999 179.73C521.669 180.18 519.409 178.65 518.959 176.32C518.509 173.99 520.039 171.73 522.369 171.28C524.709 170.84 526.959 172.36 527.409 174.69Z" fill="#FD8496"/>
<path d="M417.955 58.0255C418.215 59.3855 417.325 60.6955 415.975 60.9555C414.615 61.2155 413.305 60.3255 413.045 58.9755C412.785 57.6255 413.675 56.3055 415.025 56.0455C416.385 55.7855 417.695 56.6655 417.955 58.0255Z" fill="#FD8496"/>
<path d="M606.719 48.42C606.979 49.78 606.089 51.09 604.739 51.35C603.389 51.61 602.069 50.72 601.809 49.37C601.549 48.02 602.439 46.7 603.789 46.44C605.149 46.17 606.459 47.06 606.719 48.42Z" fill="#FD8496"/>
<path d="M369.68 199.46C369.94 200.82 369.05 202.13 367.7 202.39C366.34 202.65 365.03 201.76 364.77 200.41C364.51 199.05 365.4 197.74 366.75 197.48C368.11 197.22 369.42 198.11 369.68 199.46Z" fill="#FD8496"/>
<path d="M625.068 186.02C625.328 187.38 624.438 188.69 623.088 188.95C621.738 189.21 620.418 188.32 620.158 186.97C619.898 185.62 620.788 184.3 622.138 184.04C623.498 183.78 624.808 184.67 625.068 186.02Z" fill="#FD8496"/>
<path d="M34.9551 239.028C35.2151 240.388 34.3251 241.698 32.9751 241.958C31.6251 242.218 30.3051 241.328 30.0451 239.978C29.7851 238.618 30.6751 237.308 32.0251 237.048C33.3851 236.778 34.6951 237.668 34.9551 239.028Z" fill="#FD8496"/>
<path d="M80.219 84.01C81.009 88.11 78.329 92.08 74.219 92.88C70.119 93.67 66.149 90.99 65.349 86.88C64.559 82.78 67.239 78.81 71.349 78.01C75.459 77.22 79.429 79.91 80.219 84.01Z" stroke="#FFC3AB" stroke-width="0.5182" stroke-miterlimit="10"/>
<path d="M530.919 287.45C531.449 290.19 529.659 292.84 526.909 293.37C524.169 293.9 521.519 292.11 520.989 289.36C520.459 286.62 522.249 283.97 524.999 283.44C527.739 282.92 530.389 284.71 530.919 287.45Z" stroke="#FFC3AB" stroke-width="0.346" stroke-miterlimit="10"/>
<path d="M16.008 137.138C16.798 141.238 14.118 145.208 10.008 146.008C5.90804 146.798 1.93806 144.118 1.13806 140.008C0.348064 135.908 3.02805 131.938 7.13805 131.138C11.248 130.348 15.218 133.038 16.008 137.138Z" stroke="#FFC050" stroke-width="1.0365" stroke-miterlimit="10"/>
<path d="M594.31 282.69C594.72 284.81 593.33 286.86 591.22 287.26C589.1 287.67 587.05 286.28 586.65 284.17C586.24 282.05 587.63 280 589.74 279.6C591.85 279.19 593.9 280.57 594.31 282.69Z" fill="#F777BA"/>
<path d="M76.4594 204.22C76.7094 205.5 75.8694 206.74 74.5894 206.99C73.3094 207.24 72.0694 206.4 71.8194 205.12C71.5694 203.84 72.4094 202.6 73.6894 202.35C74.9694 202.1 76.2094 202.94 76.4594 204.22Z" fill="#F777BA"/>
<path d="M217.418 200.55C217.668 201.83 216.828 203.07 215.548 203.32C214.268 203.57 213.028 202.73 212.778 201.45C212.528 200.17 213.368 198.93 214.648 198.68C215.928 198.43 217.168 199.27 217.418 200.55Z" fill="#F777BA"/>
<path d="M693.579 175.6C693.829 176.88 692.989 178.12 691.709 178.37C690.429 178.62 689.189 177.78 688.939 176.5C688.689 175.22 689.529 173.98 690.809 173.73C692.089 173.47 693.329 174.31 693.579 175.6Z" fill="#F777BA"/>
<path d="M635.829 126.433C636.399 129.393 634.459 132.263 631.499 132.833C628.539 133.403 625.669 131.463 625.099 128.503C624.529 125.543 626.469 122.673 629.429 122.103C632.389 121.523 635.249 123.463 635.829 126.433Z" stroke="#FD8496" stroke-width="0.7486" stroke-miterlimit="10"/>
<path d="M102.008 245.138C102.798 249.238 100.118 253.208 96.0081 254.008C91.9081 254.798 87.9381 252.118 87.1381 248.008C86.3481 243.908 89.0281 239.938 93.1381 239.138C97.2481 238.348 101.218 241.028 102.008 245.138Z" stroke="#FD8496" stroke-width="1.0365" stroke-miterlimit="10"/>
<path d="M168.361 50.7827L173.355 89.2406C177.831 91.4451 182.444 93.4025 188.527 92.6328L217.456 87.9593L209.232 43.564L168.361 50.7827Z" fill="#FF8364"/>
<path d="M166.039 49.1082L171.033 87.566L186.205 90.9582L215.135 86.2899L209.149 43.0113L166.039 49.1082Z" fill="#FFE8D8"/>
<path d="M175.451 83.8904L171.033 87.5661C171.033 87.5661 173.904 89.9168 177.141 90.607C180.378 91.2972 183.312 91.4256 186.205 90.9583C186.205 90.9583 179.226 90.0663 175.451 83.8904Z" fill="#FF8364"/>
<path d="M164.562 58.2462L181.201 46.0114L178.655 42.505L161.617 54.5761L164.562 58.2462Z" fill="#FF9C94"/>
<path d="M215.732 51.5711L198.342 40.4656L195.977 44.1018L213.352 55.6403L215.732 51.5711Z" fill="#FF9C94"/>
<path d="M206.271 57.3613C206.28 57.4379 198.955 58.5418 189.905 59.8276C180.854 61.1133 173.508 62.0932 173.499 62.0166C173.49 61.9401 180.815 60.8361 189.866 59.5504C198.916 58.2646 206.262 57.2848 206.271 57.3613Z" fill="#FF8364"/>
<path d="M206.96 63.2846C206.97 63.3612 199.644 64.4651 190.594 65.7509C181.544 67.0366 174.198 68.0165 174.189 67.9399C174.179 67.8634 181.505 66.7594 190.555 65.4737C199.605 64.1879 206.951 63.2081 206.96 63.2846Z" fill="#FF8364"/>
<path d="M207.878 68.4897C207.888 68.5662 200.562 69.6702 191.512 70.9559C182.462 72.2416 175.116 73.2215 175.106 73.1449C175.097 73.0684 182.423 71.9644 191.473 70.6787C200.523 69.3929 207.869 68.4131 207.878 68.4897Z" fill="#FF8364"/>
<path d="M208.56 73.5323C208.569 73.6088 201.244 74.7128 192.194 75.9985C183.144 77.2843 175.798 78.2641 175.788 78.1876C175.779 78.111 183.105 77.0071 192.155 75.7213C201.2 74.4373 208.546 73.4575 208.56 73.5323Z" fill="#FF8364"/>
<path d="M461.979 257.297C434.307 234.792 430.496 196.526 434.181 162.66C434.795 157.016 434.614 150.993 437.685 146.214C440.755 141.436 447.312 138.514 452.207 141.273C456.271 143.564 457.752 148.595 459.811 152.814C462.557 158.441 466.892 163.237 472.184 166.501C475.652 168.647 480.042 170.126 483.763 168.413C488.856 166.087 489.94 159.36 490.319 153.734C491.042 143.221 491.746 132.708 492.469 122.195C492.848 116.55 493.264 110.798 495.413 105.586C497.563 100.375 501.807 95.6864 507.298 94.5864C512.789 93.4864 519.202 97.0569 519.924 102.665C520.231 104.991 519.581 107.354 519.563 109.698C519.545 112.042 520.448 114.711 522.615 115.541C524.819 116.37 527.203 114.945 529.01 113.413C535.259 108.147 539.757 101.114 544.002 94.0995C548.246 87.0847 552.383 79.8896 558.127 74.065C563.871 68.2404 571.547 63.8764 579.675 64.0027C587.804 64.1469 596.04 69.7732 597.503 77.8339C598.966 85.9306 593.728 93.6487 588.183 99.7077C579.983 108.706 570.482 116.478 560.096 122.736C558.217 123.872 556.194 125.08 555.363 127.118C553.864 130.778 557.151 134.782 560.764 136.296C564.864 138.009 569.47 137.901 573.823 138.749C578.194 139.596 582.818 141.887 584.173 146.16C586.052 152.093 580.777 157.773 575.738 161.38C565.641 168.593 554.315 174.057 542.412 177.429C538.149 178.637 533.67 179.647 530.111 182.316C526.553 184.985 524.151 189.89 525.885 194.019C527.619 198.149 532.712 199.808 537.12 199.321C541.527 198.834 545.591 196.76 549.854 195.516C557.838 193.172 567.808 194.434 572.288 201.503C575.232 206.137 575.051 212.287 573.01 217.426C570.969 222.547 567.284 226.821 563.419 230.716C549.908 244.367 533.11 254.916 514.65 259.803C496.19 264.708 479.373 265.159 461.979 257.297Z" fill="white"/>
<path d="M459.664 282.452C461.904 269.09 466.022 253.42 472.344 236.685C478.63 219.915 487.029 202.116 496.458 183.795C498.842 179.232 501.172 174.706 503.502 170.252C505.814 165.816 508.126 161.416 510.637 157.25C515.64 148.901 521.077 141.237 526.478 134.132C531.879 127.027 537.243 120.463 542.319 114.386C547.413 108.309 552.253 102.737 556.895 97.8322C566.143 88.0044 574.525 80.9715 580.467 76.3732C583.448 74.065 585.796 72.3518 587.421 71.2158C588.198 70.6748 588.812 70.242 589.264 69.9355C589.679 69.6469 589.896 69.5207 589.914 69.5207C589.932 69.5387 589.733 69.701 589.318 70.0076C588.866 70.3502 588.288 70.801 587.53 71.3781C585.958 72.5683 583.628 74.3355 580.702 76.6978C574.832 81.3863 566.559 88.4732 557.401 98.3372C552.813 103.242 548.009 108.85 542.951 114.945C537.912 121.059 532.565 127.622 527.2 134.727C521.836 141.832 516.435 149.478 511.486 157.791C508.993 161.939 506.717 166.303 504.387 170.757C502.075 175.211 499.727 179.719 497.361 184.3C487.932 202.603 479.515 220.365 473.211 237.064C466.871 253.744 462.68 269.324 460.368 282.615" fill="#F26628"/>
<path d="M510.928 157.214C510.856 157.214 510.729 156.349 510.549 154.762C510.368 153.175 510.188 150.885 509.989 148.054C509.61 142.373 509.357 134.529 509.104 125.873C508.851 117.218 508.49 109.391 508.02 103.747C507.785 100.916 507.587 98.6437 507.424 97.0568C507.279 95.4699 507.225 94.6044 507.297 94.5863C507.37 94.5683 507.55 95.4339 507.839 97.0027C508.128 98.5716 508.435 100.844 508.761 103.675C509.411 109.319 509.899 117.181 510.151 125.855C510.386 134.403 510.585 142.121 510.748 148.036C510.838 150.705 510.91 152.959 510.964 154.762C511.019 156.313 511 157.196 510.928 157.214Z" fill="#F26628"/>
<path d="M584.535 149.046C584.535 149.118 583.488 149.154 581.609 149.172C579.731 149.208 577.021 149.226 573.68 149.37C566.978 149.587 557.73 150.236 547.561 151.372C537.392 152.544 528.234 153.987 521.623 155.213C518.318 155.808 515.662 156.367 513.82 156.728C511.978 157.106 510.948 157.287 510.93 157.214C510.912 157.142 511.905 156.836 513.73 156.331C515.554 155.844 518.191 155.177 521.479 154.473C528.053 153.049 537.229 151.48 547.435 150.308C557.64 149.154 566.924 148.649 573.662 148.613C577.021 148.577 579.749 148.649 581.627 148.757C583.506 148.865 584.535 148.955 584.535 149.046Z" fill="#F26628"/>
<path d="M473.326 235.405C473.289 235.423 473.145 235.098 472.892 234.485C472.603 233.746 472.26 232.862 471.844 231.762C470.941 229.4 469.731 225.956 468.304 221.664C465.414 213.098 461.802 201.142 457.99 187.906C454.179 174.652 450.675 162.696 447.984 154.077C446.665 149.893 445.563 146.449 444.75 143.888C444.407 142.77 444.118 141.868 443.883 141.111C443.703 140.48 443.612 140.137 443.648 140.119C443.685 140.101 443.829 140.426 444.082 141.039C444.371 141.778 444.714 142.662 445.13 143.744C446.033 146.106 447.243 149.55 448.67 153.842C451.56 162.408 455.172 174.364 458.984 187.6C462.795 200.836 466.299 212.81 468.99 221.429C470.327 225.613 471.411 229.057 472.224 231.618C472.567 232.736 472.856 233.638 473.091 234.395C473.289 235.044 473.362 235.387 473.326 235.405Z" fill="#F26628"/>
<path d="M572.105 211.511C572.105 211.547 571.78 211.656 571.112 211.836C570.335 212.034 569.396 212.269 568.24 212.557C565.584 213.206 562.008 214.072 557.655 215.136C548.732 217.318 536.413 220.474 522.83 223.972C509.247 227.47 496.892 230.518 487.915 232.501C483.417 233.493 479.787 234.269 477.258 234.756C476.084 234.972 475.127 235.152 474.35 235.297C473.682 235.405 473.32 235.441 473.32 235.405C473.32 235.369 473.645 235.261 474.314 235.08C475.09 234.882 476.03 234.647 477.186 234.359C479.841 233.71 483.417 232.844 487.77 231.78C496.693 229.598 509.012 226.46 522.595 222.944C536.178 219.446 548.533 216.398 557.51 214.415C562.008 213.423 565.639 212.647 568.167 212.16C569.342 211.944 570.299 211.764 571.076 211.619C571.744 211.511 572.087 211.475 572.105 211.511Z" fill="#F26628"/>
<path d="M252.773 271.297C280.445 248.792 284.256 210.526 280.571 176.66C279.957 171.016 280.138 164.993 277.067 160.214C273.997 155.436 267.44 152.514 262.545 155.273C258.481 157.564 257 162.595 254.94 166.814C252.195 172.441 247.86 177.237 242.568 180.501C239.1 182.647 234.71 184.126 230.989 182.413C225.896 180.087 224.812 173.36 224.433 167.734C223.71 157.221 223.006 146.708 222.283 136.195C221.904 130.55 221.488 124.798 219.339 119.586C217.189 114.375 212.945 109.686 207.454 108.586C201.963 107.486 195.55 111.057 194.828 116.665C194.521 118.991 195.171 121.354 195.189 123.698C195.207 126.042 194.304 128.711 192.136 129.541C189.933 130.37 187.549 128.945 185.742 127.413C179.493 122.147 174.995 115.114 170.75 108.099C166.506 101.085 162.369 93.8896 156.625 88.065C150.881 82.2404 143.205 77.8764 135.076 78.0027C126.948 78.1469 118.712 83.7732 117.249 91.8339C115.786 99.9306 121.024 107.649 126.569 113.708C134.769 122.706 144.27 130.478 154.656 136.736C156.535 137.872 158.558 139.08 159.389 141.118C160.888 144.778 157.601 148.782 153.988 150.296C149.888 152.009 145.282 151.901 140.929 152.749C136.558 153.596 131.934 155.887 130.579 160.16C128.7 166.093 133.975 171.773 139.014 175.38C149.111 182.593 160.437 188.057 172.34 191.429C176.603 192.637 181.082 193.647 184.64 196.316C188.199 198.985 190.601 203.89 188.867 208.019C187.133 212.149 182.039 213.808 177.632 213.321C173.225 212.834 169.161 210.76 164.898 209.516C156.914 207.172 146.944 208.434 142.464 215.503C139.52 220.137 139.701 226.287 141.742 231.426C143.783 236.547 147.467 240.821 151.333 244.716C164.844 258.367 181.642 268.916 200.102 273.803C218.562 278.708 235.379 279.159 252.773 271.297Z" fill="white"/>
<path d="M255.088 296.452C252.848 283.09 248.73 267.42 242.408 250.685C236.122 233.915 227.723 216.116 218.294 197.795C215.91 193.232 213.58 188.706 211.25 184.252C208.938 179.816 206.626 175.416 204.115 171.25C199.112 162.901 193.675 155.237 188.274 148.132C182.873 141.027 177.509 134.463 172.433 128.386C167.339 122.309 162.499 116.737 157.857 111.832C148.608 102.004 140.227 94.9715 134.285 90.3732C131.304 88.065 128.956 86.3518 127.331 85.2158C126.554 84.6748 125.94 84.242 125.488 83.9355C125.073 83.6469 124.856 83.5207 124.838 83.5207C124.82 83.5387 125.019 83.701 125.434 84.0076C125.886 84.3502 126.464 84.801 127.222 85.3781C128.794 86.5683 131.124 88.3355 134.05 90.6978C139.92 95.3863 148.193 102.473 157.351 112.337C161.939 117.242 166.743 122.85 171.801 128.945C176.84 135.059 182.187 141.622 187.552 148.727C192.916 155.832 198.317 163.478 203.266 171.791C205.759 175.939 208.035 180.303 210.365 184.757C212.677 189.211 215.025 193.719 217.391 198.3C226.82 216.603 235.237 234.365 241.541 251.064C247.881 267.744 252.071 283.324 254.383 296.615" fill="#F26628"/>
<path d="M203.824 171.214C203.896 171.214 204.022 170.349 204.203 168.762C204.384 167.175 204.564 164.885 204.763 162.054C205.142 156.373 205.395 148.529 205.648 139.873C205.901 131.218 206.262 123.391 206.732 117.747C206.967 114.916 207.165 112.644 207.328 111.057C207.473 109.47 207.527 108.604 207.454 108.586C207.382 108.568 207.202 109.434 206.913 111.003C206.624 112.572 206.316 114.844 205.991 117.675C205.341 123.319 204.853 131.181 204.601 139.855C204.366 148.403 204.167 156.121 204.004 162.036C203.914 164.705 203.842 166.959 203.788 168.762C203.733 170.313 203.751 171.196 203.824 171.214Z" fill="#F26628"/>
<path d="M130.217 163.046C130.217 163.118 131.264 163.154 133.143 163.172C135.021 163.208 137.731 163.226 141.072 163.37C147.774 163.587 157.022 164.236 167.191 165.372C177.36 166.544 186.518 167.987 193.129 169.213C196.434 169.808 199.09 170.367 200.932 170.728C202.774 171.106 203.804 171.287 203.822 171.214C203.84 171.142 202.847 170.836 201.022 170.331C199.198 169.844 196.561 169.177 193.273 168.473C186.699 167.049 177.523 165.48 167.317 164.308C157.112 163.154 147.828 162.649 141.09 162.613C137.731 162.577 135.003 162.649 133.125 162.757C131.246 162.865 130.217 162.955 130.217 163.046Z" fill="#F26628"/>
<path d="M241.426 249.405C241.463 249.423 241.607 249.098 241.86 248.485C242.149 247.746 242.492 246.862 242.908 245.762C243.811 243.4 245.021 239.956 246.448 235.664C249.338 227.098 252.95 215.142 256.762 201.906C260.573 188.652 264.077 176.696 266.768 168.077C268.087 163.893 269.189 160.449 270.002 157.888C270.345 156.77 270.634 155.868 270.869 155.111C271.049 154.48 271.14 154.137 271.103 154.119C271.067 154.101 270.923 154.426 270.67 155.039C270.381 155.778 270.038 156.662 269.622 157.744C268.719 160.106 267.509 163.55 266.082 167.842C263.192 176.408 259.579 188.364 255.768 201.6C251.957 214.836 248.453 226.81 245.761 235.429C244.425 239.613 243.341 243.057 242.528 245.618C242.185 246.736 241.896 247.638 241.661 248.395C241.463 249.044 241.39 249.387 241.426 249.405Z" fill="#F26628"/>
<path d="M142.647 225.511C142.647 225.547 142.972 225.656 143.64 225.836C144.417 226.034 145.356 226.269 146.512 226.557C149.167 227.206 152.744 228.072 157.097 229.136C166.02 231.318 178.339 234.474 191.922 237.972C205.505 241.47 217.86 244.518 226.837 246.501C231.335 247.493 234.965 248.269 237.494 248.756C238.668 248.972 239.625 249.152 240.402 249.297C241.07 249.405 241.432 249.441 241.432 249.405C241.432 249.369 241.107 249.261 240.438 249.08C239.662 248.882 238.722 248.647 237.566 248.359C234.911 247.71 231.335 246.844 226.981 245.78C218.059 243.598 205.74 240.46 192.157 236.944C178.574 233.446 166.219 230.398 157.242 228.415C152.744 227.423 149.113 226.647 146.584 226.16C145.41 225.944 144.453 225.764 143.676 225.619C143.008 225.511 142.665 225.475 142.647 225.511Z" fill="#F26628"/>
<g clip-path="url(#clip0)">
<path d="M388.256 194.822L384.78 227.121C384.78 227.121 378.008 216.904 373.426 221.457C369.059 225.795 361.354 257.485 361.354 257.485C361.354 257.485 361.246 267.816 366.754 270.548C384.385 279.287 404.019 262.812 404.019 262.812L401.233 170.459C393.922 176.603 389.276 185.336 388.256 194.822Z" fill="#F26628"/>
<path d="M447.77 172.402L417.241 169.964C417.054 166.408 417.306 152.635 417.306 152.635C417.306 152.635 404.602 150.664 404.444 137.98C404.286 125.297 406.49 96.1812 406.49 96.1812C421.191 89.8719 438.161 92.0013 450.844 101.745L452.725 103.193L447.77 172.402Z" fill="#FFC3AB"/>
<path d="M417.285 152.456C417.285 152.456 425.314 153.108 433.845 147.76C433.845 147.76 429.931 156.887 417.256 155.74L417.285 152.456Z" fill="#AA6550"/>
<path d="M451.16 116.335C451.375 116.242 459.885 113.761 459.612 122.429C459.332 131.097 450.671 129.033 450.664 128.782C450.657 128.538 451.16 116.335 451.16 116.335Z" fill="#FFC3AB"/>
<path d="M453.422 125.584C453.458 125.555 453.573 125.692 453.824 125.821C454.068 125.942 454.499 126.036 454.951 125.878C455.878 125.57 456.697 124.143 456.79 122.58C456.84 121.791 456.697 121.038 456.438 120.408C456.194 119.762 455.799 119.311 455.339 119.21C454.88 119.088 454.549 119.354 454.434 119.597C454.312 119.834 454.363 120.013 454.312 120.028C454.291 120.049 454.133 119.877 454.212 119.518C454.255 119.346 454.363 119.146 454.571 118.988C454.786 118.823 455.095 118.751 455.411 118.794C456.079 118.859 456.661 119.497 456.948 120.185C457.271 120.881 457.451 121.734 457.393 122.616C457.278 124.358 456.33 125.964 455.066 126.287C454.449 126.423 453.946 126.229 453.688 126.014C453.436 125.792 453.393 125.598 453.422 125.584Z" fill="#AA6550"/>
<path d="M409.292 115.84C409.256 116.794 410.039 117.611 411.045 117.669C412.043 117.719 412.883 116.995 412.912 116.034C412.948 115.08 412.165 114.256 411.167 114.206C410.161 114.156 409.328 114.887 409.292 115.84Z" fill="#263238"/>
<path d="M408.897 114.026C409.12 114.263 410.498 113.245 412.445 113.252C414.391 113.231 415.827 114.234 416.035 113.991C416.136 113.883 415.913 113.46 415.288 113.008C414.678 112.557 413.63 112.119 412.409 112.127C411.195 112.134 410.168 112.578 409.579 113.037C408.99 113.496 408.789 113.926 408.897 114.026Z" fill="#263238"/>
<path d="M428.409 116.522C428.373 117.475 429.156 118.292 430.162 118.35C431.16 118.4 432 117.676 432.029 116.715C432.065 115.762 431.282 114.944 430.284 114.887C429.278 114.837 428.438 115.568 428.409 116.522Z" fill="#263238"/>
<path d="M428.079 114.392C428.301 114.629 429.68 113.611 431.633 113.618C433.58 113.596 435.016 114.6 435.224 114.356C435.325 114.249 435.102 113.826 434.477 113.374C433.867 112.922 432.818 112.485 431.597 112.485C430.384 112.492 429.357 112.937 428.768 113.396C428.172 113.862 427.971 114.285 428.079 114.392Z" fill="#263238"/>
<path d="M420.997 128.846C421.004 128.739 419.79 128.524 417.83 128.273C417.334 128.222 416.86 128.122 416.774 127.785C416.659 127.427 416.868 126.889 417.105 126.308C417.571 125.104 418.067 123.842 418.577 122.523C420.624 117.131 422.103 112.693 421.887 112.614C421.672 112.535 419.834 116.844 417.787 122.236C417.291 123.569 416.825 124.831 416.372 126.05C416.185 126.616 415.862 127.255 416.114 128C416.25 128.373 416.616 128.645 416.932 128.724C417.248 128.825 417.535 128.825 417.78 128.839C419.762 128.947 420.99 128.954 420.997 128.846Z" fill="#263238"/>
<path d="M427.576 106.756C427.77 107.287 429.716 107.036 432.007 107.309C434.305 107.538 436.15 108.205 436.452 107.732C436.589 107.502 436.265 107.007 435.519 106.491C434.779 105.982 433.601 105.495 432.222 105.337C430.851 105.186 429.587 105.401 428.754 105.746C427.92 106.09 427.497 106.506 427.576 106.756Z" fill="#263238"/>
<path d="M409.614 108.391C409.959 108.836 411.302 108.377 412.918 108.355C414.534 108.276 415.905 108.649 416.221 108.19C416.358 107.968 416.142 107.524 415.546 107.101C414.958 106.685 413.974 106.341 412.86 106.376C411.747 106.412 410.785 106.814 410.225 107.265C409.65 107.717 409.464 108.176 409.614 108.391Z" fill="#263238"/>
<path d="M400.306 88.187C400.17 86.6168 400.759 84.932 402.037 84.0071C403.315 83.0822 405.305 83.1395 406.346 84.3297C405.75 82.2147 407.481 79.7698 409.685 79.6336C411.754 79.5045 413.52 81.0675 415.524 81.6124C417.477 82.1501 419.574 81.6841 421.456 80.9313C423.338 80.1785 425.09 79.1317 426.993 78.4362C430.964 76.988 435.503 77.1672 439.338 78.9309C443.18 80.6947 446.275 84.0071 447.762 87.9576C450.541 87.09 453.694 88.5025 455.41 90.8469C457.12 93.1986 457.565 96.2816 457.22 99.1638C456.99 101.114 456.423 103 455.769 104.856C455.769 105.021 455.784 105.179 455.784 105.344C455.655 112.313 454.865 120.508 451.884 120.551C446.692 120.63 447.927 110.865 447.927 110.865C441.557 108.405 443.927 98.8698 442.333 97.4287C440.738 95.9804 437.406 92.625 424.063 99.429C418.885 102.075 411.991 101.989 408.235 101.135C408.127 101.114 408.012 101.092 407.904 101.071C407.883 101.064 407.847 101.064 407.825 101.057C407.782 101.049 407.754 101.021 407.718 101.014C406.518 100.705 405.362 100.239 404.299 99.5653C403.093 98.7981 401.994 97.7657 401.477 96.4321C400.967 95.0986 401.154 93.4352 402.202 92.4601C401.211 91.2198 400.443 89.7572 400.306 88.187Z" fill="#263238"/>
<path d="M472.746 251.971L473.708 269.967L475.856 295.814H394.252L397.792 257.628L390.848 197.288C391.451 175.965 399.652 167.104 416.428 165.067C416.565 165.053 414.963 165.247 415.107 165.232C417.419 164.96 415.107 165.232 416.428 165.067C427.28 168.401 438.131 168.394 448.982 165.046C454.017 165.261 458.182 166.802 462.462 167.627C475.942 170.208 487.037 180.604 489.73 189.652C491.949 197.102 508 261.722 508 261.722H476.071L472.746 251.971Z" fill="#F26628"/>
<path d="M419.338 134.84C419.647 135.614 419.956 136.396 420.473 137.055C420.983 137.708 421.737 138.231 422.57 138.267C423.453 138.31 424.315 137.787 424.803 137.048C425.299 136.31 425.464 135.392 425.428 134.51C425.392 133.707 425.026 132.754 424.229 132.66C423.898 132.625 423.568 132.747 423.259 132.876C421.866 133.442 420.465 134.008 419.072 134.575" fill="#AA6550"/>
<path d="M421.009 138.282C421.031 138.152 421.95 138.525 423.243 138.009C423.868 137.758 424.557 137.256 424.93 136.475C425.311 135.7 425.383 134.654 424.988 133.736C424.895 133.507 424.758 133.299 424.622 133.112C424.456 132.94 424.485 132.947 424.306 132.976C424.133 133.019 423.86 133.148 423.638 133.241C423.401 133.334 423.178 133.428 422.948 133.521C422.051 133.879 421.239 134.202 420.557 134.453C419.185 134.962 418.316 135.234 418.273 135.141C418.23 135.048 419.027 134.603 420.349 133.973C421.009 133.657 421.799 133.284 422.683 132.89C422.905 132.79 423.128 132.689 423.358 132.589C423.602 132.488 423.789 132.381 424.126 132.273C424.291 132.23 424.521 132.202 424.751 132.295C424.974 132.388 425.11 132.531 425.211 132.66C425.397 132.911 425.562 133.162 425.685 133.456C426.18 134.596 426.058 135.865 425.555 136.805C425.045 137.765 424.169 138.303 423.429 138.518C422.675 138.748 422.029 138.697 421.613 138.59C421.189 138.461 420.995 138.317 421.009 138.282Z" fill="#263238"/>
<path d="M390.712 248.365L371.494 189.459L369.756 179.564C369.756 179.564 364.528 157.518 364.298 155.331C364.032 152.807 362.747 152.334 361.82 152.492C360.377 152.743 359.544 154.636 359.709 156.808C359.767 157.561 361.131 169.362 361.131 169.362C361.131 169.362 360.485 168.444 358.495 166.422C356.506 164.401 352.262 163.576 348.061 164.164C343.859 164.752 342.732 165.29 342.89 166.932C342.955 167.591 343.378 168.079 343.888 168.43C344.721 169.011 345.763 169.219 346.775 169.09C353.519 168.236 355.723 171.649 355.723 171.649L355.953 172.94C355.953 172.94 351.529 170.452 348.398 172.044C347.888 172.302 347.493 172.631 347.177 172.99C345.382 173.198 343.73 174.366 342.962 176.001C342.165 177.7 342.358 179.823 343.45 181.35C343.974 182.081 344.858 182.712 345.712 182.447C346.165 182.303 346.502 181.938 346.825 181.594C346.998 181.414 347.177 181.235 347.378 181.084L348.527 184.619C348.527 184.619 351.529 192.427 352.449 195.969L361.806 255.283C363.106 263.507 370.905 269.071 379.121 267.63C388.047 266.074 393.52 256.975 390.712 248.365Z" fill="#FFC3AB"/>
<path d="M369.461 188.856C368.255 189.33 366.89 188.555 366.1 187.537C365.31 186.512 364.894 185.25 364.183 184.175C362.057 180.955 357.626 179.78 355.651 176.46C355.378 175.994 355.184 175.342 355.579 174.976C355.946 174.639 356.535 174.811 356.994 175.005C360.93 176.661 364.865 178.31 368.801 179.966" fill="#FFC3AB"/>
<path d="M368.8 179.959C368.822 179.916 368.383 179.679 367.579 179.292C366.775 178.905 365.597 178.367 364.146 177.722C362.624 177.055 360.9 176.302 359.012 175.478C358.523 175.27 358.028 175.055 357.525 174.84C357.037 174.675 356.476 174.237 355.636 174.517C355.22 174.675 354.976 175.169 355.004 175.549C355.011 175.937 355.141 176.259 355.299 176.553C355.629 177.098 355.995 177.6 356.433 178.059C358.193 179.894 360.319 180.934 361.913 182.246C362.724 182.884 363.414 183.572 363.924 184.318C364.434 185.056 364.786 185.859 365.188 186.562C365.935 188.018 367.141 188.907 368.075 189.057C369.023 189.229 369.497 188.871 369.468 188.856C369.454 188.785 368.965 189.028 368.139 188.785C367.313 188.555 366.301 187.738 365.64 186.318C365.281 185.623 364.951 184.806 364.426 183.988C363.902 183.164 363.17 182.411 362.337 181.73C360.692 180.346 358.588 179.271 356.965 177.571C356.555 177.155 356.218 176.675 355.931 176.216C355.665 175.757 355.643 175.263 355.916 175.184C356.204 175.055 356.742 175.277 357.252 175.492C357.762 175.7 358.257 175.908 358.746 176.109C360.656 176.876 362.401 177.586 363.938 178.202C365.417 178.79 366.624 179.256 367.464 179.557C368.304 179.858 368.778 180.009 368.8 179.959Z" fill="#AA6550"/>
<path d="M356.11 172.997C356.016 173.026 356.067 171.965 355.09 170.81C354.609 170.244 353.84 169.756 352.871 169.541C351.909 169.312 350.795 169.326 349.625 169.427C348.454 169.52 347.305 169.627 346.257 169.491C345.215 169.355 344.289 169.032 343.635 168.523C342.968 168.014 342.759 167.29 342.781 166.853C342.802 166.401 342.917 166.179 342.932 166.179C342.975 166.186 342.924 166.43 342.96 166.845C342.996 167.254 343.226 167.842 343.836 168.265C344.433 168.688 345.316 168.968 346.3 169.068C347.291 169.176 348.404 169.061 349.582 168.961C350.767 168.86 351.937 168.853 352.971 169.125C354.006 169.376 354.853 169.957 355.341 170.602C355.844 171.24 356.031 171.886 356.103 172.316C356.174 172.753 356.138 172.997 356.11 172.997Z" fill="#AA6550"/>
<path d="M359.658 155.983C359.723 155.983 359.809 156.88 359.945 158.328C360.103 159.941 360.29 161.863 360.491 163.985C360.728 166.107 360.943 168.028 361.123 169.635C361.288 171.083 361.396 171.979 361.324 171.986C361.259 172 361.044 171.119 360.793 169.685C360.534 168.251 360.254 166.25 360.017 164.035C359.787 161.82 359.651 159.805 359.608 158.349C359.557 156.887 359.593 155.983 359.658 155.983Z" fill="#AA6550"/>
<path d="M353.725 175.944C353.711 175.98 353.46 175.886 353.007 175.75C352.576 175.628 351.844 175.442 351.183 175.858C350.86 176.059 350.673 176.439 350.68 176.905C350.673 177.363 350.824 177.865 350.953 178.417C351.083 178.962 351.205 179.651 350.874 180.296C350.544 180.92 349.883 181.328 349.172 181.421C348.44 181.522 347.743 181.235 347.233 180.819C346.723 180.396 346.357 179.866 346.185 179.271C345.89 178.131 345.876 177.105 345.905 176.245C345.948 175.385 346.099 174.689 346.293 174.237C346.494 173.786 346.695 173.599 346.709 173.614C346.745 173.642 346.594 173.857 346.465 174.302C346.328 174.746 346.235 175.42 346.235 176.259C346.242 177.091 346.307 178.116 346.594 179.156C346.896 180.109 347.93 181.106 349.108 180.963C349.682 180.891 350.214 180.547 350.465 180.088C350.716 179.622 350.652 179.055 350.53 178.518C350.415 177.98 350.257 177.435 350.285 176.89C350.285 176.352 350.573 175.8 351.004 175.578C351.865 175.105 352.648 175.413 353.072 175.578C353.517 175.772 353.74 175.915 353.725 175.944Z" fill="#AA6550"/>
<path d="M347.392 180.446C347.414 180.439 347.507 180.683 347.399 181.12C347.292 181.536 346.933 182.167 346.157 182.483C345.396 182.784 344.311 182.647 343.478 181.959C342.645 181.278 342.121 180.167 341.984 178.977C341.855 177.779 342.135 176.618 342.652 175.714C343.169 174.804 343.909 174.18 344.577 173.8C345.252 173.413 345.87 173.255 346.301 173.191C346.731 173.133 346.968 173.155 346.968 173.183C346.99 173.277 345.999 173.284 344.757 174.08C344.146 174.474 343.485 175.083 343.033 175.922C342.573 176.754 342.329 177.829 342.451 178.919C342.566 180.009 343.04 181.02 343.751 181.622C344.455 182.232 345.381 182.382 346.035 182.16C346.703 181.938 347.069 181.421 347.213 181.056C347.371 180.69 347.349 180.446 347.392 180.446Z" fill="#AA6550"/>
<path d="M356.391 187.465C356.384 187.422 356.8 187.293 357.525 187.358C358.236 187.422 359.271 187.738 360.147 188.584L359.759 188.742C359.759 188.24 359.788 187.695 359.852 187.143C360.211 184.031 361.669 181.873 361.755 181.952C361.885 182.009 360.657 184.203 360.319 187.2C360.254 187.738 360.218 188.261 360.211 188.749L360.197 189.287L359.823 188.907C359.055 188.132 358.136 187.781 357.475 187.645C356.807 187.501 356.391 187.53 356.391 187.465Z" fill="#AA6550"/>
<path d="M353.998 167.39C354.113 167.433 353.747 168.33 352.756 168.882C351.772 169.448 350.81 169.298 350.839 169.176C350.839 169.039 351.672 168.968 352.526 168.473C353.388 168 353.876 167.319 353.998 167.39Z" fill="#AA6550"/>
<path d="M405.937 167.383C405.959 167.405 405.672 167.67 405.19 168.222C404.731 168.781 403.984 169.613 403.524 170.889C403.409 171.212 403.352 171.556 403.338 171.922C403.345 172.287 403.431 172.66 403.61 173.004C403.998 173.693 404.781 174.209 405.679 174.539C407.503 175.22 409.772 175.42 412.25 175.463C413.492 175.485 414.821 175.535 416.185 175.614C416.868 175.693 417.564 175.779 418.275 175.858C418.986 175.937 419.697 176.123 420.422 176.259C423.302 176.912 426.376 178.016 429.055 180.088C430.39 181.106 431.626 182.346 432.624 183.823C432.861 184.196 433.098 184.583 433.299 184.985C433.507 185.401 433.651 185.816 433.83 186.225C434.146 187.064 434.412 187.946 434.577 188.849C435.295 192.448 434.742 196.435 432.89 199.869C431.015 203.318 427.834 205.82 424.401 207.103C422.677 207.748 420.882 208.085 419.115 208.15C417.342 208.207 415.618 207.892 414.002 207.526C412.386 207.168 410.828 206.795 409.305 206.687C407.783 206.58 406.304 206.795 405.04 207.44C403.776 208.071 402.741 209.032 401.844 210.028C400.946 211.032 400.185 212.086 399.431 213.09C397.937 215.09 396.364 216.847 394.519 217.772C393.614 218.231 392.659 218.496 391.782 218.489C390.906 218.496 390.116 218.324 389.448 218.051C388.781 217.786 388.249 217.42 387.847 217.04C387.452 216.653 387.201 216.252 387.043 215.908C386.748 215.212 386.791 214.803 386.791 214.803C386.842 214.796 386.856 215.198 387.179 215.836C387.351 216.151 387.61 216.517 387.998 216.868C388.393 217.212 388.91 217.535 389.549 217.772C390.813 218.238 392.615 218.36 394.318 217.392C396.041 216.481 397.542 214.768 398.993 212.76C399.725 211.756 400.486 210.681 401.391 209.634C402.303 208.602 403.373 207.576 404.738 206.874C406.102 206.164 407.725 205.92 409.327 206.021C410.936 206.121 412.523 206.494 414.131 206.838C415.74 207.189 417.385 207.476 419.072 207.419C420.76 207.347 422.476 207.024 424.121 206.401C427.403 205.16 430.433 202.773 432.207 199.489C433.974 196.22 434.513 192.405 433.838 188.964C433.68 188.104 433.435 187.265 433.134 186.455C432.969 186.053 432.818 185.637 432.638 185.279C432.452 184.906 432.236 184.54 432.006 184.189C431.073 182.791 429.895 181.594 428.617 180.611C426.06 178.604 423.08 177.507 420.264 176.84C419.553 176.704 418.857 176.51 418.16 176.424C417.464 176.338 416.781 176.245 416.106 176.159C414.756 176.066 413.464 176.001 412.207 175.965C409.7 175.879 407.395 175.65 405.499 174.897C404.558 174.531 403.704 173.958 403.266 173.14C403.057 172.732 402.971 172.294 402.978 171.879C403.007 171.47 403.086 171.09 403.215 170.753C403.754 169.412 404.544 168.609 405.047 168.079C405.6 167.598 405.916 167.369 405.937 167.383Z" fill="#FAFAFA"/>
<path d="M460.566 215.191C460.53 215.198 460.351 214.639 460.221 213.577C460.085 212.524 460.099 210.953 460.523 209.082C460.932 207.211 461.852 205.074 463.309 203.002C464.774 200.937 466.814 198.951 469.342 197.446C471.877 195.969 474.541 195.058 477.012 194.556C479.482 194.04 481.752 193.882 483.655 193.875C485.551 193.868 487.087 193.976 488.136 194.105C489.184 194.227 489.766 194.341 489.759 194.384C489.752 194.513 487.418 194.262 483.669 194.406C481.795 194.485 479.568 194.693 477.163 195.23C474.757 195.761 472.179 196.664 469.73 198.091C467.302 199.539 465.32 201.432 463.877 203.404C462.44 205.383 461.5 207.419 461.04 209.211C460.573 211.004 460.473 212.523 460.516 213.556C460.544 214.603 460.631 215.176 460.566 215.191Z" fill="#FAFAFA"/>
<path d="M499.806 227.651C499.842 227.68 499.562 228.139 498.959 228.913C498.363 229.688 497.4 230.734 496.064 231.874C494.736 233.014 492.991 234.205 490.887 235.201C488.79 236.205 486.312 236.979 483.64 237.309C480.962 237.617 478.376 237.452 476.093 236.979C473.809 236.506 471.834 235.768 470.268 234.979C468.703 234.19 467.518 233.394 466.757 232.785C465.988 232.183 465.608 231.796 465.636 231.76C465.722 231.638 467.367 233.072 470.498 234.499C473.593 235.932 478.34 237.187 483.547 236.563C488.754 235.932 493.063 233.581 495.727 231.459C498.434 229.336 499.691 227.558 499.806 227.651Z" fill="#FAFAFA"/>
<path d="M463.734 225.364C463.741 225.393 463.504 225.465 463.08 225.63C462.657 225.795 462.046 226.117 461.436 226.719C460.825 227.329 460.244 228.225 459.784 229.365C459.324 230.512 458.951 231.882 458.628 233.409C458.297 234.943 458.046 236.664 457.457 238.463C457.156 239.36 456.768 240.277 456.215 241.138C455.655 241.991 454.951 242.794 454.118 243.475C452.466 244.859 450.391 245.819 448.186 246.472C445.974 247.124 443.633 247.483 441.277 247.942C436.58 248.809 432.279 250.544 428.997 253.046C427.352 254.28 425.98 255.699 424.903 257.162C423.848 258.646 423.079 260.18 422.569 261.65C421.557 264.597 421.549 267.192 421.808 268.906C422.067 270.634 422.462 271.544 422.383 271.566C422.361 271.573 422.253 271.358 422.081 270.92C421.988 270.705 421.901 270.433 421.801 270.103C421.693 269.781 421.607 269.393 421.521 268.956C421.169 267.221 421.083 264.547 422.067 261.485C422.562 259.965 423.323 258.366 424.401 256.811C425.499 255.269 426.9 253.799 428.58 252.509C431.934 249.899 436.358 248.099 441.134 247.218C443.511 246.752 445.83 246.4 447.978 245.776C450.118 245.16 452.107 244.242 453.68 242.952C454.47 242.321 455.13 241.575 455.662 240.786C456.186 239.991 456.567 239.13 456.868 238.277C457.457 236.556 457.744 234.85 458.111 233.308C458.47 231.76 458.886 230.383 459.396 229.215C459.913 228.046 460.56 227.128 461.235 226.519C461.917 225.916 462.578 225.622 463.03 225.493C463.482 225.357 463.734 225.343 463.734 225.364Z" fill="#FAFAFA"/>
<path d="M444.494 222.367C444.523 222.353 444.788 222.848 444.867 223.837C444.946 224.812 444.738 226.318 443.718 227.802C443.208 228.533 442.505 229.265 441.557 229.759C441.09 230.025 440.558 230.197 439.998 230.326C439.438 230.419 438.842 230.469 438.246 230.398C437.047 230.276 435.833 229.802 434.799 229.007C433.772 228.211 432.917 227.056 432.572 225.68C432.357 224.805 432.343 223.895 432.537 223.041C432.723 222.174 433.204 221.414 433.678 220.79C434.167 220.152 434.684 219.578 435.251 219.069C435.538 218.818 435.833 218.582 436.163 218.388C436.494 218.195 436.845 218.015 437.291 217.994L437.384 218.632C437.262 218.661 437.147 218.689 437.032 218.718L436.853 218.102C438.296 217.686 439.718 217.872 440.81 218.317C441.923 218.74 442.741 219.421 443.309 220.037C443.869 220.668 444.171 221.271 444.329 221.686C444.479 222.124 444.523 222.36 444.494 222.367C444.4 222.41 444.185 221.443 443.043 220.31C442.476 219.758 441.679 219.17 440.637 218.818C439.61 218.446 438.318 218.331 437.054 218.725L436.874 218.109C436.989 218.08 437.104 218.044 437.226 218.015L437.319 218.654C436.817 218.704 436.221 219.127 435.718 219.593C435.201 220.066 434.713 220.625 434.26 221.227C433.8 221.837 433.42 222.468 433.262 223.206C433.097 223.938 433.111 224.733 433.298 225.501C433.592 226.691 434.332 227.709 435.244 228.426C436.163 229.143 437.255 229.587 438.318 229.709C438.849 229.781 439.373 229.745 439.876 229.673C440.372 229.566 440.846 229.43 441.269 229.207C442.131 228.791 442.792 228.139 443.287 227.487C444.278 226.153 444.566 224.762 444.573 223.837C444.587 222.905 444.422 222.389 444.494 222.367Z" fill="#FAFAFA"/>
<path d="M398.151 198.951C398.159 198.951 398.159 199.016 398.159 199.145C398.151 199.295 398.144 199.482 398.137 199.711C398.108 200.235 398.072 200.959 398.029 201.877C397.914 203.755 397.807 206.472 397.656 209.828C397.376 216.546 397.103 225.823 396.88 236.083C396.658 246.343 396.528 255.628 396.428 262.353C396.378 265.694 396.334 268.404 396.306 270.311C396.284 271.229 396.27 271.953 396.263 272.476C396.255 272.706 396.248 272.892 396.241 273.036C396.234 273.165 396.227 273.229 396.22 273.229C396.212 273.229 396.205 273.165 396.198 273.036C396.191 272.885 396.191 272.699 396.184 272.469C396.176 271.946 396.169 271.222 396.162 270.304C396.162 268.397 396.162 265.679 396.162 262.338C396.191 255.613 396.284 246.329 396.507 236.069C396.722 225.809 397.038 216.524 397.39 209.813C397.577 206.458 397.728 203.741 397.886 201.862C397.957 200.944 398.022 200.228 398.065 199.704C398.087 199.475 398.108 199.288 398.123 199.145C398.137 199.016 398.144 198.951 398.151 198.951Z" fill="#263238"/>
<g opacity="0.2">
<path opacity="0.2" d="M384.428 265.615C388.435 267.529 393.67 263.851 395.717 259.915C395.717 259.915 396.787 251.24 396.636 246.809C396.363 238.607 396.96 230.484 396.687 222.281C396.069 227.164 394.001 231.846 390.826 235.603C389.95 236.642 388.952 237.668 388.622 238.994C388.033 241.36 389.843 245.612 391.006 247.755C394.568 254.308 386.769 265.651 384.686 265.443" fill="black"/>
</g>
<g opacity="0.2">
<path opacity="0.2" d="M459.424 212.093C460.738 228.44 462.045 244.787 463.359 261.134C463.481 262.675 463.618 264.253 464.221 265.679C464.832 267.106 466.009 268.382 467.525 268.691C469.851 269.164 472.106 267.164 472.767 264.884C473.428 262.604 472.896 260.173 472.329 257.864C471.352 253.943 470.254 250.057 469.148 246.171C465.945 234.893 462.742 223.615 459.532 212.344" fill="black"/>
</g>
<path d="M414.411 295.828C414.332 295.785 415.093 295.011 415.502 293.225C415.911 291.454 415.653 288.716 414.281 285.755C413.606 284.27 412.651 282.736 411.689 281.037C410.734 279.345 409.728 277.452 409.254 275.244C408.773 273.028 409.046 270.605 409.764 268.304C410.468 265.995 411.516 263.751 412.364 261.399C414.159 256.739 414.066 251.77 412.723 247.684C412.062 245.633 411.107 243.805 410.001 242.242C408.881 240.686 407.624 239.395 406.367 238.356C403.832 236.277 401.354 235.187 399.624 234.599C397.879 234.018 396.859 233.86 396.873 233.789C396.88 233.76 397.132 233.789 397.62 233.853C398.101 233.925 398.819 234.061 399.71 234.319C401.491 234.828 404.055 235.868 406.698 237.94C408.005 238.987 409.326 240.284 410.497 241.876C411.66 243.475 412.665 245.353 413.369 247.468C414.066 249.576 414.475 251.907 414.446 254.33C414.454 256.753 413.944 259.263 413.06 261.65C412.199 264.045 411.15 266.275 410.461 268.519C409.757 270.748 409.491 273.021 409.929 275.108C410.353 277.194 411.308 279.044 412.227 280.736C413.161 282.435 414.095 283.998 414.762 285.539C416.113 288.615 416.299 291.476 415.782 293.297C415.538 294.215 415.157 294.853 414.899 295.262C414.604 295.656 414.432 295.849 414.411 295.828Z" fill="#FAFAFA"/>
<path d="M481.831 177.88C481.867 177.894 481.695 178.439 481.134 179.306C480.581 180.167 479.576 181.321 478.018 182.325C476.474 183.336 474.341 184.146 471.899 184.347C469.457 184.562 466.75 184.203 464.078 183.35C461.407 182.504 458.972 181.178 457.249 179.392C456.394 178.511 455.705 177.528 455.259 176.525C454.814 175.521 454.57 174.51 454.484 173.585C454.311 171.721 454.778 170.215 455.281 169.319C455.396 169.09 455.525 168.896 455.647 168.738C455.755 168.573 455.863 168.444 455.963 168.344C456.15 168.143 456.25 168.05 456.272 168.064C456.329 168.107 455.956 168.538 455.547 169.441C455.144 170.337 454.785 171.771 455.015 173.52C455.13 174.388 455.381 175.327 455.827 176.259C456.265 177.184 456.925 178.08 457.744 178.905C459.389 180.554 461.716 181.816 464.308 182.633C466.901 183.458 469.508 183.823 471.849 183.658C474.19 183.501 476.229 182.791 477.745 181.873C479.274 180.963 480.294 179.916 480.905 179.134C481.508 178.353 481.774 177.851 481.831 177.88Z" fill="#FAFAFA"/>
<path d="M471.999 255.011C471.992 255.011 471.971 254.946 471.92 254.81C471.87 254.652 471.813 254.459 471.734 254.208C471.568 253.656 471.339 252.874 471.051 251.885C470.47 249.842 469.637 246.924 468.61 243.332C466.577 236.083 463.776 226.103 460.681 215.083C459.152 209.562 457.687 204.307 456.358 199.518C455.697 197.123 455.123 194.822 454.828 192.62C454.527 190.419 454.512 188.333 454.807 186.462C455.431 182.698 457.277 180.031 458.871 178.661C459.669 177.958 460.401 177.564 460.889 177.306C461.126 177.206 461.32 177.127 461.471 177.062C461.6 177.012 461.672 176.983 461.672 176.991C461.708 177.048 460.538 177.371 458.965 178.769C457.428 180.152 455.647 182.798 455.065 186.505C454.785 188.347 454.821 190.412 455.13 192.577C455.439 194.757 456.02 197.037 456.681 199.424C458.017 204.207 459.489 209.462 461.033 214.983C464.085 226.017 466.85 236.004 468.854 243.26C469.83 246.866 470.628 249.791 471.181 251.842C471.439 252.839 471.647 253.62 471.798 254.179C471.863 254.43 471.913 254.631 471.949 254.789C471.992 254.932 472.006 255.004 471.999 255.011Z" fill="#263238"/>
<path d="M442.749 96.2385C442.699 96.2314 442.879 95.6865 442.757 94.7042C442.635 93.7363 442.089 92.3239 440.775 91.1409C439.496 89.9221 437.392 89.1979 435.058 89.2553C432.71 89.2768 430.211 90.0439 427.625 90.9115C426.325 91.3416 425.047 91.7431 423.783 92.0228C422.512 92.2952 421.262 92.4458 420.07 92.4744C417.679 92.5461 415.539 92.159 413.815 91.6499C412.091 91.1266 410.77 90.4885 409.901 89.9937C409.463 89.75 409.133 89.5349 408.917 89.3843C408.702 89.2338 408.587 89.1549 408.594 89.1406C408.616 89.1047 409.075 89.413 409.973 89.8575C410.863 90.3092 412.178 90.9043 413.894 91.3918C415.61 91.8579 417.715 92.2092 420.07 92.1231C421.241 92.0873 422.469 91.9296 423.718 91.6571C424.968 91.3775 426.232 90.9688 427.525 90.5458C430.103 89.6783 432.652 88.8968 435.065 88.8968C437.464 88.8538 439.661 89.6353 440.968 90.933C442.311 92.1877 442.836 93.6718 442.922 94.6684C442.986 95.7008 442.749 96.2385 442.749 96.2385Z" fill="#455A64"/>
<path d="M452.63 117.662C452.616 117.669 452.558 117.575 452.465 117.396C452.364 117.217 452.228 116.945 452.07 116.586C451.754 115.876 451.359 114.808 451.057 113.431C450.77 112.062 450.583 110.384 450.727 108.527C450.842 106.663 451.424 104.699 451.862 102.634C452.314 100.583 452.422 98.5328 451.876 96.8049C451.618 95.9446 451.187 95.1918 450.662 94.5967C450.131 94.0159 449.477 93.6216 448.838 93.3993C447.546 92.9477 446.382 93.1484 445.707 93.4782C445.025 93.8224 444.766 94.1952 444.73 94.1593C444.73 94.1593 444.946 93.7507 445.635 93.3492C446.325 92.962 447.546 92.7039 448.924 93.1484C449.607 93.3635 450.311 93.765 450.892 94.3816C451.467 94.9982 451.926 95.794 452.206 96.6974C452.795 98.497 452.688 100.626 452.235 102.706C451.79 104.792 451.208 106.728 451.079 108.549C450.921 110.363 451.072 112.012 451.323 113.374C451.582 114.729 451.934 115.797 452.214 116.522C452.472 117.26 452.659 117.647 452.63 117.662Z" fill="#455A64"/>
<path d="M443.97 95.2133C443.955 95.2133 443.962 95.034 443.977 94.7042C443.991 94.3314 444.005 93.851 444.034 93.2488C444.048 91.9941 444.084 90.1371 443.445 87.9862C443.115 86.9251 442.583 85.7995 441.75 84.7886C440.925 83.7848 439.768 82.9029 438.346 82.5445C436.932 82.1573 435.344 82.2935 433.8 82.7309C432.249 83.1682 430.755 83.9425 429.255 84.7886C427.754 85.6346 426.281 86.4949 424.745 87.1044C423.2 87.6995 421.613 88.0077 420.098 88.0364C418.583 88.0723 417.139 87.8787 415.847 87.513C414.554 87.1474 413.398 86.6455 412.392 86.0934C410.403 84.9535 409.089 83.6056 408.306 82.609C407.904 82.1143 407.645 81.6913 407.48 81.4045C407.308 81.1177 407.222 80.9671 407.236 80.96C407.25 80.9528 407.351 81.0962 407.545 81.3686C407.731 81.6411 408.004 82.0497 408.421 82.5229C409.225 83.4837 410.554 84.7742 412.522 85.864C413.513 86.3946 414.654 86.8678 415.926 87.2119C417.197 87.5561 418.611 87.7281 420.091 87.6851C421.57 87.6493 423.107 87.341 424.608 86.7602C426.109 86.1651 427.56 85.312 429.068 84.4588C430.569 83.6056 432.098 82.8169 433.7 82.3724C435.287 81.9279 436.946 81.7916 438.433 82.2075C439.933 82.6018 441.147 83.541 441.987 84.5878C442.842 85.6418 443.381 86.8104 443.697 87.9074C444.314 90.1228 444.228 91.9941 444.178 93.256C444.142 93.8869 444.092 94.3816 444.056 94.7114C444.013 95.0412 443.984 95.2133 443.97 95.2133Z" fill="#455A64"/>
<path d="M425.004 274.484L478.708 266.49L477.839 261.722H506.744L507.592 269.056C510.213 282.65 499.857 295.29 485.997 295.426L423.359 294.731L425.004 274.484Z" fill="#FFC3AB"/>
<path d="M428.882 275.409C428.594 275.502 424.975 273.882 421.736 272.39C418.296 270.799 414.519 270.067 410.734 270.261L395.804 271.014C395.804 271.014 396.723 273.473 398.31 274.348C399.89 275.222 409.176 275.409 409.176 275.409L408.702 275.896C406.748 277.904 404.077 279.072 401.269 279.144L399.84 279.18C398.784 279.094 397.735 278.893 396.723 278.571L393.039 277.086C391.926 276.585 390.748 276.663 390.259 277.789C389.821 278.8 390.145 280.198 393.182 281.725C394.884 282.578 401.183 284.758 401.183 284.758C401.183 284.758 401.276 286.5 401.549 287.411C401.822 288.328 404.299 289.239 404.299 289.239C404.299 289.239 405.858 292.444 406.497 293.175C406.784 293.505 409.025 294.2 411.416 294.867C415.266 295.95 419.345 295.921 423.18 294.781L428.867 293.082V275.774" fill="#FFC3AB"/>
<path d="M408.449 286.715C408.442 286.808 406.668 286.722 404.564 286.163C402.46 285.611 400.873 284.822 400.909 284.736C400.952 284.636 402.582 285.26 404.658 285.805C406.74 286.35 408.464 286.601 408.449 286.715Z" fill="#AA6550"/>
<path d="M407.925 290.207C407.925 290.307 406.963 290.365 405.828 290.056C404.687 289.748 403.889 289.21 403.94 289.124C403.99 289.031 404.837 289.404 405.929 289.691C407.013 289.992 407.933 290.092 407.925 290.207Z" fill="#AA6550"/>
<path d="M492.899 278.994C492.827 279.022 492.475 277.954 491.613 276.384C491.189 275.595 490.608 274.699 489.897 273.76C489.164 272.828 488.295 271.86 487.29 270.942C486.27 270.039 485.207 269.279 484.209 268.655C483.196 268.045 482.241 267.565 481.408 267.228C479.749 266.54 478.658 266.303 478.672 266.231C478.679 266.203 478.952 266.253 479.448 266.361C479.699 266.411 480.001 266.482 480.338 266.59C480.683 266.698 481.078 266.805 481.502 266.977C482.356 267.285 483.34 267.751 484.381 268.354C485.415 268.97 486.5 269.737 487.541 270.662C488.568 271.594 489.452 272.591 490.177 273.545C490.888 274.512 491.455 275.437 491.857 276.255C492.08 276.649 492.224 277.036 492.367 277.366C492.518 277.696 492.619 277.99 492.698 278.226C492.848 278.714 492.92 278.986 492.899 278.994Z" fill="#AA6550"/>
<path d="M410.656 274.068C410.692 274.104 410.261 274.584 409.499 275.301C408.738 276.011 407.632 276.95 406.246 277.76C404.86 278.571 403.46 279.022 402.433 279.23C401.406 279.438 400.759 279.452 400.752 279.409C400.716 279.273 403.338 279.037 406.059 277.438C407.41 276.649 408.523 275.753 409.327 275.1C410.124 274.441 410.62 274.025 410.656 274.068Z" fill="#AA6550"/>
<path d="M256.156 257.04C257.434 257.04 246.375 286.708 243.531 294.286C243.215 295.125 242.992 295.864 242.992 295.864L320.424 296L319.512 224.074C319.512 224.024 319.504 223.981 319.504 223.93L313.027 172.481C312.962 171.972 312.596 171.549 312.1 171.413C309.034 170.581 297.988 167.735 289.536 167.426C279.625 167.061 265.298 169.025 265.298 169.025C265.298 169.025 252.443 170.351 245.362 172.897C244.795 173.105 244.45 173.671 244.529 174.266L256.156 257.04Z" fill="#F26628"/>
<path d="M291.914 225.164C291.935 225.171 291.799 225.508 291.526 226.096C291.397 226.397 291.224 226.755 290.98 227.15C290.743 227.551 290.506 228.017 290.162 228.49C289.838 228.978 289.472 229.501 289.034 230.032C288.618 230.584 288.108 231.107 287.583 231.674C286.492 232.763 285.192 233.875 283.698 234.864C282.197 235.832 280.66 236.578 279.217 237.144C278.484 237.395 277.795 237.653 277.127 237.818C276.466 238.012 275.834 238.134 275.26 238.241C274.685 238.37 274.161 238.399 273.701 238.456C273.242 238.521 272.84 238.535 272.517 238.535C271.863 238.549 271.504 238.542 271.504 238.514C271.497 238.435 272.947 238.442 275.217 237.983C275.784 237.861 276.402 237.732 277.048 237.524C277.709 237.352 278.384 237.087 279.102 236.829C280.517 236.255 282.025 235.509 283.504 234.556C284.969 233.581 286.255 232.498 287.346 231.437C287.871 230.885 288.388 230.376 288.804 229.838C289.25 229.329 289.623 228.813 289.961 228.347C291.268 226.454 291.842 225.121 291.914 225.164Z" fill="#263238"/>
<g opacity="0.2">
<path opacity="0.2" d="M245.621 288.68C252.946 291.784 261.392 290.573 267.834 285.905C270.627 283.883 272.968 281.238 275.985 279.56C280.164 277.23 285.141 277.015 289.917 276.671C296.308 276.219 302.743 275.43 308.747 273.215C309.961 272.763 311.21 272.225 312.043 271.229C312.876 270.232 313.156 268.662 312.345 267.651C311.519 266.619 309.989 266.561 308.661 266.597C288.639 267.185 270.34 268.791 250.849 273.416" fill="black"/>
</g>
<path d="M267.201 93.4209C273.392 87.133 283.159 83.4192 291.252 86.9538C296.696 89.327 300.38 94.4246 305.156 97.9521C308.631 100.519 312.933 102.505 314.75 106.419C316.359 109.868 315.583 113.89 315.195 117.676C314.808 121.461 315.081 125.828 318.018 128.258C319.562 129.535 321.587 130.036 323.325 131.033C326.822 133.033 328.898 136.926 329.645 140.877C330.392 144.827 329.989 148.9 329.58 152.9L312.912 156.069L310.176 151.474L309.22 158.701L287.949 160.615L267.201 93.4209Z" fill="#263238"/>
<path d="M264.451 100.289L264.415 104.921L263.101 174.323C262.986 182.368 270.699 189.215 279.324 189.272C288.042 189.33 291.597 182.791 291.841 174.668C292.1 166.143 292.538 157.166 292.538 157.166C292.538 157.166 303.59 155.646 306.269 141.372C307.598 134.274 307.562 122.573 307.224 113.001C306.923 104.383 299.497 97.7585 290.893 98.4253L264.451 100.289Z" fill="#FFC3AB"/>
<path d="M303.439 122.229C303.446 123.204 302.627 124.007 301.615 124.035C300.602 124.064 299.769 123.297 299.762 122.329C299.755 121.354 300.573 120.551 301.586 120.522C302.606 120.486 303.432 121.254 303.439 122.229Z" fill="#263238"/>
<path d="M304.523 119.017C304.286 119.253 302.922 118.178 300.94 118.135C298.958 118.056 297.478 119.038 297.27 118.787C297.169 118.68 297.414 118.249 298.06 117.805C298.699 117.36 299.769 116.945 301.004 116.988C302.239 117.031 303.266 117.511 303.848 117.991C304.444 118.472 304.638 118.916 304.523 119.017Z" fill="#263238"/>
<path d="M283.919 122.229C283.926 123.204 283.108 124.007 282.095 124.035C281.082 124.064 280.249 123.297 280.242 122.329C280.235 121.354 281.054 120.551 282.066 120.522C283.086 120.486 283.912 121.254 283.919 122.229Z" fill="#263238"/>
<path d="M285.033 118.852C284.796 119.088 283.432 118.013 281.449 117.97C279.467 117.891 277.988 118.873 277.78 118.622C277.679 118.515 277.923 118.085 278.57 117.64C279.209 117.195 280.279 116.78 281.514 116.823C282.749 116.866 283.776 117.346 284.358 117.826C284.954 118.307 285.148 118.744 285.033 118.852Z" fill="#263238"/>
<path d="M291.82 133.722C291.813 133.607 293.055 133.428 295.051 133.234C295.561 133.198 296.043 133.105 296.136 132.768C296.265 132.41 296.071 131.857 295.841 131.262C295.396 130.029 294.937 128.731 294.448 127.376C292.524 121.841 291.145 117.296 291.367 117.224C291.59 117.145 293.335 121.576 295.26 127.104C295.719 128.466 296.165 129.771 296.588 131.011C296.761 131.592 297.077 132.252 296.797 133.005C296.653 133.377 296.272 133.643 295.942 133.722C295.612 133.815 295.332 133.808 295.08 133.815C293.069 133.858 291.827 133.836 291.82 133.722Z" fill="#263238"/>
<path d="M292.546 157.166C292.546 157.166 282.865 157.525 273.457 151.517C273.457 151.517 277.852 161.49 292.258 160.543L292.546 157.166Z" fill="#EB996E"/>
<path d="M290.85 138.468C290.161 137.507 288.933 136.955 287.683 137.055C286.821 137.127 285.938 137.514 285.399 138.195C284.861 138.877 284.724 139.873 285.177 140.547C285.694 141.314 286.8 141.515 287.755 141.271C288.71 141.027 289.536 140.432 290.326 139.83C290.541 139.665 290.771 139.493 290.908 139.264C291.044 139.034 291.087 138.726 290.922 138.525" fill="#EB996E"/>
<path d="M285.953 134.926C286.276 134.919 286.218 137.063 288.021 138.64C289.816 140.217 292.114 140.045 292.122 140.339C292.15 140.475 291.597 140.741 290.628 140.741C289.68 140.748 288.301 140.404 287.202 139.443C286.104 138.475 285.658 137.22 285.608 136.331C285.551 135.435 285.802 134.912 285.953 134.926Z" fill="#263238"/>
<path d="M285.664 113.094C285.456 113.625 283.481 113.317 281.147 113.532C278.813 113.704 276.917 114.328 276.623 113.84C276.493 113.603 276.831 113.109 277.607 112.607C278.375 112.105 279.581 111.646 280.982 111.531C282.382 111.417 283.653 111.675 284.494 112.041C285.334 112.406 285.75 112.844 285.664 113.094Z" fill="#263238"/>
<path d="M304.597 115.023C304.159 115.46 302.514 114.951 300.51 114.873C298.514 114.736 296.812 115.073 296.438 114.593C296.273 114.363 296.553 113.919 297.307 113.51C298.047 113.109 299.275 112.793 300.647 112.865C302.018 112.937 303.196 113.381 303.878 113.854C304.568 114.335 304.79 114.808 304.597 115.023Z" fill="#263238"/>
<path d="M249.629 171.577C249.629 171.577 226.533 176.991 222.052 198.851C219.99 208.896 217.111 266.583 230.569 275.545C247.941 287.11 270.031 276.585 270.031 276.585L267.195 248.68H252.86L250.929 218.109C251.467 220.46 249.629 171.577 249.629 171.577Z" fill="#F26628"/>
<path d="M331.794 267.608C336.268 267.149 340.541 264.927 343.485 261.528C346.43 258.13 348.01 253.584 347.816 249.096L338.386 209.075C338.386 209.075 332.268 174.725 312.928 171.635L319.52 223.995L318.888 235.029C318.888 235.029 319.19 242.328 319.93 256.008L331.794 267.608Z" fill="#F26628"/>
<path d="M334.291 242.564C334.291 242.643 332.927 242.5 330.808 242.944C328.711 243.375 325.838 244.55 323.526 246.902C321.213 249.261 320.1 252.15 319.712 254.258C319.31 256.38 319.483 257.743 319.404 257.743C319.382 257.743 319.325 257.413 319.296 256.796C319.26 256.187 319.282 255.298 319.454 254.208C319.777 252.057 320.883 249.067 323.26 246.637C325.637 244.213 328.61 243.052 330.765 242.686C331.849 242.493 332.74 242.45 333.35 242.471C333.961 242.493 334.298 242.543 334.291 242.564Z" fill="#263238"/>
<path d="M274.706 91.822C277.306 95.3065 278.541 97.9879 280.099 104.183C280.861 107.215 278.39 109.366 275.934 111.216C274.785 112.084 273.119 111.481 272.803 110.069C272.803 110.069 273.658 119.569 270.218 123.827C268.602 125.821 268.537 128.387 268.918 130.545C269.306 132.747 270.447 134.733 271.992 136.353C275.977 140.54 277.09 147.373 274.34 152.506C273.636 153.818 272.717 155.023 272.157 156.406C271.834 157.195 271.647 158.084 271.697 158.93C271.762 159.977 271.036 160.902 270.002 161.052C258.196 162.766 246.195 163.124 234.31 162.121C233.47 162.049 232.759 161.461 232.565 160.644C231.631 156.708 233.19 152.413 235.179 148.792C237.405 144.741 240.235 140.863 241.003 136.31C241.721 132.022 240.551 127.405 242.274 123.412C244.393 118.515 250.145 116.199 253.025 111.711C255.74 107.473 255.524 101.917 257.959 97.5076C261.076 91.8507 268.774 89.2338 274.706 91.822Z" fill="#263238"/>
<path d="M275.367 97.0846C279.885 99.4004 281.967 104.914 286.355 107.473C290.348 109.796 295.339 109.187 299.914 108.499C299.742 107.488 299.576 106.47 299.404 105.459C299.864 106.348 300.345 107.258 301.099 107.918C301.853 108.578 302.952 108.95 303.878 108.578C305.415 107.961 305.616 105.853 305.221 104.247C304.589 101.68 303.088 99.3788 301.228 97.4932C297.853 94.0661 293.214 91.9081 288.416 91.5281C283.619 91.1481 278.692 92.539 274.814 95.3853" fill="#263238"/>
<path d="M317.717 199.145C317.732 199.145 317.746 199.338 317.76 199.711C317.775 200.113 317.789 200.65 317.811 201.324C317.839 202.73 317.911 204.759 318.019 207.261C318.227 212.273 318.694 219.184 319.261 226.82C319.829 234.456 320.252 241.381 320.396 246.4C320.468 248.91 320.497 250.939 320.482 252.344C320.475 253.018 320.468 253.556 320.461 253.957C320.453 254.33 320.439 254.523 320.425 254.523C320.41 254.523 320.396 254.33 320.382 253.957C320.367 253.556 320.353 253.018 320.331 252.344C320.303 250.939 320.231 248.91 320.123 246.407C319.915 241.396 319.448 234.484 318.881 226.841C318.313 219.206 317.89 212.28 317.746 207.261C317.674 204.752 317.645 202.723 317.66 201.317C317.667 200.643 317.674 200.106 317.681 199.704C317.696 199.338 317.71 199.145 317.717 199.145Z" fill="#263238"/>
<path d="M252.86 248.687C252.846 248.687 252.831 248.551 252.81 248.286C252.788 247.985 252.767 247.598 252.738 247.132C252.681 246.078 252.602 244.644 252.501 242.901C252.3 239.324 251.984 234.391 251.611 228.942C251.23 223.515 250.892 218.603 250.641 214.983C250.526 213.233 250.433 211.799 250.361 210.753C250.339 210.287 250.318 209.907 250.304 209.598C250.296 209.333 250.296 209.197 250.311 209.197C250.325 209.197 250.347 209.333 250.383 209.591C250.418 209.892 250.462 210.272 250.512 210.738C250.612 211.785 250.742 213.219 250.907 214.961C251.223 218.532 251.618 223.464 251.991 228.913C252.365 234.362 252.638 239.309 252.774 242.887C252.839 244.679 252.882 246.128 252.889 247.132C252.889 247.598 252.889 247.978 252.896 248.286C252.882 248.544 252.875 248.687 252.86 248.687Z" fill="#263238"/>
<path d="M252.86 248.687C252.867 248.752 252.113 248.788 250.979 249.168C249.858 249.541 248.357 250.336 247.187 251.72C246.016 253.104 245.485 254.717 245.312 255.879C245.126 257.054 245.226 257.807 245.154 257.807C245.133 257.807 245.083 257.628 245.047 257.291C245.004 256.954 244.989 256.452 245.054 255.843C245.169 254.631 245.686 252.932 246.907 251.476C248.135 250.028 249.729 249.225 250.9 248.91C251.488 248.745 251.984 248.68 252.329 248.659C252.673 248.644 252.86 248.666 252.86 248.687Z" fill="#263238"/>
<path d="M270.038 276.592C270.024 276.592 269.995 276.441 269.952 276.147C269.909 275.817 269.852 275.394 269.787 274.871C269.658 273.717 269.471 272.125 269.248 270.182C268.825 266.174 268.25 260.725 267.618 254.695C267.41 252.602 267.202 250.58 267.015 248.694L267.195 248.859C262.591 248.831 258.605 248.809 255.711 248.795C254.325 248.773 253.205 248.752 252.379 248.745C252.02 248.73 251.725 248.723 251.488 248.716C251.287 248.709 251.18 248.694 251.18 248.687C251.18 248.68 251.287 248.666 251.488 248.659C251.725 248.651 252.02 248.644 252.379 248.63C253.205 248.616 254.325 248.601 255.711 248.58C258.605 248.565 262.591 248.537 267.195 248.515H267.36L267.374 248.68C267.568 250.559 267.776 252.58 267.992 254.674C268.581 260.704 269.119 266.16 269.514 270.168C269.687 272.118 269.83 273.709 269.931 274.871C269.967 275.394 270.003 275.817 270.024 276.154C270.046 276.434 270.046 276.592 270.038 276.592Z" fill="#263238"/>
<path d="M270.039 276.592C270.047 276.606 269.86 276.671 269.501 276.792C269.106 276.914 268.581 277.086 267.928 277.294C266.556 277.717 264.567 278.327 262.082 278.986C259.597 279.646 256.61 280.356 253.235 280.822C249.859 281.345 246.039 281.137 242.196 280.298C240.272 279.883 238.426 279.352 236.674 278.743C235.798 278.434 234.95 278.112 234.124 277.768C233.715 277.595 233.306 277.438 232.911 277.223L232.322 276.929L231.776 276.577C230.333 275.631 229.205 274.412 228.315 273.186C227.417 271.953 226.742 270.705 226.182 269.551C225.083 267.221 224.437 265.235 224.013 263.866C223.805 263.177 223.647 262.647 223.546 262.281C223.445 261.915 223.402 261.722 223.417 261.722C223.431 261.715 223.496 261.901 223.625 262.26C223.754 262.647 223.934 263.17 224.156 263.822C224.623 265.178 225.306 267.135 226.426 269.436C226.993 270.576 227.683 271.802 228.573 273.007C229.464 274.204 230.57 275.387 231.977 276.291L232.509 276.628L233.076 276.914C233.449 277.115 233.859 277.273 234.268 277.445C235.087 277.782 235.934 278.097 236.803 278.406C238.541 279.008 240.38 279.531 242.283 279.94C246.096 280.772 249.852 280.979 253.191 280.485C256.545 280.04 259.533 279.359 262.018 278.735C264.502 278.104 266.506 277.538 267.885 277.158C268.553 276.979 269.084 276.835 269.479 276.721C269.838 276.62 270.032 276.577 270.039 276.592Z" fill="#263238"/>
<path d="M257.851 108.807C259.33 105.48 258.375 101.3 255.754 98.7766C253.126 96.2529 249.046 95.4499 245.585 96.5755C244.034 97.0774 242.569 97.9664 241.614 99.2856C239.854 101.716 240.199 105.287 242.016 107.667C243.84 110.047 246.87 111.309 249.865 111.474C252.86 111.639 255.84 110.822 258.612 109.667" fill="#263238"/>
<path d="M281.73 222.518C286.75 226.655 298.57 236.449 298.57 236.449L305.192 235.273L285.141 218.431C284.064 217.528 282.469 217.614 281.5 218.632C280.43 219.758 280.538 221.536 281.73 222.518Z" fill="#455A64"/>
<path d="M281.198 220.374L278.591 218.03C278.081 217.571 278.031 216.789 278.469 216.266C278.936 215.714 279.769 215.664 280.301 216.151L282.807 218.438L281.198 220.374Z" fill="#455A64"/>
<path d="M288.948 221.629C289.019 221.701 288.301 222.583 287.332 223.601C286.362 224.619 285.522 225.386 285.45 225.314C285.378 225.242 286.097 224.361 287.066 223.343C288.028 222.332 288.876 221.557 288.948 221.629Z" fill="#263238"/>
<path d="M289.149 229.874C289.12 229.917 288.345 229.43 287.145 228.569C285.946 227.709 284.33 226.461 282.635 224.984C281.795 224.26 280.941 223.507 280.524 222.561C280.107 221.615 280.179 220.632 280.459 219.93C280.739 219.213 281.192 218.761 281.522 218.503C281.86 218.252 282.082 218.173 282.09 218.195C282.104 218.223 281.91 218.338 281.616 218.618C281.328 218.897 280.933 219.349 280.711 220.023C280.481 220.683 280.452 221.586 280.84 222.425C281.228 223.278 282.032 223.981 282.88 224.712C284.567 226.182 286.154 227.458 287.303 228.368C288.46 229.272 289.178 229.831 289.149 229.874Z" fill="#263238"/>
<path d="M267.424 250.924C272.185 249.325 277.248 250.401 282.01 248.802C283.604 248.264 285.248 247.705 286.512 246.587C288.028 245.246 288.796 243.274 290.003 241.654C293.608 236.807 300.344 235.803 306.355 235.187C307.763 235.043 309.199 234.9 310.563 235.244C311.935 235.588 313.242 236.528 313.623 237.883C314.01 239.238 313.127 240.93 311.727 241.073C313.041 241.13 313.967 242.464 314.212 243.762C314.456 245.059 314.24 246.4 314.413 247.705C314.657 249.54 315.662 251.254 315.605 253.104C315.526 255.635 313.422 257.721 311.08 258.696C308.739 259.671 306.147 259.8 303.64 260.152C291.31 261.887 281.931 268.877 270.038 274.154" fill="#FFC3AB"/>
<path d="M314.327 245.461C314.736 246.307 315.986 246.493 316.754 245.963C317.523 245.432 317.824 244.386 317.688 243.461C317.551 242.536 317.056 241.697 316.496 240.937C315.483 239.553 314.262 238.341 313.041 237.13L309.221 240.32L314.327 245.461Z" fill="#FFC3AB"/>
<path d="M312.92 241.288C312.913 241.403 310.579 241.216 307.757 241.654C304.927 242.07 302.751 242.937 302.715 242.83C302.701 242.787 303.218 242.514 304.108 242.184C304.999 241.855 306.27 241.496 307.699 241.281C309.135 241.066 310.45 241.037 311.398 241.087C312.346 241.138 312.92 241.245 312.92 241.288Z" fill="#EB996E"/>
<path d="M314.599 248.759C314.578 248.874 312.631 248.472 310.218 248.544C307.798 248.594 305.881 249.089 305.852 248.974C305.816 248.888 307.734 248.221 310.211 248.171C312.682 248.107 314.628 248.673 314.599 248.759Z" fill="#EB996E"/>
<path d="M314.198 246.551C314.14 246.544 314.198 245.992 314.09 245.117C313.982 244.249 313.666 243.045 312.934 241.933C312.783 241.697 312.611 241.475 312.446 241.267L312.338 241.13L312.46 241.016C313.257 240.234 313.48 239.187 313.451 238.492C313.437 237.782 313.236 237.366 313.293 237.345C313.322 237.323 313.602 237.711 313.695 238.47C313.789 239.209 313.602 240.378 312.719 241.274L312.733 241.023C312.912 241.238 313.092 241.467 313.257 241.718C314.033 242.894 314.327 244.178 314.363 245.088C314.392 246.013 314.234 246.558 314.198 246.551Z" fill="#EB996E"/>
<path d="M314.328 245.052L320.59 250.924L321.395 254.409L315.599 253.104C314.773 250.157 314.163 247.354 314.328 245.052Z" fill="#455A64"/>
<path d="M305.846 252.53C305.717 252.76 272.043 269.336 272.043 269.336V272.899L306.407 255.054L349.051 253.448V250.924L305.846 252.53Z" fill="#F5F5F5"/>
<path d="M272.043 273.408C272.28 273.251 309.222 269.924 309.222 269.924L349.051 253.441L306.407 255.047L272.043 272.892V273.408Z" fill="#263238"/>
<path d="M307.419 264.582C307.118 262.654 308.97 260.998 310.859 260.481C312.748 259.965 314.766 260.173 316.676 259.736C317.904 259.456 319.053 258.926 320.224 258.474C326.113 256.215 332.576 256.101 338.881 256.015C339.664 257.692 339.018 259.908 337.452 260.904C338.027 262.41 337.855 264.131 337.258 265.629C336.662 267.128 335.679 268.44 334.63 269.666C333.74 270.705 332.763 271.723 331.513 272.268C330.271 272.813 328.878 272.849 327.52 272.878C323.29 272.964 318.752 272.971 315.247 270.598C312.525 268.755 310.644 265.586 307.491 264.647C307.742 264.654 307.986 264.669 308.238 264.676" fill="#FFC3AB"/>
<path d="M335.643 262.238C335.643 262.267 335.356 262.288 334.832 262.317C334.228 262.338 333.489 262.36 332.62 262.389C330.753 262.432 328.174 262.467 325.331 262.482C323.909 262.482 322.558 262.482 321.316 262.482C320.691 262.467 320.081 262.41 319.542 262.209C319.004 262.009 318.551 261.679 318.257 261.277C317.962 260.876 317.847 260.395 317.919 260.008C317.984 259.614 318.171 259.32 318.364 259.126C318.781 258.739 319.14 258.804 319.119 258.811C319.133 258.847 318.803 258.847 318.465 259.227C318.135 259.578 317.883 260.417 318.458 261.12C318.724 261.464 319.14 261.75 319.628 261.915C320.124 262.08 320.698 262.13 321.309 262.138C322.551 262.13 323.901 262.116 325.316 262.109C328.16 262.095 330.738 262.102 332.605 262.13C333.474 262.152 334.214 262.166 334.817 262.181C335.356 262.188 335.643 262.217 335.643 262.238Z" fill="#EB996E"/>
<path d="M333.474 265.78C333.474 265.809 333.115 265.873 332.454 265.981C331.794 266.081 330.838 266.217 329.653 266.332C328.469 266.439 327.039 266.525 325.452 266.432C323.865 266.346 322.149 265.981 320.382 265.579C316.856 264.719 313.581 264.453 311.211 264.453C310.026 264.446 309.064 264.496 308.403 264.532C307.743 264.568 307.369 264.59 307.369 264.561C307.369 264.539 307.728 264.468 308.389 264.382C309.05 264.303 310.012 264.21 311.211 264.188C313.596 264.116 316.928 264.346 320.468 265.213C322.235 265.615 323.923 265.988 325.481 266.088C327.039 266.203 328.454 266.145 329.632 266.067C330.817 265.988 331.772 265.887 332.44 265.837C333.108 265.78 333.474 265.751 333.474 265.78Z" fill="#EB996E"/>
<path d="M329.962 269.565C329.962 269.594 329.682 269.644 329.172 269.716C328.662 269.78 327.915 269.874 326.996 269.953C325.158 270.103 322.565 270.261 319.757 269.716C316.921 269.178 314.716 267.737 313.028 267.063C311.34 266.339 310.184 266.26 310.191 266.196C310.191 266.181 310.486 266.16 310.996 266.239C311.513 266.31 312.253 266.49 313.122 266.819C314.874 267.45 317.071 268.834 319.829 269.35C322.572 269.881 325.143 269.766 326.975 269.687C327.836 269.637 328.562 269.601 329.158 269.565C329.668 269.544 329.955 269.537 329.962 269.565Z" fill="#EB996E"/>
<g opacity="0.2">
<path opacity="0.2" d="M320.41 250.322C320.769 247.712 321.329 245.102 322.507 242.744C323.685 240.385 325.531 238.291 327.929 237.202C330.328 236.112 333.315 236.155 335.477 237.66C336.131 238.112 336.712 238.707 336.985 239.453C337.258 240.198 337.165 241.102 336.626 241.683C335.829 242.521 334.493 242.392 333.337 242.342C328.066 242.113 322.794 245.282 320.532 250.042" fill="black"/>
</g>
<g opacity="0.2">
<path opacity="0.2" d="M258.045 248.135C260.896 242.995 259.883 236.549 257.7 231.1C255.51 225.644 252.242 220.632 250.569 214.997C250.253 226.39 251.926 237.84 255.488 248.666" fill="black"/>
</g>
<path d="M263.101 169.505C263.101 169.505 266.584 177.7 279.152 177.177C291.719 176.654 292.122 166.924 292.122 166.924L300.531 175.843L292.545 192.276L281.816 200.27L267.202 194.277L255.158 184.949L263.101 169.505Z" fill="#F26628"/>
<g opacity="0.5">
<path opacity="0.5" d="M233.671 204.536C233.8 204.694 232.156 206.229 230.001 207.956C227.847 209.684 225.994 210.953 225.865 210.796C225.735 210.638 227.38 209.104 229.534 207.376C231.689 205.648 233.542 204.379 233.671 204.536Z" fill="#FAFAFA"/>
</g>
<path d="M239.56 195.696C239.495 195.883 237.513 195.323 235.366 194.004C233.211 192.692 231.818 191.179 231.955 191.036C232.098 190.878 233.678 192.097 235.761 193.366C237.836 194.642 239.639 195.496 239.56 195.696Z" fill="#FAFAFA"/>
<path d="M250.354 196.657C250.527 196.786 248.94 199.095 247.13 202.013C245.313 204.931 243.956 207.376 243.762 207.282C243.582 207.196 244.652 204.579 246.491 201.618C248.329 198.657 250.196 196.535 250.354 196.657Z" fill="#FAFAFA"/>
<path d="M241.132 221.572C240.988 221.701 239.329 220.016 237.879 217.506C236.414 215.004 235.775 212.731 235.961 212.667C236.162 212.588 237.103 214.696 238.532 217.134C239.933 219.571 241.297 221.435 241.132 221.572Z" fill="#FAFAFA"/>
<path d="M231.496 233.624C231.288 233.652 230.871 231.824 230.562 229.551C230.253 227.272 230.167 225.4 230.368 225.379C230.569 225.35 230.993 227.178 231.302 229.451C231.618 231.731 231.704 233.602 231.496 233.624Z" fill="#FAFAFA"/>
<g opacity="0.5">
<path opacity="0.5" d="M240.573 236.908C240.394 236.807 241.32 234.886 242.634 232.62C243.948 230.354 245.162 228.598 245.342 228.705C245.521 228.806 244.595 230.727 243.28 233C241.959 235.259 240.753 237.015 240.573 236.908Z" fill="#FAFAFA"/>
</g>
<path d="M230.029 249.397C229.878 249.533 228.277 247.963 226.726 245.698C225.167 243.432 224.277 241.374 224.456 241.288C224.643 241.188 225.814 243.052 227.343 245.275C228.866 247.497 230.187 249.254 230.029 249.397Z" fill="#FAFAFA"/>
<path d="M244.35 247.332C244.493 247.476 242.849 249.376 240.666 251.57C238.483 253.763 236.601 255.427 236.45 255.283C236.307 255.14 237.951 253.24 240.134 251.046C242.317 248.852 244.206 247.189 244.35 247.332Z" fill="#FAFAFA"/>
<g opacity="0.5">
<path opacity="0.5" d="M236.213 273.1C236.077 273.243 234.49 271.917 233.039 269.845C231.581 267.773 230.877 265.83 231.057 265.751C231.251 265.658 232.235 267.407 233.649 269.415C235.05 271.422 236.364 272.949 236.213 273.1Z" fill="#FAFAFA"/>
</g>
<path d="M254.698 267.881C254.799 268.06 253.032 269.257 250.756 270.555C248.472 271.852 246.547 272.763 246.44 272.584C246.339 272.405 248.106 271.207 250.382 269.91C252.666 268.612 254.591 267.701 254.698 267.881Z" fill="#FAFAFA"/>
<path d="M261.902 261.944C261.773 262.095 260.093 260.818 258.577 258.732C257.048 256.653 256.344 254.667 256.524 254.595C256.717 254.502 257.701 256.287 259.181 258.295C260.646 260.309 262.053 261.786 261.902 261.944Z" fill="#FAFAFA"/>
<path d="M274.607 220.654C274.729 220.819 272.826 222.446 270.362 224.296C267.892 226.139 265.788 227.501 265.666 227.336C265.544 227.171 267.44 225.544 269.91 223.694C272.38 221.851 274.485 220.489 274.607 220.654Z" fill="#FAFAFA"/>
<path d="M261.22 219.794C261.012 219.772 261.048 217.808 261.292 215.406C261.536 213.004 261.902 211.075 262.111 211.097C262.319 211.118 262.283 213.083 262.039 215.485C261.787 217.886 261.421 219.815 261.22 219.794Z" fill="#FAFAFA"/>
<g opacity="0.5">
<path opacity="0.5" d="M273.564 202.995C273.449 203.16 271.223 201.79 268.781 199.704C266.332 197.625 264.63 195.646 264.774 195.51C264.925 195.359 266.85 197.087 269.27 199.138C271.683 201.203 273.686 202.823 273.564 202.995Z" fill="#FAFAFA"/>
</g>
<path d="M264.294 182.052C264.452 182.189 262.879 184.296 260.789 186.756C258.692 189.222 256.868 191.115 256.71 190.979C256.552 190.842 258.125 188.742 260.222 186.275C262.312 183.809 264.136 181.916 264.294 182.052Z" fill="#FAFAFA"/>
<g opacity="0.5">
<path opacity="0.5" d="M253.673 179.808C253.558 179.995 251.956 179.17 249.866 178.468C247.784 177.758 246.01 177.435 246.031 177.22C246.039 177.026 247.927 177.019 250.103 177.758C252.287 178.489 253.78 179.643 253.673 179.808Z" fill="#FAFAFA"/>
</g>
<path d="M280.667 189.466C280.466 189.408 280.81 187.666 281.428 185.565C282.046 183.472 282.706 181.823 282.9 181.88C283.101 181.938 282.757 183.68 282.139 185.781C281.529 187.874 280.868 189.523 280.667 189.466Z" fill="#FAFAFA"/>
<path d="M287.125 205.963C286.916 205.949 286.852 204.243 286.967 202.149C287.089 200.055 287.354 198.363 287.555 198.378C287.764 198.392 287.828 200.098 287.713 202.192C287.591 204.293 287.326 205.978 287.125 205.963Z" fill="#FAFAFA"/>
<path d="M297.731 218.345C297.602 218.503 296.029 217.456 294.219 216.008C292.41 214.552 291.045 213.248 291.174 213.09C291.304 212.932 292.877 213.979 294.686 215.427C296.496 216.883 297.86 218.188 297.731 218.345Z" fill="#FAFAFA"/>
<path d="M309.035 201.059C309.171 201.217 307.771 202.672 305.903 204.314C304.036 205.956 302.413 207.168 302.277 207.01C302.14 206.852 303.541 205.397 305.408 203.755C307.275 202.113 308.898 200.901 309.035 201.059Z" fill="#FAFAFA"/>
<g opacity="0.5">
<path opacity="0.5" d="M303.842 192.893C303.734 193.058 301.953 192.09 300.043 190.505C298.125 188.921 296.84 187.358 296.984 187.222C297.134 187.071 298.635 188.376 300.517 189.932C302.391 191.488 303.957 192.721 303.842 192.893Z" fill="#FAFAFA"/>
</g>
<path d="M316.899 178.346C317.064 178.46 316.195 179.944 314.658 181.378C313.128 182.82 311.591 183.594 311.484 183.429C311.369 183.25 312.669 182.224 314.141 180.834C315.62 179.45 316.726 178.217 316.899 178.346Z" fill="#FAFAFA"/>
<g opacity="0.5">
<path opacity="0.5" d="M307.921 176.976C307.892 177.177 305.601 177.012 302.865 176.317C300.121 175.628 298.032 174.682 298.103 174.496C298.175 174.295 300.351 174.911 303.051 175.592C305.737 176.281 307.949 176.768 307.921 176.976Z" fill="#FAFAFA"/>
</g>
<g opacity="0.5">
<path opacity="0.5" d="M324.597 200.149C324.403 200.106 324.848 197.302 325.875 193.968C326.895 190.627 328.087 188.053 328.274 188.132C328.475 188.211 327.599 190.878 326.586 194.191C325.574 197.496 324.805 200.199 324.597 200.149Z" fill="#FAFAFA"/>
</g>
<path d="M328.296 215.965C328.145 216.108 326.371 214.474 324.339 212.323C322.299 210.165 320.77 208.308 320.92 208.164C321.071 208.021 322.845 209.656 324.877 211.807C326.917 213.957 328.447 215.822 328.296 215.965Z" fill="#FAFAFA"/>
<g opacity="0.5">
<path opacity="0.5" d="M334.019 224.927C333.81 224.92 333.688 222.575 333.731 219.679C333.782 216.782 333.99 214.438 334.198 214.445C334.406 214.445 334.528 216.797 334.485 219.693C334.428 222.583 334.22 224.927 334.019 224.927Z" fill="#FAFAFA"/>
</g>
<path d="M328.21 239.675C328.052 239.79 326.508 237.911 325.086 235.287C323.657 232.663 322.924 230.347 323.111 230.276C323.312 230.197 324.339 232.348 325.746 234.929C327.14 237.517 328.382 239.553 328.21 239.675Z" fill="#FAFAFA"/>
<path d="M343.039 242.371C343.183 242.521 342.185 243.726 340.813 245.059C339.441 246.4 338.206 247.361 338.063 247.218C337.919 247.067 338.917 245.862 340.289 244.529C341.668 243.188 342.896 242.22 343.039 242.371Z" fill="#FAFAFA"/>
<g opacity="0.5">
<path opacity="0.5" d="M306.931 225.558C306.744 225.501 307.405 223.149 309.107 220.704C310.795 218.245 312.762 216.797 312.884 216.947C313.035 217.112 311.348 218.761 309.725 221.127C308.08 223.479 307.132 225.637 306.931 225.558Z" fill="#FAFAFA"/>
</g>
<path d="M265.047 245.232C264.846 245.181 265.198 243.052 265.837 240.471C266.476 237.89 267.151 235.832 267.352 235.882C267.553 235.932 267.201 238.062 266.562 240.65C265.93 243.224 265.248 245.275 265.047 245.232Z" fill="#FAFAFA"/>
<path d="M282.694 246.981C282.579 247.153 280.791 246.192 278.701 244.83C276.611 243.468 275.002 242.22 275.117 242.048C275.232 241.876 277.02 242.837 279.11 244.199C281.2 245.561 282.809 246.809 282.694 246.981Z" fill="#FAFAFA"/>
<path d="M281.809 234.276C281.636 234.391 280.796 233.437 279.934 232.147C279.072 230.856 278.505 229.716 278.677 229.602C278.85 229.487 279.69 230.44 280.552 231.731C281.414 233.022 281.974 234.162 281.809 234.276Z" fill="#FAFAFA"/>
<path d="M289.587 237.173C289.709 237.345 288.947 238.076 287.899 238.815C286.85 239.553 285.903 240.012 285.78 239.84C285.658 239.668 286.42 238.937 287.468 238.198C288.517 237.46 289.465 237.001 289.587 237.173Z" fill="#FAFAFA"/>
<g opacity="0.5">
<path opacity="0.5" d="M269.276 288.716C269.075 288.651 269.406 287.024 269.7 285.016C270.002 283.009 270.16 281.352 270.375 281.352C270.576 281.345 270.756 283.052 270.44 285.124C270.131 287.203 269.463 288.78 269.276 288.716Z" fill="#FAFAFA"/>
</g>
<g opacity="0.5">
<path opacity="0.5" d="M287.174 282.901C286.995 283.001 285.63 280.951 284.129 278.312C282.628 275.674 281.551 273.459 281.73 273.358C281.91 273.258 283.275 275.308 284.775 277.947C286.276 280.578 287.354 282.801 287.174 282.901Z" fill="#FAFAFA"/>
</g>
<g opacity="0.5">
<path opacity="0.5" d="M306.154 274.907C306.32 275.029 304.517 277.653 302.133 280.764C299.748 283.876 297.68 286.299 297.522 286.17C297.357 286.049 299.16 283.424 301.544 280.313C303.928 277.201 305.989 274.778 306.154 274.907Z" fill="#FAFAFA"/>
</g>
<g opacity="0.5">
<path opacity="0.5" d="M311.506 290.128C311.534 290.329 309.157 290.845 306.198 291.275C303.232 291.705 300.812 291.885 300.783 291.677C300.755 291.476 303.132 290.96 306.091 290.53C309.049 290.107 311.477 289.92 311.506 290.128Z" fill="#FAFAFA"/>
</g>
<path d="M312.332 282.456C312.123 282.406 312.31 280.879 312.389 279.001C312.475 277.122 312.425 275.581 312.633 275.552C312.827 275.523 313.222 277.072 313.136 279.029C313.05 280.994 312.525 282.507 312.332 282.456Z" fill="#FAFAFA"/>
<path d="M286.693 291.39C286.621 291.569 284.682 290.931 282.657 289.468C280.625 288.02 279.397 286.385 279.548 286.264C279.706 286.12 281.135 287.468 283.095 288.866C285.042 290.271 286.787 291.196 286.693 291.39Z" fill="#FAFAFA"/>
<path d="M256.242 290.257C256.041 290.207 256.285 288.572 256.781 286.601C257.277 284.629 257.844 283.073 258.045 283.123C258.246 283.173 258.002 284.808 257.506 286.78C257.004 288.751 256.436 290.307 256.242 290.257Z" fill="#FAFAFA"/>
<path d="M252.931 108.915C252.974 108.857 253.793 109.56 255.294 110.377C256.041 110.793 256.974 111.209 258.045 111.574C259.122 111.919 260.328 112.213 261.628 112.37C262.928 112.514 264.17 112.499 265.298 112.406C266.425 112.291 267.431 112.098 268.249 111.861C269.901 111.402 270.856 110.901 270.885 110.972C270.899 110.994 270.662 111.13 270.232 111.352C270.016 111.467 269.75 111.596 269.427 111.718C269.104 111.84 268.745 112.005 268.321 112.119C267.495 112.392 266.476 112.614 265.327 112.75C264.178 112.865 262.906 112.887 261.578 112.743C260.256 112.585 259.014 112.27 257.93 111.897C256.845 111.503 255.904 111.058 255.158 110.599C254.777 110.391 254.461 110.155 254.174 109.961C253.886 109.768 253.657 109.581 253.47 109.424C253.111 109.115 252.91 108.929 252.931 108.915Z" fill="#455A64"/>
<path d="M271.482 117.16C271.489 117.181 271.209 117.274 270.699 117.403C270.189 117.532 269.442 117.697 268.516 117.862C266.67 118.178 264.02 118.486 261.162 117.905C258.296 117.31 256.013 115.754 254.806 114.285C254.196 113.553 253.808 112.879 253.6 112.392C253.391 111.904 253.319 111.617 253.334 111.617C253.413 111.574 253.75 112.729 255 114.113C256.221 115.496 258.454 116.966 261.233 117.54C264.02 118.106 266.627 117.848 268.472 117.604C269.399 117.475 270.146 117.346 270.663 117.267C271.187 117.174 271.474 117.131 271.482 117.16Z" fill="#455A64"/>
<path d="M245.908 161.038C245.901 161.045 245.873 161.009 245.815 160.938C245.758 160.866 245.664 160.766 245.571 160.615C245.377 160.321 245.133 159.848 244.996 159.181C244.716 157.876 245.011 155.74 246.576 153.854C247.352 152.922 248.4 152.09 249.578 151.323C250.756 150.549 252.077 149.832 253.377 148.964C254.663 148.09 255.955 147.021 256.839 145.595C257.277 144.885 257.586 144.075 257.701 143.229C257.823 142.375 257.751 141.494 257.564 140.619C257.169 138.869 256.386 137.271 255.747 135.672C255.086 134.087 254.569 132.453 254.533 130.847C254.404 127.62 255.604 124.838 256.997 122.903C258.404 120.931 260.049 119.784 261.234 119.174C261.528 119.031 261.801 118.902 262.038 118.787C262.275 118.708 262.476 118.637 262.656 118.572C262.993 118.457 263.166 118.407 263.173 118.422C263.18 118.436 263.008 118.508 262.685 118.644C262.512 118.715 262.311 118.794 262.088 118.888C261.859 119.009 261.6 119.146 261.306 119.296C260.157 119.934 258.57 121.096 257.219 123.046C255.884 124.96 254.735 127.699 254.885 130.825C254.936 132.381 255.431 133.958 256.092 135.528C256.731 137.106 257.528 138.719 257.938 140.533C258.139 141.436 258.21 142.368 258.081 143.272C257.959 144.175 257.629 145.035 257.169 145.781C256.236 147.287 254.9 148.362 253.586 149.251C252.257 150.133 250.936 150.828 249.765 151.588C248.587 152.334 247.56 153.137 246.792 154.033C245.255 155.826 244.925 157.891 245.154 159.16C245.377 160.464 245.966 161.009 245.908 161.038Z" fill="#455A64"/>
<path d="M265.04 161.296C265.032 161.31 264.889 161.224 264.623 161.06C264.379 160.873 264.005 160.572 263.697 160.056C263.381 159.547 263.129 158.837 263.05 157.991C262.971 157.145 263.065 156.17 263.366 155.137C263.948 153.03 265.715 151.115 267.036 148.713C267.69 147.509 268.164 146.118 268.113 144.627C268.085 143.143 267.639 141.63 266.957 140.203C265.593 137.321 263.496 135.026 262.045 132.632C261.312 131.442 260.709 130.23 260.35 129.025C259.969 127.821 259.898 126.631 259.998 125.57C260.199 123.426 261.19 121.863 262.088 121.089C262.548 120.709 262.95 120.472 263.237 120.35C263.524 120.235 263.682 120.178 263.682 120.192C263.711 120.243 263.043 120.415 262.181 121.196C261.341 121.978 260.422 123.512 260.257 125.598C260.178 126.631 260.257 127.778 260.644 128.939C261.011 130.108 261.607 131.284 262.332 132.453C263.065 133.628 263.934 134.797 264.824 136.03C265.715 137.256 266.598 138.583 267.287 140.052C267.977 141.515 268.444 143.078 268.472 144.634C268.515 146.19 268.013 147.667 267.33 148.885C265.959 151.33 264.199 153.209 263.61 155.223C263.309 156.213 263.194 157.159 263.251 157.984C263.309 158.801 263.531 159.489 263.812 159.991C264.4 161.002 265.09 161.246 265.04 161.296Z" fill="#455A64"/>
<path d="M293.379 107.473C293.372 107.488 293.279 107.445 293.106 107.359C292.934 107.273 292.69 107.122 292.396 106.907C291.807 106.47 291.038 105.717 290.327 104.606C289.602 103.509 288.991 102.067 288.338 100.49C288.008 99.7015 287.656 98.877 287.218 98.0668C286.765 97.2638 286.262 96.4465 285.63 95.7008C283.146 92.6394 279.799 90.9975 277.329 90.3594C274.829 89.707 273.192 89.8575 273.199 89.7715C273.199 89.75 273.601 89.7213 274.327 89.707C275.052 89.7356 276.115 89.793 277.393 90.1085C278.664 90.4168 280.151 90.9402 281.645 91.8292C283.131 92.7111 284.661 93.9012 285.918 95.4714C286.564 96.2385 287.081 97.0774 287.534 97.9019C287.972 98.7336 288.324 99.5724 288.647 100.368C289.286 101.96 289.86 103.387 290.543 104.476C291.203 105.581 291.922 106.341 292.475 106.799C293.042 107.258 293.401 107.445 293.379 107.473Z" fill="#455A64"/>
<path d="M303.397 107.416C303.397 107.43 303.26 107.416 303.009 107.373C302.758 107.337 302.391 107.251 301.932 107.093C301.013 106.785 299.749 106.097 298.506 104.871C297.257 103.666 296.05 101.967 294.951 99.9668C293.824 97.9951 292.732 95.7295 291.045 93.7578C289.371 91.7647 287.102 90.5745 284.947 89.9651C282.779 89.3485 280.725 89.2266 279.016 89.1764C277.299 89.1406 275.913 89.2123 274.951 89.2481C274.506 89.2624 274.139 89.2768 273.845 89.2911C273.593 89.2983 273.457 89.2983 273.457 89.2839C273.457 89.2696 273.586 89.2481 273.838 89.2194C274.089 89.1907 274.462 89.1477 274.944 89.1047C275.899 89.0258 277.292 88.9111 279.016 88.9111C280.739 88.9255 282.815 89.0258 285.034 89.6353C287.238 90.2375 289.594 91.4635 291.318 93.514C293.048 95.5431 294.133 97.8302 295.239 99.8019C296.309 101.795 297.472 103.48 298.679 104.684C299.871 105.903 301.084 106.606 301.968 106.957C302.873 107.309 303.404 107.373 303.397 107.416Z" fill="#455A64"/>
<path d="M320.353 153.954C320.31 153.94 320.54 153.445 320.777 152.506C321.014 151.574 321.287 150.183 321.208 148.455C321.143 146.742 320.734 144.677 319.678 142.662C319.154 141.651 318.457 140.683 317.624 139.758C316.791 138.834 315.843 137.959 314.881 137.041C313.918 136.123 312.985 135.199 312.216 134.188C311.441 133.184 310.809 132.137 310.299 131.09C309.789 130.051 309.408 129.004 309.143 128.007C308.863 127.011 308.69 126.064 308.604 125.197C308.41 123.455 308.511 122.028 308.647 121.067C308.705 120.58 308.791 120.214 308.848 119.963C308.906 119.712 308.942 119.583 308.949 119.583C308.985 119.59 308.877 120.121 308.791 121.081C308.705 122.042 308.647 123.455 308.87 125.168C308.977 126.021 309.164 126.953 309.444 127.928C309.717 128.904 310.105 129.922 310.615 130.94C311.118 131.958 311.75 132.983 312.511 133.958C313.265 134.94 314.184 135.851 315.139 136.762C316.102 137.679 317.057 138.561 317.897 139.5C318.744 140.44 319.455 141.451 319.987 142.49C321.057 144.569 321.445 146.684 321.473 148.434C321.516 150.19 321.2 151.596 320.92 152.528C320.777 152.994 320.64 153.352 320.533 153.582C320.425 153.833 320.367 153.954 320.353 153.954Z" fill="#455A64"/>
<path d="M241.679 106.85C241.657 106.85 241.671 106.592 241.772 106.147C241.865 105.703 242.081 105.064 242.476 104.34C243.237 102.913 244.953 101.114 247.453 100.504C249.959 99.9166 252.307 100.741 253.629 101.673C254.311 102.139 254.785 102.605 255.072 102.964C255.359 103.315 255.489 103.537 255.474 103.552C255.417 103.609 254.842 102.749 253.485 101.895C252.164 101.049 249.916 100.311 247.539 100.87C245.169 101.451 243.495 103.121 242.698 104.476C241.88 105.846 241.758 106.871 241.679 106.85Z" fill="#455A64"/>
<path d="M248.638 109.868C248.595 109.861 248.638 109.237 248.839 108.241C249.048 107.265 249.414 105.817 250.534 104.649C251.705 103.473 253.364 103.329 254.34 103.688C254.836 103.867 255.188 104.147 255.36 104.383C255.54 104.613 255.597 104.763 255.576 104.778C255.518 104.835 255.202 104.211 254.261 103.939C253.356 103.673 251.848 103.86 250.8 104.914C249.766 105.989 249.364 107.359 249.091 108.312C248.839 109.266 248.696 109.882 248.638 109.868Z" fill="#455A64"/>
<path d="M257.765 99.3645C257.865 99.429 256.666 101.006 255.876 103.272C255.072 105.53 255.021 107.502 254.899 107.495C254.813 107.509 254.691 105.473 255.524 103.143C256.336 100.813 257.7 99.3 257.765 99.3645Z" fill="#F26628"/>
<path d="M372.656 116.844C372.656 118.077 373.654 119.074 374.89 119.074C376.125 119.074 377.123 118.077 377.123 116.844C377.123 115.611 376.125 114.614 374.89 114.614C373.654 114.614 372.656 115.611 372.656 116.844Z" fill="#455A64"/>
<path d="M365.94 119.074C367.174 119.074 368.174 118.076 368.174 116.844C368.174 115.613 367.174 114.614 365.94 114.614C364.707 114.614 363.707 115.613 363.707 116.844C363.707 118.076 364.707 119.074 365.94 119.074Z" fill="#455A64"/>
<path d="M354.788 115.726C354.171 116.794 354.537 118.156 355.607 118.773C356.677 119.389 358.042 119.024 358.659 117.955C359.277 116.887 358.911 115.525 357.841 114.908C356.77 114.299 355.406 114.665 354.788 115.726Z" fill="#455A64"/>
<path d="M365.805 90.7824C365.805 90.7752 365.654 90.7681 365.353 90.7752C365.023 90.7824 364.584 90.7967 364.024 90.8111C363.73 90.8254 363.407 90.8254 363.048 90.8541C362.689 90.9043 362.301 90.9616 361.877 91.019C361.453 91.0835 360.994 91.1481 360.513 91.2126C360.031 91.3345 359.521 91.4564 358.983 91.5926C356.836 92.1446 354.236 93.0839 351.579 94.8118C348.922 96.511 346.164 98.9487 343.923 102.254C341.726 105.566 340.031 109.732 339.578 114.414C339.535 115.582 339.392 116.78 339.506 117.984C339.55 118.586 339.535 119.203 339.629 119.812C339.722 120.422 339.815 121.038 339.909 121.655C340.411 124.1 341.137 126.602 342.393 128.925C343.622 131.262 345.216 133.485 347.155 135.464C349.13 137.4 351.442 139.085 354.013 140.382C356.577 141.687 359.414 142.59 362.373 142.942C363.105 143.085 363.852 143.085 364.599 143.128C365.346 143.178 366.1 143.207 366.854 143.171C368.362 143.107 369.87 142.92 371.364 142.605C374.61 141.917 377.662 140.597 380.348 138.834L380.075 138.862C383.192 140.11 386.244 141.336 389.224 142.526L389.763 142.741L389.605 142.182C388.679 138.826 387.781 135.571 386.912 132.417L386.869 132.66C389.44 129.255 391.077 125.362 391.752 121.497C392.09 119.569 392.233 117.64 392.111 115.776C392.068 114.844 392.025 113.926 391.853 113.03C391.781 112.578 391.716 112.134 391.644 111.696C391.565 111.259 391.429 110.829 391.321 110.406C389.555 103.53 385.31 98.454 381.109 95.5431C379.005 94.0661 376.93 93.005 375.034 92.3454C374.56 92.1733 374.107 92.0156 373.662 91.8579C373.209 91.7431 372.779 91.6356 372.362 91.5281C371.946 91.4277 371.551 91.3273 371.17 91.2341C370.789 91.1624 370.423 91.1194 370.078 91.0692C369.389 90.9832 368.778 90.8613 368.247 90.8326C367.723 90.8183 367.278 90.7967 366.904 90.7896C366.567 90.7824 366.294 90.7752 366.085 90.7681C365.899 90.7681 365.805 90.7752 365.805 90.7824C365.805 90.7896 365.899 90.8039 366.085 90.8183C366.294 90.8326 366.567 90.8541 366.904 90.8828C367.278 90.9043 367.716 90.9401 368.24 90.976C368.771 91.019 369.367 91.1481 370.057 91.2484C372.75 91.7431 376.786 92.8114 380.915 95.8227C385.037 98.7336 389.167 103.76 390.869 110.521C390.969 110.944 391.099 111.359 391.178 111.79C391.242 112.227 391.307 112.664 391.372 113.102C391.537 113.976 391.58 114.88 391.616 115.797C391.738 117.626 391.587 119.511 391.242 121.404C390.567 125.19 388.951 128.99 386.424 132.324L386.345 132.431L386.38 132.56C387.242 135.715 388.133 138.977 389.052 142.332L389.44 141.988C386.459 140.791 383.407 139.565 380.29 138.31L380.147 138.253L380.018 138.339C377.389 140.06 374.409 141.35 371.235 142.024C369.777 142.34 368.297 142.519 366.825 142.583C366.085 142.619 365.353 142.59 364.62 142.54C363.888 142.497 363.155 142.497 362.444 142.354C359.557 142.01 356.778 141.135 354.272 139.859C351.758 138.597 349.496 136.955 347.557 135.062C345.654 133.127 344.096 130.954 342.882 128.674C341.639 126.394 340.921 123.949 340.419 121.555C340.325 120.952 340.232 120.35 340.138 119.748C340.052 119.153 340.059 118.551 340.016 117.955C339.901 116.765 340.038 115.597 340.074 114.45C340.49 109.854 342.135 105.753 344.275 102.476C346.458 99.2068 349.158 96.7834 351.765 95.077C354.372 93.342 356.929 92.3812 359.047 91.8005C359.579 91.6571 360.082 91.5281 360.556 91.399C361.037 91.3201 361.489 91.2484 361.906 91.1767C362.322 91.105 362.71 91.0477 363.069 90.9832C363.428 90.9473 363.751 90.933 364.039 90.9115C364.599 90.8684 365.037 90.8398 365.36 90.8183C365.654 90.8111 365.805 90.7896 365.805 90.7824Z" fill="#455A64"/>
<path d="M289.9 30.4577C290.473 33.4354 288.527 36.3187 285.542 36.8997C282.565 37.4735 279.681 35.5271 279.1 32.5421C278.527 29.5644 280.473 26.681 283.458 26.1C286.443 25.5262 289.326 27.4799 289.9 30.4577Z" stroke="#FFC050" stroke-width="1.0365" stroke-miterlimit="10"/>
<path d="M469.008 47.1377C469.798 51.2377 467.118 55.2077 463.008 56.0077C458.908 56.7977 454.938 54.1177 454.138 50.0077C453.348 45.9077 456.028 41.9377 460.138 41.1377C464.248 40.3477 468.218 43.0377 469.008 47.1377Z" stroke="#FF8364" stroke-width="1.0365" stroke-miterlimit="10"/>
</g>
<path d="M36.7317 184.162C37.1417 186.282 35.7517 188.332 33.6417 188.732C31.5217 189.142 29.4717 187.752 29.0717 185.642C28.6617 183.522 30.0517 181.472 32.1617 181.072C34.2717 180.662 36.3217 182.042 36.7317 184.162Z" fill="#FF8364"/>
<path d="M541.547 42.5261L527.967 75.5783C523.457 76.4888 518.89 77.1413 513.654 75.0191L489 64.0423L506.853 26.4732L541.547 42.5261Z" fill="#FF8364"/>
<path d="M544.01 41.5869L530.437 74.6319L516.117 74.0727L491.463 63.0959L507.068 26L544.01 41.5869Z" fill="#FFE8D8"/>
<path d="M527.371 70.3158L530.43 74.6319C530.43 74.6319 527.313 76.0443 524.268 75.9009C521.223 75.7504 518.58 75.1768 516.117 74.0727C516.117 74.0727 522.545 74.9259 527.371 70.3158Z" fill="#FFCBC2"/>
<path d="M543.156 50.0614L531.242 35.256L534.345 32.7395L546.654 47.4947L543.156 50.0614Z" fill="#F7958B"/>
<path d="M499.176 32.0655L517.295 26.2724L518.537 30.0652L500.325 36.2455L499.176 32.0655Z" fill="#F7958B"/>
<path d="M506.229 39.4431C506.272 39.3499 512.592 41.9238 520.34 45.2004C528.097 48.4769 534.352 51.2086 534.309 51.3018C534.265 51.395 527.953 48.8211 520.197 45.5445C512.441 42.2752 506.186 39.5435 506.229 39.4431Z" fill="#FFCBC2"/>
<path d="M504.211 44.5551C504.254 44.4619 510.574 47.0358 518.323 50.3124C526.079 53.5889 532.334 56.3205 532.291 56.4137C532.248 56.507 525.935 53.933 518.179 50.6565C510.423 47.38 504.168 44.6483 504.211 44.5551Z" fill="#FFCBC2"/>
<path d="M502.149 48.9716C502.192 48.8784 508.511 51.4523 516.26 54.7289C524.016 58.0054 530.271 60.7371 530.228 60.8303C530.185 60.9235 523.873 58.3496 516.117 55.073C508.361 51.7965 502.113 49.0648 502.149 48.9716Z" fill="#FFCBC2"/>
<path d="M500.354 53.2949C500.397 53.2017 506.717 55.7757 514.465 59.0522C522.222 62.3287 528.477 65.0604 528.434 65.1536C528.39 65.2468 522.078 62.6729 514.322 59.3963C506.566 56.127 500.311 53.3953 500.354 53.2949Z" fill="#FFCBC2"/>
<defs>
<clipPath id="clip0">
<rect width="301" height="296" fill="white" transform="translate(207)"/>
</clipPath>
</defs>
</svg>
