<svg width="395" height="461" viewBox="0 0 395 461" fill="none" xmlns="http://www.w3.org/2000/svg">
<g clip-path="url(#clip0)">
<path d="M82.9962 253.28C73.9875 213.481 51.3432 127.677 78.597 1.25256C116.735 69.8571 116.086 171.042 109.041 262.632" fill="white"/>
<path d="M82.9962 253.28C73.9875 213.481 51.3432 127.677 78.597 1.25256C116.735 69.8571 116.086 171.042 109.041 262.632" stroke="#FFC3AB" stroke-miterlimit="10" stroke-linejoin="round"/>
<path d="M78.597 1.25256C78.597 1.25256 82.225 160.747 94.9142 261.023" stroke="#FFC3AB" stroke-miterlimit="10" stroke-linejoin="round"/>
<path d="M78.597 1.25256C78.597 1.25256 65.6099 115.722 87.6232 259.241" stroke="#FFC3AB" stroke-miterlimit="10" stroke-linejoin="round"/>
<path d="M99.6815 259.555C99.6815 259.555 94.2132 59.6145 78.597 1.25256" stroke="#FFC3AB" stroke-miterlimit="10" stroke-linejoin="round"/>
<path d="M104.081 259.66C104.081 259.66 111.74 71.0457 78.597 1.25256" stroke="#FFC3AB" stroke-miterlimit="10" stroke-linejoin="round"/>
<path d="M63.8922 268.592C48.6266 243.615 12.5569 190.234 19.1469 102.543C67.713 142.22 83.3116 209.251 91.0408 270.899" fill="white"/>
<path d="M63.8922 268.592C48.6266 243.614 12.5569 190.234 19.1469 102.543C67.713 142.22 83.3116 209.251 91.0408 270.899" stroke="#FFC3AB" stroke-miterlimit="10" stroke-linejoin="round"/>
<path d="M19.1294 102.543C19.1294 102.543 35.7446 207.293 70.0089 268.4" stroke="#FFC3AB" stroke-miterlimit="10" stroke-linejoin="round"/>
<path d="M76.5639 270.899C76.5639 270.899 33.3609 126.244 19.1294 102.543" stroke="#FFC3AB" stroke-miterlimit="10" stroke-linejoin="round"/>
<path d="M84.6436 270.899C84.6436 270.899 58.8445 140.647 19.1294 102.543" stroke="#FFC3AB" stroke-miterlimit="10" stroke-linejoin="round"/>
<path d="M136.855 252.791C149.176 217.781 179.164 142.342 158.728 29.8655C113.405 89.7306 107.2 179.275 108.48 260.499" fill="white"/>
<path d="M136.855 252.791C149.176 217.781 179.164 142.342 158.728 29.8655C113.405 89.7306 107.2 179.275 108.48 260.499" stroke="#FFC3AB" stroke-miterlimit="10" stroke-linejoin="round"/>
<path d="M158.728 29.848C158.728 29.848 144.006 170.902 123.64 259.363" stroke="#FFC3AB" stroke-miterlimit="10" stroke-linejoin="round"/>
<path d="M158.728 29.848C158.728 29.848 164.775 131.435 131.527 257.965" stroke="#FFC3AB" stroke-miterlimit="10" stroke-linejoin="round"/>
<path d="M118.645 257.965C118.645 257.965 138.099 81.1485 158.728 29.848" stroke="#FFC3AB" stroke-miterlimit="10" stroke-linejoin="round"/>
<path d="M113.948 257.965C113.948 257.965 118.645 90.8842 158.711 29.848" stroke="#FFC3AB" stroke-miterlimit="10" stroke-linejoin="round"/>
<path d="M145.969 289.427C161.936 266.075 199.18 216.452 201.055 129.582C153.768 164.715 133.753 229.439 121.309 289.479" fill="white"/>
<path d="M145.969 289.427C161.936 266.075 199.18 216.452 201.055 129.582C153.768 164.715 133.753 229.439 121.309 289.479" stroke="#FFC3AB" stroke-miterlimit="10" stroke-linejoin="round"/>
<path d="M201.055 129.582C201.055 129.582 176.763 231.362 140.448 288.727" stroke="#FFC3AB" stroke-miterlimit="10" stroke-linejoin="round"/>
<path d="M134.331 290.65C134.331 290.65 186.122 151.746 201.055 129.565" stroke="#FFC3AB" stroke-miterlimit="10" stroke-linejoin="round"/>
<path d="M127.058 290.003C127.058 290.003 161.901 163.876 201.055 129.582" stroke="#FFC3AB" stroke-miterlimit="10" stroke-linejoin="round"/>
<path d="M172.942 253.892V280.652C172.942 339.906 148.738 378.045 148.738 378.045H73.8122C73.8122 378.045 49.608 339.906 49.608 280.652V253.892H172.942Z" fill="#FFE8D8"/>
</g>
<g clip-path="url(#clip1)">
<path d="M113.416 402.48C145.338 392.833 166.465 381.913 183.913 364.544C202.445 346.075 209.011 328.139 214.031 303.015C221.027 268.003 228.625 212.148 266.513 198.787C301.736 186.353 333.091 214.384 351.055 243.137C374.142 280.075 381.138 317.065 381.173 360.503C381.207 395.653 372.165 460.14 261.098 460.14C261.098 460.14 185.271 460.14 129.128 460.14C56.2063 460.14 67.5691 416.323 113.416 402.48Z" fill="white" stroke="#FFC7CA" stroke-miterlimit="10" stroke-linejoin="round"/>
<path d="M123.249 400.107C129.781 386.676 157.543 390.717 187.489 359.317C204.834 341.14 212.037 325.422 216.97 301.76C221.13 281.743 236.705 214.9 264.398 212.269C275.555 211.202 286.952 212.613 296.785 217.995C310.4 225.476 320.989 237.702 328.484 251.322C335.979 264.925 340.569 279.937 344.299 295.001C349.474 315.93 353.101 330.736 350.471 352.146C346.001 388.482 323.189 420.536 287.709 429.031C251.935 437.595 219.618 434.637 177.295 434.242C161.085 434.104 109.737 427.845 123.249 400.107Z" fill="#FFE1AD"/>
<path d="M307.839 225.011C314.921 231.099 321.006 238.322 326.181 246.077C331.871 254.589 336.546 263.772 340.38 273.265C344.402 283.256 347.479 293.626 349.594 304.184C351.708 314.76 352.894 325.56 352.894 336.342C352.894 346.798 351.829 357.305 349.336 367.485C346.981 377.115 343.337 386.487 338.094 394.931C332.902 403.271 326.198 410.614 318.239 416.375C307.804 423.924 295.393 428.464 282.981 431.542C267.527 435.394 251.557 436.856 235.656 437.234C227.628 437.423 219.601 437.269 211.573 436.959C203.768 436.667 195.964 436.323 188.194 435.652C184.549 435.343 180.888 435.016 177.244 434.81C176.522 434.775 176.522 433.657 177.244 433.692C184.756 434.122 192.302 434.242 199.832 434.569C207.653 434.913 215.475 435.136 223.296 435.188C239.163 435.274 255.133 434.638 270.793 431.938C284.546 429.565 298.573 425.73 310.744 418.748C319.167 413.899 326.576 407.364 332.421 399.591C338.248 391.835 342.58 383.013 345.537 373.779C348.648 364.08 350.316 353.951 350.866 343.788C351.433 333.229 350.866 322.585 349.302 312.129C347.72 301.553 345.176 291.115 341.686 280.986C338.334 271.219 334.088 261.743 328.88 252.835C324.101 244.667 318.479 236.911 311.827 230.153C310.314 228.623 308.75 227.127 307.117 225.716C306.687 225.286 307.374 224.616 307.839 225.011Z" fill="#FFC7CA"/>
<path d="M109.703 407.072L64.6983 440.622L56.2406 453.606L7.91858 420.657C6.73244 419.849 6.44022 418.249 7.23098 417.063C7.83264 416.186 8.91563 415.756 9.96424 415.997L37.3657 420.485L81.9746 383.65" fill="#995037"/>
<path d="M4.03357 417.286C5.5807 416.065 7.66074 414.93 8.84687 415.154L37.4516 420.554C46.339 433.761 64.6982 440.639 64.6982 440.639L56.2578 459.246C55.8796 459.796 55.1232 459.934 54.5731 459.556L0.595505 423.15C-0.470299 422.411 3.982 417.321 4.03357 417.286Z" fill="#FFE1CC"/>
<path d="M32.0194 418.284C32.1741 420.743 32.0366 423.219 31.6068 425.644" stroke="#A5634C" stroke-width="0.75" stroke-miterlimit="10"/>
<path d="M28.1 418.06C28.186 420.708 28.0141 422.084 27.6531 424.251" stroke="#A5634C" stroke-width="0.75" stroke-miterlimit="10"/>
<path d="M24.9198 417.682C25.0057 419.453 24.7651 421.654 24.5761 423.408" stroke="#A5634C" stroke-width="0.75" stroke-miterlimit="10"/>
<path d="M57.7534 456.443L2.6412 418.851" stroke="#A5634C" stroke-width="0.75" stroke-miterlimit="10"/>
<path d="M61.7244 447.226C61.7244 447.226 48.5566 438.73 42.1618 445.798" stroke="#A5634C" stroke-width="0.75" stroke-miterlimit="10"/>
<path d="M14.7087 416.255C14.7087 416.255 14.8634 423.77 13.9867 426.59" stroke="#A5634C" stroke-width="0.75" stroke-miterlimit="10"/>
<path d="M174.768 391.56L155.532 438.421L155.773 453.915L97.2912 453.623C95.8644 453.623 94.7126 452.453 94.7126 451.026C94.7126 449.96 95.3831 448.997 96.3801 448.618L121.598 437.011L138.686 387.657" fill="#995037"/>
<path d="M92.1685 452.986C92.7701 451.112 93.8703 449.014 94.9705 448.532L121.719 437.011C136.451 442.995 155.532 438.421 155.532 438.421L158.936 458.558C158.936 459.229 158.386 459.762 157.715 459.762H92.6154C91.309 459.762 92.1513 453.055 92.1685 452.986Z" fill="#FFE1CC"/>
<path d="M115.925 438.163C117.421 440.123 118.693 442.256 119.69 444.491" stroke="#A5634C" stroke-width="0.75" stroke-miterlimit="10"/>
<path d="M112.556 440.175C114.103 442.325 114.722 443.563 115.65 445.558" stroke="#A5634C" stroke-width="0.75" stroke-miterlimit="10"/>
<path d="M109.703 441.654C110.751 443.064 111.783 445.024 112.608 446.589" stroke="#A5634C" stroke-width="0.75" stroke-miterlimit="10"/>
<path d="M158.592 455.411L91.8934 455.084" stroke="#A5634C" stroke-width="0.75" stroke-miterlimit="10"/>
<path d="M156.735 445.575C156.735 445.575 141.075 445.884 139.717 455.342" stroke="#A5634C" stroke-width="0.75" stroke-miterlimit="10"/>
<path d="M100.437 446.177C100.437 446.177 104.752 452.316 105.611 455.153" stroke="#A5634C" stroke-width="0.75" stroke-miterlimit="10"/>
<path d="M258.193 194.969C258.193 194.969 245.455 215.072 250.887 223.739C253.706 228.244 264.33 231.288 269.727 228.64C273.733 226.68 282.5 210.996 281.228 207.626C276.363 194.745 258.193 194.969 258.193 194.969Z" fill="#995037"/>
<path d="M282.242 223.206L283.445 238.786C283.445 238.786 273.527 263.566 255.597 241.245L256.388 224.048L282.242 223.206Z" fill="#995037"/>
<path d="M287.709 218.545C289.548 214.057 291.095 211.736 291.869 206.25C292.677 200.541 288.018 198.855 288.018 198.855C288.018 198.855 288.809 199.509 286.299 194.539C283.927 189.862 275.968 190.068 271.171 189.294C264.88 188.297 255.58 182.691 251.867 185.184C250.251 186.268 250.251 195.984 255.374 198.838C258.296 200.472 263.109 199.543 266.496 200.076C272.805 201.074 274.266 202.398 275.039 206.422C275.469 208.657 279.612 208.245 277.274 212.836C276.913 213.541 276.827 214.178 276.707 214.711L279.217 216.499C282.414 218.666 275.452 224.255 275.968 226.937C276.243 228.348 279.062 228.949 281.554 227.797C284.047 226.679 285.697 223.412 287.709 218.545Z" fill="#2D1006"/>
<path d="M277.583 216.774C280.42 213.851 282.397 214.573 283.325 216.43C284.563 218.907 281.09 223.447 279.629 224.134C276.655 225.527 274.403 225.115 274.438 222.81" fill="#995037"/>
<path d="M256.164 228.605C265.774 230.738 270.724 227.952 270.724 227.952" stroke="#6D221D" stroke-width="0.75" stroke-miterlimit="10" stroke-linejoin="round"/>
<path d="M259.413 207.041C259.413 207.041 254.806 212.011 254.892 213.644C254.961 215.261 258.64 216.086 258.64 216.086" stroke="#6D221D" stroke-width="0.75" stroke-miterlimit="10"/>
<path d="M253.087 216.705L262.954 219.852C262.954 219.852 260.135 224.736 254.823 222.638C251.059 221.159 253.087 216.705 253.087 216.705Z" fill="white"/>
<path d="M256.714 205.012C256.646 205.235 256.56 205.442 256.474 205.665C256.371 205.923 256.267 206.198 256.13 206.456C256.061 206.611 255.889 206.731 255.717 206.766C255.563 206.817 255.339 206.783 255.202 206.697C255.064 206.611 254.927 206.456 254.892 206.284C254.892 206.233 254.875 206.164 254.875 206.112C254.875 205.992 254.909 205.872 254.961 205.768C255.047 205.562 255.167 205.356 255.27 205.149C255.374 204.943 255.494 204.754 255.614 204.548C255.769 204.29 256.078 204.186 256.353 204.307C256.628 204.427 256.818 204.737 256.714 205.012Z" fill="#212237"/>
<path d="M259.259 202.759C259.259 202.759 258.055 200.403 255.545 201.658" stroke="#212237" stroke-width="0.5" stroke-miterlimit="10" stroke-linecap="round" stroke-linejoin="round"/>
<path d="M267.768 209.689C267.716 209.913 267.647 210.136 267.561 210.36C267.527 210.463 267.493 210.584 267.458 210.687C267.407 210.841 267.338 210.996 267.269 211.151C267.2 211.289 267.011 211.426 266.857 211.461C266.702 211.495 266.564 211.495 266.41 211.426C266.272 211.375 266.152 211.271 266.083 211.151C265.997 210.996 265.946 210.807 266.014 210.635C266.117 210.36 266.238 210.119 266.358 209.861C266.461 209.655 266.564 209.449 266.685 209.242C266.822 208.984 267.166 208.881 267.424 209.001C267.699 209.105 267.854 209.397 267.768 209.689Z" fill="#212237"/>
<path d="M266.84 205.253C266.84 205.253 269.452 204.823 271.532 208.193" stroke="#212237" stroke-width="0.5" stroke-miterlimit="10" stroke-linecap="round" stroke-linejoin="round"/>
<path d="M209.475 272.749C209.475 272.749 194.21 302.207 189.775 302.774C184.412 303.462 142.175 272.233 142.175 272.233L125.122 292.903C125.122 292.903 164.66 340.916 191.254 340.916C217.864 340.916 242.584 292.903 242.584 292.903" fill="#995037"/>
<path d="M283.445 238.786C283.445 238.786 279.578 245.768 268.18 245.252C259.499 244.856 255.597 241.245 255.597 241.245C255.597 241.245 229.605 248.02 224.534 282.242C219.807 314.124 213.876 368.603 213.876 368.603L312.6 375.241C312.6 375.241 315.007 339.42 311.362 297.787C308.629 266.644 283.445 238.786 283.445 238.786Z" fill="#FF9C94"/>
<path d="M285.766 346.436L232.648 347.176L232.7 350.426L288.792 349.635C288.757 347.846 287.399 346.419 285.766 346.436Z" fill="#DCDDEF"/>
<path d="M167.978 351.337L242.601 350.288L227.628 300.401C226.855 297.839 224.654 296.119 222.196 296.153L154.724 297.099C153.229 297.116 152.18 298.716 152.644 300.281L167.978 351.337Z" fill="#DCDDEF"/>
<path d="M164.626 351.389L239.249 350.34L224.276 300.453C223.503 297.89 221.302 296.171 218.844 296.205L151.372 297.151C149.876 297.168 148.828 298.767 149.292 300.332L164.626 351.389Z" fill="#F2F5F9"/>
<path d="M186.268 321.57C186.733 323.909 189.363 325.766 192.113 325.714C194.881 325.68 196.737 323.754 196.256 321.415C195.792 319.076 193.162 317.219 190.411 317.271C187.644 317.305 185.787 319.231 186.268 321.57Z" fill="#DCDDEF"/>
<path d="M255.597 241.245C245.781 240.591 233.146 243.051 226.184 247.573C207.739 259.559 199.986 285.234 199.986 285.234L225.411 291.7" fill="#FF9C94"/>
<path d="M292.264 297.082C292.264 297.082 299.725 323.307 298.006 329.016C296.699 333.333 259.001 338.732 259.001 338.732L257.041 363.771C257.041 363.771 323.688 368.121 333.315 356.066C346.5 339.575 331.492 289.464 331.492 289.464" fill="#995037"/>
<path d="M266.857 338.406C261.321 338.543 232.046 340.022 232.167 341.501C232.287 342.928 240.676 343.926 240.298 344.682C239.782 345.748 233.37 346.316 229.76 346.299C226.528 346.282 221.354 346.797 221.165 348.19C220.804 350.856 238.51 350.701 238.51 350.701C238.51 350.701 219.446 347.313 218.93 349.514C218.174 352.696 238.475 355.516 239.077 356.324C239.077 356.324 222.145 348.981 221.595 351.32C221.027 353.676 235.983 360.606 240.865 361.002C236.928 359.918 225.565 352.111 225.153 354.278C224.723 356.462 234.865 361.157 236.55 361.535C250.337 364.699 263.436 363.581 263.436 363.581" fill="#995037"/>
<path d="M222.935 349.515C225.17 350.099 227.456 350.409 229.743 350.632C230.895 350.718 232.029 350.822 233.181 350.822C234.333 350.839 235.484 350.839 236.636 350.701C234.367 350.271 232.098 349.996 229.812 349.773C227.542 349.583 225.256 349.429 222.935 349.515Z" fill="#6D221D"/>
<path d="M224.534 352.782C226.838 353.779 229.244 354.467 231.685 355.018C232.906 355.276 234.143 355.516 235.381 355.637C236.619 355.774 237.891 355.86 239.146 355.74C234.247 354.777 229.502 353.504 224.534 352.782Z" fill="#6D221D"/>
<path d="M227.25 356.084C229.261 357.098 231.359 357.838 233.49 358.457C234.556 358.749 235.639 359.042 236.739 359.214C237.839 359.403 238.94 359.575 240.074 359.592C237.942 358.887 235.845 358.251 233.714 357.631C231.599 357.03 229.468 356.462 227.25 356.084Z" fill="#6D221D"/>
<path d="M283.445 238.786C283.445 238.786 303.421 240.127 311.019 245.854C331.355 261.176 336.031 291.149 336.031 291.149L291.404 302.791L283.394 278.149" fill="#FF9C94"/>
<path d="M293.209 302.895C290.872 291.476 287.107 282.241 287.107 282.241" stroke="#A5634C" stroke-width="0.75" stroke-miterlimit="10"/>
<path d="M223.107 290.926C226.356 273.815 230.465 263.325 230.465 263.325" stroke="#A5634C" stroke-width="0.75" stroke-miterlimit="10"/>
<path d="M334.449 284.185L291.783 296.79" stroke="#A5634C" stroke-width="0.75" stroke-miterlimit="10"/>
<path d="M202.238 279.18L224.293 285.113" stroke="#A5634C" stroke-width="0.75" stroke-miterlimit="10"/>
<path d="M287.709 239.198C287.709 239.198 282.362 249.654 266.771 248.605C251.179 247.556 250.526 241.142 250.526 241.142" stroke="#A5634C" stroke-width="0.75" stroke-miterlimit="10"/>
<path d="M153.469 280.883C153.469 280.883 124.005 257.994 122.527 258.459C121.048 258.923 125.105 263.256 123.833 263.411C122.544 263.566 113.209 253.988 111.851 254.847C110.012 256.017 119.621 265.148 119.621 265.148C119.621 265.148 108.465 255.759 107.158 257.238C106.23 258.287 117.18 268.759 117.18 268.759C117.18 268.759 106.11 260.677 105.182 261.778C104.253 262.878 114.035 272.181 114.035 272.181C114.035 272.181 106.351 265.44 105.113 266.575C103.875 267.71 120.206 288.587 134.371 302.723" fill="#995037"/>
<path d="M125.913 264.701C125.913 264.701 128.045 270.032 130.744 274.142" stroke="#6D221D" stroke-width="0.75" stroke-miterlimit="10" stroke-linejoin="round"/>
<path d="M127.134 276.635C123.988 273.42 119.81 272.869 115.891 273.041" stroke="#6D221D" stroke-width="0.75" stroke-miterlimit="10" stroke-linejoin="round"/>
<path d="M269.47 413.297C269.47 413.297 272.134 429.272 255.906 428.189C216.437 425.541 153.538 378.508 153.538 378.508L77.0753 437.716L45.6169 404.148C45.6169 404.148 97.377 360.933 112.59 349.257C118.934 344.39 132.084 333.367 146.799 334.364C161.514 335.362 244.801 367.812 244.801 367.812" fill="#050C26"/>
<path d="M256.474 419.608C222.454 417.321 171.107 380.279 157.475 372.008C155.412 370.752 152.816 370.907 150.925 372.386L72.9496 433.296" stroke="#102059" stroke-width="0.75" stroke-miterlimit="10"/>
<path d="M309.162 375.017C309.162 375.017 315.798 433.468 267.149 430.201C232.871 427.897 189.775 379.075 189.775 379.075L163.302 439.006L118.281 425.661C118.281 425.661 140.422 370.03 148.02 351.131C154.483 335.052 166.156 322.43 177.776 320.899C189.397 319.369 201.688 324.7 216.214 333.126C227.938 339.919 264.398 372.008 264.398 372.008" fill="#131C5E"/>
<path d="M296.269 374.14C296.269 374.14 299.157 422.462 264.364 420.124C243.512 418.731 202.513 377.287 190.893 367.261C189.345 365.937 186.956 366.47 186.148 368.345L156.048 436.856" stroke="#30409E" stroke-width="0.75" stroke-miterlimit="10"/>
<path d="M295.874 386.212C295.874 386.212 282.07 384.51 281.004 373.108" stroke="#30409E" stroke-width="0.75" stroke-miterlimit="10"/>
<path d="M166.981 430.682L121.701 417.063" stroke="#30409E" stroke-width="0.75" stroke-miterlimit="10"/>
<path d="M84.3983 432.041L52.8197 398.146" stroke="#102059" stroke-width="0.75" stroke-miterlimit="10"/>
</g>
<path opacity="0.5" d="M393.577 129.542L387.838 108.439L366.751 114.182L372.49 135.285L393.577 129.542Z" stroke="#FF8364" stroke-width="1.5" stroke-miterlimit="10"/>
<path opacity="0.5" d="M256.046 82.6066L250.307 61.5038L229.219 67.247L234.958 88.3498L256.046 82.6066Z" stroke="#FF8364" stroke-width="1.5" stroke-miterlimit="10"/>
<path d="M314.141 145.663C314.822 140.936 311.545 136.551 306.821 135.87C302.097 135.188 297.716 138.468 297.035 143.195C296.354 147.922 299.631 152.307 304.355 152.988C309.079 153.67 313.46 150.39 314.141 145.663Z" stroke="#FF9C94" stroke-width="1.5" stroke-miterlimit="10"/>
<path opacity="0.7" d="M304.415 82.6508L307.267 82.0327C308.529 81.7574 309.396 80.5912 309.301 79.3046L309.151 77.4019C309.049 76.1088 309.922 74.9492 311.185 74.6738L313.048 74.2648C314.31 73.9894 315.177 72.8232 315.082 71.5367L314.939 69.6271C314.843 68.3406 315.71 67.1744 316.972 66.899L318.849 66.4897C320.111 66.2144 320.978 65.0482 320.883 63.7617L320.705 61.5038" stroke="#FF8364" stroke-width="1.5" stroke-miterlimit="10"/>
<path opacity="0.6" d="M360.401 190.85L363.273 191.366C364.545 191.593 365.791 190.845 366.193 189.619L366.78 187.803C367.178 186.568 368.428 185.829 369.7 186.056L371.579 186.388C372.851 186.615 374.096 185.867 374.498 184.641L375.094 182.821C375.496 181.595 376.742 180.848 378.014 181.074L379.905 181.411C381.177 181.638 382.423 180.89 382.825 179.664L383.522 177.509" stroke="#FF8364" stroke-width="1.5" stroke-miterlimit="10"/>
<defs>
<clipPath id="clip0">
<rect width="184.467" height="377.666" fill="white" transform="translate(17.4644 0.378662)"/>
</clipPath>
<clipPath id="clip1">
<rect width="382.032" height="276.155" fill="white" transform="matrix(-1 0 0 1 382.032 184.845)"/>
</clipPath>
</defs>
</svg>
