<svg width="522" height="501" viewBox="0 0 522 501" fill="none" xmlns="http://www.w3.org/2000/svg">
<path d="M521.408 290.423V49.0122L159.581 49.0122L159.581 290.423L521.408 290.423Z" fill="white" stroke="#FFCBC2" stroke-miterlimit="10" stroke-linejoin="round"/>
<path d="M509.683 60.7517H171.317V278.688H509.683V60.7517Z" stroke="#FFCBC2" stroke-miterlimit="10" stroke-linejoin="round"/>
<path d="M290.659 169.814C290.659 142.278 312.969 119.954 340.488 119.954C368.007 119.954 390.318 142.278 390.318 169.814C390.318 180.788 386.775 190.941 380.758 199.18C373.649 209.908 355.163 222.021 355.163 229.274V237.561C355.163 239.216 353.825 240.554 352.171 240.554H344.16H336.805H328.793C327.139 240.554 325.802 239.216 325.802 237.561V229.274C325.802 222.021 307.316 209.908 300.207 199.18C294.213 190.941 290.659 180.8 290.659 169.814Z" fill="white" stroke="#FFCBC2" stroke-miterlimit="10" stroke-linejoin="round"/>
<path d="M346.154 239.732C346.095 238.488 345.204 218.464 346.811 200.917C344.852 201.152 342.74 201.269 340.5 201.269C338.26 201.269 336.148 201.14 334.189 200.917C335.796 218.464 334.893 238.476 334.834 239.732L333.955 239.685C333.966 239.38 334.893 218.675 333.251 200.8C318.471 198.746 311.855 190.365 310.67 182.454C309.978 177.83 311.55 173.229 314.424 171.515C316.16 170.471 318.26 170.26 320.5 170.905C324.019 171.915 327.362 174.954 329.45 179.027C331.855 183.734 333.274 191.539 334.095 200.025C336.078 200.272 338.201 200.401 340.488 200.401C342.776 200.401 344.899 200.272 346.881 200.025C347.702 191.551 349.122 183.734 351.526 179.027C353.614 174.954 356.957 171.915 360.476 170.905C362.717 170.26 364.817 170.471 366.553 171.515C369.415 173.229 370.998 177.83 370.306 182.454C369.121 190.365 362.506 198.746 347.726 200.8C346.084 218.675 347.01 239.38 347.022 239.685L346.154 239.732ZM362.951 171.433C362.236 171.433 361.497 171.539 360.734 171.762C357.438 172.701 354.306 175.577 352.324 179.438C350.013 183.957 348.629 191.586 347.82 199.908C361.978 197.865 368.312 189.872 369.45 182.337C370.083 178.123 368.652 173.804 366.119 172.29C365.18 171.715 364.101 171.433 362.951 171.433ZM318.037 171.433C316.887 171.433 315.82 171.715 314.87 172.278C312.336 173.792 310.905 178.112 311.538 182.325C312.676 189.872 319.01 197.854 333.169 199.896C332.359 191.574 330.975 183.957 328.664 179.426C326.694 175.565 323.55 172.701 320.254 171.75C319.503 171.539 318.752 171.433 318.037 171.433Z" fill="#FFCBC2"/>
<path d="M382.036 172.677C380.453 172.677 379.174 171.398 379.174 169.814C379.174 152.067 367.186 136.644 350.025 132.29C348.5 131.903 347.562 130.341 347.96 128.816C348.347 127.278 349.908 126.351 351.433 126.75C371.139 131.738 384.899 149.45 384.899 169.814C384.899 171.398 383.62 172.677 382.036 172.677Z" fill="#EDEEF7"/>
<path d="M342.4 131.046C343.981 131.046 345.262 129.763 345.262 128.182C345.262 126.6 343.981 125.318 342.4 125.318C340.82 125.318 339.538 126.6 339.538 128.182C339.538 129.763 340.82 131.046 342.4 131.046Z" fill="#EDEEF7"/>
<path d="M356.359 232.807H324.641V247.936C324.641 250.401 325.345 252.831 326.67 254.908C329.169 258.852 333.509 261.235 338.177 261.235H342.823C347.491 261.235 351.831 258.852 354.33 254.908C355.655 252.819 356.359 250.401 356.359 247.936V232.807Z" fill="white" stroke="#FFCBC2" stroke-miterlimit="10" stroke-linejoin="round"/>
<path d="M355.092 256.786C354.998 256.786 354.905 256.786 354.822 256.786L324.758 254.192C323.679 254.098 322.916 253.136 323.069 252.044C323.221 250.953 324.219 250.143 325.298 250.237L355.362 252.831C356.441 252.924 357.204 253.887 357.051 254.979C356.91 255.976 356.066 256.739 355.092 256.786Z" fill="white" stroke="#FFCBC2" stroke-miterlimit="10" stroke-linejoin="round"/>
<path d="M356.359 243.288C356.265 243.288 356.171 243.288 356.089 243.288L324.371 240.554C323.292 240.46 322.529 239.497 322.682 238.406C322.834 237.314 323.831 236.504 324.911 236.598L356.629 239.333C357.708 239.427 358.47 240.389 358.318 241.481C358.177 242.479 357.333 243.241 356.359 243.288Z" fill="white" stroke="#FFCBC2" stroke-miterlimit="10" stroke-linejoin="round"/>
<path d="M356.359 250.213C356.265 250.213 356.171 250.213 356.089 250.213L324.371 247.478C323.292 247.385 322.529 246.422 322.682 245.331C322.834 244.239 323.831 243.429 324.911 243.523L356.629 246.258C357.708 246.352 358.47 247.314 358.318 248.406C358.177 249.403 357.333 250.155 356.359 250.213Z" fill="white" stroke="#FFCBC2" stroke-miterlimit="10" stroke-linejoin="round"/>
<path d="M340.582 95.0947V112.29" stroke="#FFCBC2" stroke-miterlimit="10" stroke-linejoin="round"/>
<path d="M393.637 117.149L381.497 129.309" stroke="#FFCBC2" stroke-miterlimit="10" stroke-linejoin="round"/>
<path d="M287.48 117.031L299.632 129.179" stroke="#FFCBC2" stroke-miterlimit="10" stroke-linejoin="round"/>
<path d="M311.855 100.776L318.436 116.656" stroke="#FFCBC2" stroke-miterlimit="10" stroke-linejoin="round"/>
<path d="M369.309 100.846L362.729 116.726" stroke="#FFCBC2" stroke-miterlimit="10" stroke-linejoin="round"/>
<path d="M409.884 141.539L394.013 148.123" stroke="#FFCBC2" stroke-miterlimit="10" stroke-linejoin="round"/>
<path d="M271.175 141.374L287.058 147.959" stroke="#FFCBC2" stroke-miterlimit="10" stroke-linejoin="round"/>
<path opacity="0.35" d="M212.149 114.355H190.108V132.126H212.149V114.355Z" fill="#FFC3AB"/>
<path opacity="0.35" d="M222.272 114.355H237.51" stroke="#FFC3AB" stroke-miterlimit="10"/>
<path opacity="0.35" d="M222.272 132.114H253.087" stroke="#FFC3AB" stroke-miterlimit="10"/>
<path opacity="0.35" d="M222.272 126.398H253.087" stroke="#FFC3AB" stroke-miterlimit="10"/>
<path opacity="0.35" d="M222.272 120.834H253.087" stroke="#FFC3AB" stroke-miterlimit="10"/>
<path opacity="0.35" d="M212.149 149.719H190.108V167.49H212.149V149.719Z" fill="#FFC3AB"/>
<path opacity="0.35" d="M222.272 149.719H237.51" stroke="#FFC3AB" stroke-miterlimit="10"/>
<path opacity="0.35" d="M222.272 167.478H253.087" stroke="#FFC3AB" stroke-miterlimit="10"/>
<path opacity="0.35" d="M222.272 161.762H253.087" stroke="#FFC3AB" stroke-miterlimit="10"/>
<path opacity="0.35" d="M222.272 156.198H253.087" stroke="#FFC3AB" stroke-miterlimit="10"/>
<path opacity="0.35" d="M212.149 185.084H190.108V202.854H212.149V185.084Z" fill="#FFC3AB"/>
<path opacity="0.35" d="M222.272 185.084H237.51" stroke="#FFC3AB" stroke-miterlimit="10"/>
<path opacity="0.35" d="M222.272 202.854H253.087" stroke="#FFC3AB" stroke-miterlimit="10"/>
<path opacity="0.35" d="M222.272 197.138H253.087" stroke="#FFC3AB" stroke-miterlimit="10"/>
<path opacity="0.35" d="M222.272 191.563H253.087" stroke="#FFC3AB" stroke-miterlimit="10"/>
<path opacity="0.35" d="M212.149 220.448H190.108V238.218H212.149V220.448Z" fill="#FFC3AB"/>
<path opacity="0.35" d="M222.272 220.448H237.51" stroke="#FFC3AB" stroke-miterlimit="10"/>
<path opacity="0.35" d="M222.272 238.218H253.087" stroke="#FFC3AB" stroke-miterlimit="10"/>
<path opacity="0.35" d="M222.272 232.502H253.087" stroke="#FFC3AB" stroke-miterlimit="10"/>
<path opacity="0.35" d="M222.272 226.938H253.087" stroke="#FFC3AB" stroke-miterlimit="10"/>
<path opacity="0.35" d="M449.954 114.355H427.913V132.126H449.954V114.355Z" fill="#FFC3AB"/>
<path opacity="0.35" d="M460.077 114.355H475.314" stroke="#FFC3AB" stroke-miterlimit="10"/>
<path opacity="0.35" d="M460.077 132.114H490.892" stroke="#FFC3AB" stroke-miterlimit="10"/>
<path opacity="0.35" d="M460.077 126.398H490.892" stroke="#FFC3AB" stroke-miterlimit="10"/>
<path opacity="0.35" d="M460.077 120.834H490.892" stroke="#FFC3AB" stroke-miterlimit="10"/>
<path opacity="0.35" d="M449.954 149.719H427.913V167.49H449.954V149.719Z" fill="#FFC3AB"/>
<path opacity="0.35" d="M460.077 149.719H475.314" stroke="#FFC3AB" stroke-miterlimit="10"/>
<path opacity="0.35" d="M460.077 167.478H490.892" stroke="#FFC3AB" stroke-miterlimit="10"/>
<path opacity="0.35" d="M460.077 161.762H490.892" stroke="#FFC3AB" stroke-miterlimit="10"/>
<path opacity="0.35" d="M460.077 156.198H490.892" stroke="#FFC3AB" stroke-miterlimit="10"/>
<path opacity="0.35" d="M449.954 185.084H427.913V202.854H449.954V185.084Z" fill="#FFC3AB"/>
<path opacity="0.35" d="M460.077 185.084H475.314" stroke="#FFC3AB" stroke-miterlimit="10"/>
<path opacity="0.35" d="M460.077 202.854H490.892" stroke="#FFC3AB" stroke-miterlimit="10"/>
<path opacity="0.35" d="M460.077 197.138H490.892" stroke="#FFC3AB" stroke-miterlimit="10"/>
<path opacity="0.35" d="M460.077 191.562H490.892" stroke="#FFC3AB" stroke-miterlimit="10"/>
<path opacity="0.35" d="M449.954 220.448H427.913V238.218H449.954V220.448Z" fill="#FFC3AB"/>
<path opacity="0.35" d="M460.077 220.448H475.314" stroke="#FFC3AB" stroke-miterlimit="10"/>
<path opacity="0.35" d="M460.077 238.218H490.892" stroke="#FFC3AB" stroke-miterlimit="10"/>
<path opacity="0.35" d="M460.077 232.502H490.892" stroke="#FFC3AB" stroke-miterlimit="10"/>
<path opacity="0.35" d="M460.077 226.938H490.892" stroke="#FFC3AB" stroke-miterlimit="10"/>
<path d="M489.379 49.0146V7.24194" stroke="#FFCBC2" stroke-miterlimit="10" stroke-linejoin="round"/>
<path d="M489.379 7.25364C491.218 7.25364 492.71 5.76124 492.71 3.92027C492.71 2.07931 491.218 0.586914 489.379 0.586914C487.539 0.586914 486.047 2.07931 486.047 3.92027C486.047 5.76124 487.539 7.25364 489.379 7.25364Z" stroke="#FFCBC2" stroke-miterlimit="10" stroke-linejoin="round"/>
<path d="M191.61 49.0146V7.24194" stroke="#FFCBC2" stroke-miterlimit="10" stroke-linejoin="round"/>
<path d="M191.61 7.25364C193.45 7.25364 194.941 5.76124 194.941 3.92027C194.941 2.07931 193.45 0.586914 191.61 0.586914C189.77 0.586914 188.278 2.07931 188.278 3.92027C188.278 5.76124 189.77 7.25364 191.61 7.25364Z" stroke="#FFCBC2" stroke-miterlimit="10" stroke-linejoin="round"/>
<path opacity="0.35" d="M291.468 72.0312H389.532" stroke="#FFC3AB" stroke-width="2" stroke-miterlimit="10" stroke-linecap="round" stroke-linejoin="round"/>
<path opacity="0.35" d="M263.292 82.7119H417.708" stroke="#FFC3AB" stroke-width="2" stroke-miterlimit="10" stroke-linecap="round" stroke-linejoin="round"/>
<g clip-path="url(#clip0)">
<path d="M65.5317 319.902C56.523 280.102 33.8787 194.299 61.1325 67.874C99.2703 136.479 98.6218 237.664 91.5761 329.253" fill="white"/>
<path d="M65.5317 319.902C56.523 280.102 33.8787 194.299 61.1325 67.874C99.2703 136.479 98.6218 237.664 91.5761 329.253" stroke="#FFC3AB" stroke-miterlimit="10" stroke-linejoin="round"/>
<path d="M61.1325 67.874C61.1325 67.874 64.7605 227.369 77.4497 327.645" stroke="#FFC3AB" stroke-miterlimit="10" stroke-linejoin="round"/>
<path d="M61.1325 67.874C61.1325 67.874 48.1454 182.343 70.1587 325.862" stroke="#FFC3AB" stroke-miterlimit="10" stroke-linejoin="round"/>
<path d="M82.2169 326.177C82.2169 326.177 76.7487 126.236 61.1325 67.874" stroke="#FFC3AB" stroke-miterlimit="10" stroke-linejoin="round"/>
<path d="M86.6161 326.282C86.6161 326.282 94.2752 137.667 61.1325 67.874" stroke="#FFC3AB" stroke-miterlimit="10" stroke-linejoin="round"/>
<path d="M46.4278 335.213C31.1621 310.236 -4.90747 256.856 1.68251 169.164C50.2485 208.841 65.8472 275.873 73.5764 337.52" fill="white"/>
<path d="M46.4278 335.213C31.1621 310.236 -4.90747 256.856 1.68251 169.164C50.2485 208.841 65.8472 275.873 73.5764 337.52" stroke="#FFC3AB" stroke-miterlimit="10" stroke-linejoin="round"/>
<path d="M1.66498 169.164C1.66498 169.164 18.2801 273.915 52.5445 335.021" stroke="#FFC3AB" stroke-miterlimit="10" stroke-linejoin="round"/>
<path d="M59.0995 337.52C59.0995 337.52 15.8965 192.865 1.66498 169.164" stroke="#FFC3AB" stroke-miterlimit="10" stroke-linejoin="round"/>
<path d="M67.1792 337.52C67.1792 337.52 41.3801 207.268 1.66498 169.164" stroke="#FFC3AB" stroke-miterlimit="10" stroke-linejoin="round"/>
<path d="M119.391 319.412C131.712 284.402 161.7 208.964 141.264 96.4871C95.9402 156.352 89.7358 245.896 91.0153 327.121" fill="white"/>
<path d="M119.391 319.412C131.712 284.402 161.7 208.964 141.264 96.4871C95.9402 156.352 89.7358 245.896 91.0153 327.121" stroke="#FFC3AB" stroke-miterlimit="10" stroke-linejoin="round"/>
<path d="M141.264 96.4695C141.264 96.4695 126.542 237.524 106.176 325.984" stroke="#FFC3AB" stroke-miterlimit="10" stroke-linejoin="round"/>
<path d="M141.264 96.4695C141.264 96.4695 147.311 198.057 114.063 324.586" stroke="#FFC3AB" stroke-miterlimit="10" stroke-linejoin="round"/>
<path d="M101.181 324.586C101.181 324.586 120.635 147.77 141.264 96.4695" stroke="#FFC3AB" stroke-miterlimit="10" stroke-linejoin="round"/>
<path d="M96.4836 324.586C96.4836 324.586 101.181 157.506 141.246 96.4695" stroke="#FFC3AB" stroke-miterlimit="10" stroke-linejoin="round"/>
<path d="M128.505 356.048C144.471 332.696 181.715 283.074 183.59 196.204C136.304 231.336 116.289 296.06 103.845 356.1" fill="white"/>
<path d="M128.505 356.048C144.471 332.696 181.715 283.074 183.59 196.204C136.304 231.336 116.289 296.06 103.845 356.1" stroke="#FFC3AB" stroke-miterlimit="10" stroke-linejoin="round"/>
<path d="M183.59 196.204C183.59 196.204 159.299 297.983 122.984 355.349" stroke="#FFC3AB" stroke-miterlimit="10" stroke-linejoin="round"/>
<path d="M116.867 357.271C116.867 357.271 168.658 218.367 183.59 196.186" stroke="#FFC3AB" stroke-miterlimit="10" stroke-linejoin="round"/>
<path d="M109.593 356.625C109.593 356.625 144.436 230.497 183.591 196.204" stroke="#FFC3AB" stroke-miterlimit="10" stroke-linejoin="round"/>
<path d="M155.478 320.514V347.274C155.478 406.527 131.274 444.666 131.274 444.666H56.3478C56.3478 444.666 32.1436 406.527 32.1436 347.274V320.514H155.478Z" fill="#FFE8D8"/>
</g>
<g clip-path="url(#clip1)">
<path d="M263.373 71.488L260.968 92.1828C260.968 92.1828 268.685 100.537 280.365 100.537C292.045 100.537 292.045 92.7374 292.045 92.7374L289.83 74.9198L271.886 56.0449L263.373 71.488Z" fill="#FFCBC2"/>
<path d="M295.541 57.7958C295.593 57.0505 296.51 56.6518 297.236 56.7558C298.292 56.8945 299.174 57.7091 299.659 58.6624C300.143 59.6156 300.265 60.7076 300.299 61.7822C300.334 62.7701 300.265 63.8101 299.815 64.694C299.001 66.2539 296.89 66.9992 295.281 66.2539" fill="#F9BBAF"/>
<path d="M294.624 43.7392C294.624 43.7392 300.801 67.3112 297.409 72.1295C292.339 79.3744 280.261 79.9291 275.157 76.5839C270.883 73.7761 267.387 58.7663 267.387 54.8666C267.387 44.2939 289.069 38.1756 294.624 43.7392Z" fill="#FFCBC2"/>
<path d="M259.652 61.4875C259.462 60.7075 259.254 59.9276 258.978 59.1476C258.32 57.2931 257.299 55.6638 256.572 53.8439C255.119 50.2215 256.33 45.6978 259.393 43.2712C259.929 42.8379 260.535 42.4739 261.019 41.9713C262.11 40.8447 262.473 39.2501 263.113 37.8116C263.632 36.6503 264.376 35.5237 265.501 34.9171C268.079 33.5478 271.523 35.4024 274.101 34.0331C274.655 33.7385 275.139 33.3052 275.641 32.9238C279.344 30.116 283.532 30.7746 287.564 32.2306C289.45 32.9065 290.073 33.6518 291.63 34.8824C293.343 36.217 295.714 36.1303 297.444 37.4302C299.261 38.7995 299.711 41.33 299.728 43.6005C299.728 44.4325 299.694 45.2818 299.347 46.0271C298.898 46.9803 297.998 47.6563 297.029 48.0896C294.71 49.1469 292.114 48.7309 289.675 48.5576C287.287 48.3843 284.501 46.6857 282.165 47.5696C279.881 48.4189 279.292 51.2268 276.489 51.4521C275.382 51.5387 274.032 51.3308 273.374 52.232C272.63 53.2373 273.028 54.9012 272.423 56.0798C271.869 57.1891 270.883 58.177 270.173 59.1996C268.754 61.2275 266.73 62.6141 267.456 65.2486C267.958 67.0858 269.983 70.0323 269.152 71.9735C268.599 73.2561 265.778 73.2388 263.667 71.6096C261.469 69.9457 260.829 66.7565 260.293 64.226C260.033 63.2727 259.86 62.3888 259.652 61.4875Z" fill="#212237"/>
<path d="M290.159 77.8836C290.159 77.8836 282.061 79.4782 276.489 76.4797C272.094 74.1225 270.502 68.6282 270.502 68.6282" stroke="#F7A794" stroke-width="0.75" stroke-miterlimit="10"/>
<path d="M273.253 60.9328C272.734 60.0662 271.021 58.9396 270.087 59.0436C269.152 59.1476 268.287 59.7022 267.63 60.4475C264.549 63.9313 267.906 70.5696 272.63 69.8416C274.361 69.5643 273.894 67.2764 273.894 67.2764" fill="#FFCBC2"/>
<path d="M290.678 56.0625C290.678 56.0625 294.277 61.6088 293.931 63.1514C293.585 64.694 289.917 64.8846 289.917 64.8846" stroke="#F7A794" stroke-width="0.5" stroke-miterlimit="10"/>
<path d="M293.949 66.7739L283.947 68.1778C283.947 68.1778 285.85 73.3429 291.301 72.1989C295.16 71.3843 293.949 66.7739 293.949 66.7739Z" fill="white"/>
<path d="M294.693 54.1906C294.762 54.3293 294.814 54.4853 294.883 54.6239C294.918 54.7279 294.952 54.8492 295.004 54.9532C295.073 55.1786 295.16 55.3865 295.212 55.6119C295.246 55.7852 295.229 55.9758 295.143 56.1318C295.056 56.2705 294.9 56.4091 294.727 56.4438C294.554 56.4785 294.364 56.4785 294.208 56.3745C294.053 56.2705 293.949 56.1492 293.897 55.9585C293.828 55.7505 293.793 55.5252 293.741 55.2999C293.689 55.0746 293.655 54.8492 293.62 54.6239C293.603 54.5373 293.585 54.4679 293.603 54.3813C293.603 54.2946 293.637 54.2253 293.672 54.1559C293.741 54.052 293.828 53.9653 293.949 53.9133C294.07 53.8613 294.208 53.844 294.329 53.8786C294.468 53.948 294.624 54.052 294.693 54.1906Z" fill="#212237"/>
<path d="M291.526 51.9548C291.526 51.9548 293.066 49.8922 295.281 51.5041" stroke="#212237" stroke-width="0.5" stroke-miterlimit="10" stroke-linecap="round" stroke-linejoin="round"/>
<path d="M283.359 56.9984C283.428 57.2064 283.497 57.4317 283.566 57.6397C283.636 57.865 283.687 58.073 283.739 58.2983C283.774 58.385 283.774 58.4716 283.757 58.5756C283.757 58.6623 283.722 58.749 283.67 58.8356C283.584 58.9743 283.428 59.1129 283.255 59.1476C283.082 59.1823 282.892 59.1823 282.736 59.0783C282.58 58.9743 282.476 58.853 282.424 58.6623C282.372 58.437 282.338 58.2117 282.303 57.9863C282.269 57.709 282.217 57.4317 282.199 57.1717C282.182 57.0331 282.269 56.8424 282.372 56.7557C282.476 56.6691 282.58 56.6171 282.718 56.5998C282.84 56.5824 282.995 56.5998 283.099 56.6691C283.22 56.7211 283.307 56.8424 283.359 56.9984Z" fill="#212237"/>
<path d="M283.843 53.0986C283.843 53.0986 281.403 52.2667 278.86 55.1612" stroke="#212237" stroke-width="0.5" stroke-miterlimit="10" stroke-linecap="round" stroke-linejoin="round"/>
<path d="M299.399 432.26L304.158 480.08L303.76 495.124L362.628 494.83C364.064 494.83 365.223 493.651 365.223 492.212C365.223 491.138 364.548 490.167 363.545 489.786L338.16 478.087L335.72 428.343" fill="#FFCBC2"/>
<path d="M367.784 494.171C367.179 492.282 366.071 490.167 364.964 489.682L338.039 478.069C323.21 484.101 304.002 479.49 304.002 479.49L300.576 499.786C300.576 500.462 301.13 501 301.805 501H367.334C368.649 501 367.802 494.24 367.784 494.171Z" fill="#FF8364"/>
<path d="M343.87 479.23C342.365 481.206 341.084 483.355 340.081 485.608" stroke="#2C79E8" stroke-width="0.75" stroke-miterlimit="10"/>
<path d="M347.262 481.258C345.704 483.425 345.082 484.673 344.147 486.683" stroke="#2C79E8" stroke-width="0.75" stroke-miterlimit="10"/>
<path d="M350.117 482.749C349.062 484.17 348.023 486.146 347.193 487.723" stroke="#2C79E8" stroke-width="0.75" stroke-miterlimit="10"/>
<path d="M300.922 496.615L368.061 496.285" stroke="#2C79E8" stroke-width="0.75" stroke-miterlimit="10"/>
<path d="M302.791 486.7C302.791 486.7 318.555 487.012 319.922 496.545" stroke="#2C79E8" stroke-width="0.75" stroke-miterlimit="10"/>
<path d="M359.444 487.307C359.444 487.307 355.101 493.495 354.235 496.355" stroke="#2C79E8" stroke-width="0.75" stroke-miterlimit="10"/>
<path d="M326.947 226.942C337.053 299.755 346.12 471.76 346.12 471.76H295.437C295.437 471.76 284.985 364.231 276.108 286.443C253.804 249.474 255.534 209.436 253.025 204.115" fill="#91ABE5"/>
<path d="M302.376 471.761C302.376 471.761 289.848 353 280.971 275.212" stroke="#3A53CE" stroke-width="0.75" stroke-miterlimit="10"/>
<path d="M218.002 432.26L215.839 480.08L215.441 495.124L274.309 494.83C275.745 494.83 276.904 493.651 276.904 492.212C276.904 491.138 276.23 490.167 275.226 489.786L249.841 478.087L254.323 428.343" fill="#FFCBC2"/>
<path d="M279.448 494.171C278.842 492.282 277.735 490.167 276.628 489.682L249.703 478.069C234.873 484.101 215.666 479.49 215.666 479.49L212.24 499.786C212.24 500.462 212.794 501 213.468 501H278.998C280.331 501 279.483 494.24 279.448 494.171Z" fill="#FF855A"/>
<path d="M255.551 479.23C254.046 481.206 252.766 483.355 251.762 485.608" stroke="#2C79E8" stroke-width="0.75" stroke-miterlimit="10"/>
<path d="M258.926 481.258C257.368 483.425 256.745 484.673 255.811 486.683" stroke="#2C79E8" stroke-width="0.75" stroke-miterlimit="10"/>
<path d="M261.798 482.749C260.743 484.17 259.704 486.146 258.874 487.723" stroke="#2C79E8" stroke-width="0.75" stroke-miterlimit="10"/>
<path d="M212.603 496.615L279.725 496.285" stroke="#2C79E8" stroke-width="0.75" stroke-miterlimit="10"/>
<path d="M214.455 486.7C214.455 486.7 230.219 487.012 231.586 496.545" stroke="#2C79E8" stroke-width="0.75" stroke-miterlimit="10"/>
<path d="M271.125 487.307C271.125 487.307 266.782 493.495 265.916 496.355" stroke="#2C79E8" stroke-width="0.75" stroke-miterlimit="10"/>
<path d="M219.542 220.199C218.175 236.734 218.296 257.152 220.805 277.101C216.479 364.768 210.492 471.76 210.492 471.76H261.158C261.158 471.76 285.556 277.587 286.698 218.743" fill="#91ABE5"/>
<path d="M228.194 220.199C226.827 236.734 226.948 257.152 229.457 277.101C225.131 364.768 219.144 471.76 219.144 471.76" stroke="#3A53CE" stroke-width="0.75" stroke-miterlimit="10"/>
<path d="M279.206 314.14C279.206 314.14 286.248 253.252 286.854 230.893" stroke="#3A53CE" stroke-width="0.75" stroke-miterlimit="10"/>
<path d="M211.063 461.725H262.404" stroke="#3A53CE" stroke-width="0.75" stroke-miterlimit="10"/>
<path d="M294.451 461.569H345.462" stroke="#3A53CE" stroke-width="0.75" stroke-miterlimit="10"/>
<path d="M227.64 255.453C227.64 255.453 242.21 256.58 250.239 235.903" stroke="#3A53CE" stroke-width="0.75" stroke-miterlimit="10"/>
<path d="M284.622 255.453C284.622 255.453 289.709 254.015 290.176 252.42C290.644 250.826 292.028 231.985 292.028 231.985" stroke="#3A53CE" stroke-width="0.75" stroke-miterlimit="10"/>
<path d="M310.612 235.903C310.612 235.903 311.754 252.888 330.356 255.453" stroke="#3A53CE" stroke-width="0.75" stroke-miterlimit="10"/>
<path d="M379.274 123.191C379.274 123.191 403.361 97.6601 404.832 97.9027C406.32 98.1454 403.049 102.86 404.295 102.825C405.541 102.79 413.103 92.2871 414.522 92.911C416.443 93.7603 409.313 103.05 409.313 103.05C409.313 103.05 411.2 101.369 412.653 102.582C413.674 103.449 412.255 106.378 412.255 106.378C412.255 106.378 414.141 105.477 415.179 106.396C416.218 107.314 414.885 109.81 414.885 109.81C414.885 109.81 416.806 107.851 417.879 109.689C418.883 111.422 411.805 125.929 400.264 141.493" fill="#FFCBC2"/>
<path d="M291.44 88.1445C303.5 89.2365 316.496 95.1121 324.473 105.425C337.9 122.774 354.91 144.752 354.91 144.752L382.821 116.188L409.089 138.096C409.089 138.096 372.733 189.452 354.702 189.573C338.489 189.677 311.114 166.383 303.189 153.834C287.217 128.615 291.44 88.1445 291.44 88.1445Z" fill="#9AD7D0"/>
<path d="M261.729 85.614C261.729 85.614 265.086 90.5711 278.669 91.975C288.931 93.0322 291.44 88.1445 291.44 88.1445C291.44 88.1445 316.236 101.369 323.59 156.156C330.944 210.927 331.654 239.612 331.654 239.612H215.285C215.285 239.612 214.887 197.945 218.296 162.119C221.809 125.27 229.526 94.1415 261.729 85.614Z" fill="#F7633A"/>
<path d="M402.634 105.182C402.634 105.182 401.354 110.59 399.364 114.906" stroke="#F7958B" stroke-width="0.5" stroke-miterlimit="10"/>
<path d="M417.135 113.138C416.131 114.299 415.076 115.425 413.968 116.5C413.415 117.037 412.844 117.54 412.238 117.991C411.944 118.216 411.615 118.424 411.303 118.58C410.992 118.788 410.629 118.771 410.542 118.667C410.438 118.511 410.508 118.077 410.594 117.748C410.698 117.401 410.836 117.055 410.992 116.708C411.303 116.015 411.65 115.339 412.03 114.68C412.774 113.346 413.622 112.063 414.453 110.78L413.847 110.364C412.826 111.751 411.753 113.12 410.629 114.403C410.058 115.044 409.469 115.668 408.846 116.205C408.535 116.465 408.189 116.725 407.895 116.847C407.739 116.916 407.635 116.899 407.67 116.899C407.67 116.968 407.6 116.847 407.618 116.673C407.791 115.183 408.621 113.502 409.331 111.976C410.075 110.416 410.888 108.891 411.736 107.401L411.079 107.002C410.127 108.493 409.106 109.931 408.033 111.352C407.497 112.046 406.943 112.739 406.337 113.346C406.026 113.658 405.714 113.935 405.368 114.143C405.195 114.229 405.022 114.299 404.936 114.264C404.866 114.264 404.815 114.177 404.797 113.987C404.78 113.207 405.109 112.323 405.386 111.508C405.68 110.676 406.026 109.862 406.372 109.047C407.081 107.418 407.86 105.823 408.673 104.229C407.774 105.771 406.908 107.314 406.095 108.908C405.334 110.538 404.434 112.063 404.261 114.022C404.261 114.247 404.365 114.68 404.763 114.784C405.126 114.871 405.386 114.732 405.611 114.628C406.043 114.385 406.389 114.074 406.735 113.762C407.427 113.138 408.016 112.462 408.587 111.768C409.729 110.382 410.732 108.908 411.736 107.418L411.079 107.019C410.196 108.527 409.365 110.052 408.587 111.63C408.206 112.41 407.825 113.207 407.497 114.022C407.185 114.853 406.822 115.651 406.77 116.673C406.787 116.916 406.77 117.297 407.168 117.609C407.566 117.869 407.964 117.731 408.189 117.644C408.691 117.436 409.019 117.141 409.383 116.847C410.058 116.257 410.646 115.599 411.234 114.94C412.376 113.606 413.449 112.236 414.47 110.815L413.864 110.399C413.017 111.699 412.238 113.034 411.511 114.403C411.148 115.096 410.802 115.789 410.508 116.517C410.369 116.881 410.231 117.245 410.127 117.644C410.058 118.043 409.885 118.441 410.179 118.979C410.646 119.447 411.234 119.187 411.528 118.996C411.892 118.805 412.203 118.563 412.497 118.303C413.103 117.8 413.64 117.245 414.176 116.673C415.197 115.547 416.183 114.351 417.135 113.138Z" fill="#F7958B"/>
<path d="M291.44 88.1445C315.284 134.058 316.876 247.168 316.876 247.168H335.132C335.132 247.168 334.284 173.835 320.493 126.016C314.627 105.702 299.572 89.6004 291.44 88.1445Z" fill="#9AD7D0"/>
<path d="M330.546 179.798C330.546 179.798 326.497 135.41 318.555 120.261" stroke="#4152A5" stroke-width="0.75" stroke-miterlimit="10" stroke-linejoin="round"/>
<path d="M308.674 150.038L312.325 114.906L306.217 111.612L312.325 107.765C312.325 107.765 306.996 97.4866 302.376 90.415" stroke="#4152A5" stroke-width="0.75" stroke-miterlimit="10" stroke-linejoin="round"/>
<path d="M262.162 85.614C276.489 116.518 263.788 247.186 263.788 247.186H208.398C208.398 247.186 211.029 199.314 213.313 180.734C215.614 162.153 230.686 102.565 230.686 102.565L262.162 85.614Z" fill="#9AD7D0"/>
<path d="M227.502 209.349L280.971 210.095L280.919 213.371L224.456 212.573C224.491 210.771 225.841 209.315 227.502 209.349Z" fill="#DCDDEF"/>
<path d="M346.068 214.289L270.952 213.232L286.023 162.951C286.802 160.368 289.017 158.635 291.492 158.67L359.409 159.623C360.915 159.64 361.97 161.252 361.503 162.829L346.068 214.289Z" fill="#DCDDEF"/>
<path d="M349.442 214.342L274.326 213.285L289.398 163.004C290.176 160.422 292.391 158.689 294.866 158.723L362.783 159.676C364.289 159.694 365.344 161.306 364.877 162.883L349.442 214.342Z" fill="#F2F5F9"/>
<path d="M327.657 187.424C327.189 189.781 324.542 191.653 321.773 191.601C318.987 191.566 317.119 189.625 317.603 187.268C318.07 184.911 320.718 183.039 323.486 183.091C326.255 183.143 328.124 185.084 327.657 187.424Z" fill="#DCDDEF"/>
<path d="M242.054 151.581C242.054 151.581 227.363 177.354 228.229 183.316C228.869 187.805 268.91 198.101 268.91 198.101L267.11 223.354C267.11 223.354 200.127 217.651 192.34 204.202C181.681 185.777 211.184 138.114 211.184 138.114" fill="#FFCBC2"/>
<path d="M261.141 196.575C266.626 197.546 295.558 203.421 295.212 204.895C294.883 206.299 286.387 206.021 286.646 206.836C287.01 207.98 293.291 209.505 296.89 210.025C300.109 210.493 305.179 211.776 305.162 213.214C305.11 215.935 287.529 213.11 287.529 213.11C287.529 213.11 307.013 212.59 307.203 214.878C307.48 218.154 286.854 217.929 286.127 218.639C286.127 218.639 304.071 213.873 304.279 216.299C304.487 218.726 288.567 223.388 283.653 223.042C287.737 222.556 300.213 216.473 300.317 218.709C300.403 220.944 289.605 224.099 287.875 224.22C273.686 225.295 260.795 222.21 260.795 222.21" fill="#FFCBC2"/>
<path d="M303.172 214.254C300.888 213.821 298.586 213.648 296.285 213.492C293.983 213.37 291.682 213.284 289.363 213.388C290.488 213.7 291.63 213.873 292.789 214.029C293.931 214.202 295.091 214.272 296.25 214.358C298.534 214.48 300.853 214.514 303.172 214.254Z" fill="#F7958B"/>
<path d="M301.095 217.27C296.042 217.253 291.111 217.807 286.093 218.015C287.321 218.327 288.585 218.431 289.848 218.483C291.111 218.553 292.374 218.501 293.62 218.431C296.146 218.241 298.655 217.911 301.095 217.27Z" fill="#F7958B"/>
<path d="M297.894 220.165C295.644 220.217 293.43 220.459 291.215 220.737C289 221.031 286.82 221.343 284.587 221.742C285.712 221.898 286.837 221.898 287.962 221.881C289.086 221.863 290.211 221.742 291.319 221.603C293.533 221.274 295.748 220.858 297.894 220.165Z" fill="#F7958B"/>
<path d="M262.162 85.614C246.519 88.1445 227.052 93.0322 219.144 103.38C207.014 119.239 174.621 185.604 186.613 201.879C196.805 215.71 253.388 226.196 253.388 226.196L268.633 194.946L229.959 180.491L254.029 127.905" fill="#9AD7D0"/>
<path d="M268.65 194.929L229.976 180.474L249.374 138.096" stroke="#4152A5" stroke-width="0.75" stroke-miterlimit="10"/>
<path d="M253.406 226.179L210.492 215.693" stroke="#4152A5" stroke-width="0.75" stroke-miterlimit="10"/>
<path d="M263.65 193.057L247.557 224.758" stroke="#4152A5" stroke-width="0.75" stroke-miterlimit="10"/>
<path d="M268.91 151.546C266.436 135.254 255.949 121.977 255.949 121.977L262.421 114.905L253.388 111.612C253.388 111.612 249.201 94.332 246.207 88.9763" stroke="#4152A5" stroke-width="0.75" stroke-miterlimit="10" stroke-linejoin="round"/>
</g>
<defs>
<clipPath id="clip0">
<rect width="184.467" height="377.666" fill="white" transform="translate(0 67)"/>
</clipPath>
<clipPath id="clip1">
<rect width="234" height="470" fill="white" transform="matrix(-1 0 0 1 418 31)"/>
</clipPath>
</defs>
</svg>
