<svg width="66" height="66" viewBox="0 0 66 66" fill="none" xmlns="http://www.w3.org/2000/svg">
<g clip-path="url(#clip0)">
<path d="M32.6177 52.4316C32.2657 52.4316 31.9137 52.2968 31.6442 52.0301L13.97 34.3558C13.453 33.8388 13.431 33.0111 13.915 32.4666L27.1617 17.6276C36.421 6.79533 51.4992 -0.214418 64.647 0.00833162C65.3812 0.0248316 65.9725 0.616082 65.989 1.35033C66.2942 14.5063 59.2047 29.5763 48.345 38.8548L33.5307 52.0823C33.2722 52.3161 32.9422 52.4316 32.6177 52.4316ZM16.8327 33.3301L32.67 49.1673L46.5382 36.7868C56.4547 28.3113 63.041 14.8033 63.2445 2.75558C51.1967 2.95633 37.6915 9.54258 29.2325 19.4371L16.8327 33.3301Z" fill="white"/>
<path d="M37.884 62.4965C37.752 62.4965 37.6173 62.4773 37.4908 62.436C36.9958 62.271 36.5888 61.8915 36.5173 61.3745L34.6308 48.2103C34.5235 47.4595 35.046 46.7638 35.7968 46.6538C36.5475 46.5355 37.2433 47.0663 37.3533 47.8198L38.8273 58.1048C43.6453 52.3435 46.3238 45.0395 46.3238 37.5925C46.3238 36.8335 46.9398 36.2175 47.6988 36.2175C48.4578 36.2175 49.0738 36.8335 49.0738 37.5925C49.0738 46.7033 45.3833 55.6215 38.9483 62.0538C38.6733 62.3288 38.2718 62.4965 37.884 62.4965Z" fill="white"/>
<path d="M17.9878 31.383C17.9245 31.383 17.8585 31.3803 17.7925 31.3693L4.62827 29.4828C4.11127 29.4085 3.67952 29.0483 3.51727 28.5505C3.35502 28.0555 3.48702 27.5083 3.85827 27.1425C10.384 20.6168 19.2995 16.9263 28.4103 16.9263C29.1693 16.9263 29.7853 17.5423 29.7853 18.3013C29.7853 19.0603 29.1693 19.6763 28.4103 19.6763C20.9275 19.6763 13.585 22.3795 7.88427 27.17L18.183 28.6468C18.9338 28.7568 19.4563 29.4498 19.349 30.2033C19.2473 30.888 18.6588 31.383 17.9878 31.383Z" fill="white"/>
<path d="M47.1157 25.7564C45.353 25.7564 43.593 25.0854 42.2537 23.7462C39.5752 21.0649 39.5752 16.7034 42.2537 14.0222C44.935 11.3409 49.2965 11.3409 51.9777 14.0222C54.6562 16.7034 54.6562 21.0649 51.9777 23.7462C50.6357 25.0882 48.8757 25.7564 47.1157 25.7564ZM47.1157 14.7619C46.0597 14.7619 45.001 15.1634 44.198 15.9664C42.592 17.5752 42.592 20.1932 44.198 21.8019C45.8067 23.4079 48.4247 23.4052 50.0335 21.8019C51.6395 20.1932 51.6395 17.5752 50.0335 15.9664C49.2277 15.1662 48.1717 14.7619 47.1157 14.7619ZM51.0042 22.7754H51.0317H51.0042Z" fill="white"/>
<path d="M1.37498 66C1.01473 66 0.665482 65.8597 0.401482 65.5985C0.0439822 65.241 -0.0880178 64.7157 0.0577322 64.2317C0.508732 62.7275 4.54848 49.434 7.49098 46.4915C10.8047 43.1777 16.1975 43.175 19.5112 46.4915C22.825 49.8052 22.825 55.198 19.5112 58.5117C16.5687 61.4542 3.27523 65.494 1.77098 65.945C1.63898 65.9807 1.50698 66 1.37498 66ZM13.5025 46.7527C12.0285 46.7527 10.5572 47.3137 9.43523 48.433C7.84848 50.0225 5.20848 57.1202 3.46498 62.535C8.87698 60.7915 15.9775 58.1515 17.5642 56.5647C19.8055 54.3235 19.8055 50.6742 17.5642 48.433C16.445 47.3137 14.9737 46.7527 13.5025 46.7527Z" fill="white"/>
</g>
<defs>
<clipPath id="clip0">
<rect width="66" height="66" fill="white"/>
</clipPath>
</defs>
</svg>
