<svg width="47" height="47" viewBox="0 0 47 47" fill="none" xmlns="http://www.w3.org/2000/svg">
<g clip-path="url(#clip0)">
<path d="M25.4581 23.5001H21.5414C20.5995 23.5001 19.5831 22.7774 19.5831 21.1892V18.6042C19.5831 17.4566 19.0877 16.407 18.2593 15.7979C15.968 14.1099 14.6324 11.4132 14.6892 8.58539C14.7793 3.9226 18.6705 0.0686016 23.3686 5.9898e-05C25.8361 -0.0312734 28.0118 0.867602 29.7077 2.54198C31.386 4.19873 32.3123 6.40773 32.3123 8.75969C32.3123 11.5033 30.9904 14.1255 28.7736 15.7725C27.9256 16.405 27.4164 17.4684 27.4164 18.6179V21.5417C27.4164 22.6227 26.5391 23.5001 25.4581 23.5001ZM23.4959 1.95839C23.4626 1.95839 23.4312 1.95839 23.396 1.95839C19.8064 2.01127 16.7142 5.06431 16.6476 8.62456C16.6045 10.8179 17.6404 12.9094 19.4206 14.2195C20.7483 15.1967 21.5414 16.8359 21.5414 18.6042V21.1892C21.5414 21.481 21.6119 21.577 21.6119 21.577L25.4581 21.5417V18.6179C25.4581 16.8535 26.261 15.2026 27.6064 14.1999C29.3513 12.9035 30.3539 10.9197 30.3539 8.75969C30.3539 6.93452 29.6352 5.22098 28.331 3.93631C27.0365 2.65752 25.323 1.95839 23.4959 1.95839Z" fill="#1A3987"/>
<path d="M26.4362 19.5833H20.5612C20.0207 19.5833 19.582 19.1447 19.582 18.6042C19.582 18.0637 20.0207 17.625 20.5612 17.625H26.4362C26.9767 17.625 27.4154 18.0637 27.4154 18.6042C27.4154 19.1447 26.9767 19.5833 26.4362 19.5833Z" fill="#1A3987"/>
<path d="M10.7695 33.2916C7.53045 33.2916 4.89453 30.6557 4.89453 27.4166C4.89453 24.1775 7.53045 21.5416 10.7695 21.5416C14.0086 21.5416 16.6445 24.1775 16.6445 27.4166C16.6445 30.6557 14.0086 33.2916 10.7695 33.2916ZM10.7695 23.5C8.60949 23.5 6.85286 25.2566 6.85286 27.4166C6.85286 29.5767 8.60949 31.3333 10.7695 31.3333C12.9296 31.3333 14.6862 29.5767 14.6862 27.4166C14.6862 25.2566 12.9296 23.5 10.7695 23.5Z" fill="#1A3987"/>
<path d="M20.5625 47C20.022 47 19.5833 46.5613 19.5833 46.0208V42.1041C19.5833 40.4846 18.2654 39.1666 16.6458 39.1666H4.89583C3.27629 39.1666 1.95833 40.4846 1.95833 42.1041V46.0208C1.95833 46.5613 1.51967 47 0.979167 47C0.438667 47 0 46.5613 0 46.0208V42.1041C0 39.4036 2.19529 37.2083 4.89583 37.2083H16.6458C19.3464 37.2083 21.5417 39.4036 21.5417 42.1041V46.0208C21.5417 46.5613 21.103 47 20.5625 47Z" fill="#1A3987"/>
<path d="M36.2305 33.2916C32.9914 33.2916 30.3555 30.6557 30.3555 27.4166C30.3555 24.1775 32.9914 21.5416 36.2305 21.5416C39.4696 21.5416 42.1055 24.1775 42.1055 27.4166C42.1055 30.6557 39.4696 33.2916 36.2305 33.2916ZM36.2305 23.5C34.0704 23.5 32.3138 25.2566 32.3138 27.4166C32.3138 29.5767 34.0704 31.3333 36.2305 31.3333C38.3905 31.3333 40.1471 29.5767 40.1471 27.4166C40.1471 25.2566 38.3905 23.5 36.2305 23.5Z" fill="#1A3987"/>
<path d="M46.0195 47C45.479 47 45.0403 46.5613 45.0403 46.0208V42.1041C45.0403 40.4846 43.7224 39.1666 42.1029 39.1666H30.3529C28.7333 39.1666 27.4154 40.4846 27.4154 42.1041V46.0208C27.4154 46.5613 26.9767 47 26.4362 47C25.8957 47 25.457 46.5613 25.457 46.0208V42.1041C25.457 39.4036 27.6523 37.2083 30.3529 37.2083H42.1029C44.8034 37.2083 46.9987 39.4036 46.9987 42.1041V46.0208C46.9987 46.5613 46.56 47 46.0195 47Z" fill="#1A3987"/>
</g>
<defs>
<clipPath id="clip0">
<rect width="47" height="47" fill="white"/>
</clipPath>
</defs>
</svg>
