<svg width="47" height="47" viewBox="0 0 47 47" fill="none" xmlns="http://www.w3.org/2000/svg">
<path d="M41.8594 4.40625H37.4531V3.67188C37.4531 3.08757 37.221 2.5272 36.8078 2.11403C36.3947 1.70086 35.8343 1.46875 35.25 1.46875C34.6657 1.46875 34.1053 1.70086 33.6922 2.11403C33.279 2.5272 33.0469 3.08757 33.0469 3.67188V4.40625H25.7031V3.67188C25.7031 3.08757 25.471 2.5272 25.0578 2.11403C24.6447 1.70086 24.0843 1.46875 23.5 1.46875C22.9157 1.46875 22.3553 1.70086 21.9422 2.11403C21.529 2.5272 21.2969 3.08757 21.2969 3.67188V4.40625H13.9531V3.67188C13.9531 3.08757 13.721 2.5272 13.3078 2.11403C12.8947 1.70086 12.3343 1.46875 11.75 1.46875C11.1657 1.46875 10.6053 1.70086 10.1922 2.11403C9.77899 2.5272 9.54688 3.08757 9.54688 3.67188V4.40625H5.14062C4.16712 4.40734 3.2338 4.79455 2.54542 5.48292C1.85705 6.1713 1.46984 7.10462 1.46875 8.07812V41.8594C1.46984 42.8329 1.85705 43.7662 2.54542 44.4546C3.2338 45.1429 4.16712 45.5302 5.14062 45.5312H41.8594C42.8329 45.5302 43.7662 45.1429 44.4546 44.4546C45.1429 43.7662 45.5302 42.8329 45.5312 41.8594V8.07812C45.5302 7.10462 45.1429 6.1713 44.4546 5.48292C43.7662 4.79455 42.8329 4.40734 41.8594 4.40625ZM34.5156 3.67188C34.5156 3.47711 34.593 3.29032 34.7307 3.15259C34.8684 3.01487 35.0552 2.9375 35.25 2.9375C35.4448 2.9375 35.6316 3.01487 35.7693 3.15259C35.907 3.29032 35.9844 3.47711 35.9844 3.67188V8.07812C35.9844 8.27289 35.907 8.45968 35.7693 8.59741C35.6316 8.73513 35.4448 8.8125 35.25 8.8125C35.0552 8.8125 34.8684 8.73513 34.7307 8.59741C34.593 8.45968 34.5156 8.27289 34.5156 8.07812V3.67188ZM22.7656 3.67188C22.7656 3.47711 22.843 3.29032 22.9807 3.15259C23.1184 3.01487 23.3052 2.9375 23.5 2.9375C23.6948 2.9375 23.8816 3.01487 24.0193 3.15259C24.157 3.29032 24.2344 3.47711 24.2344 3.67188V8.07812C24.2344 8.27289 24.157 8.45968 24.0193 8.59741C23.8816 8.73513 23.6948 8.8125 23.5 8.8125C23.3052 8.8125 23.1184 8.73513 22.9807 8.59741C22.843 8.45968 22.7656 8.27289 22.7656 8.07812V3.67188ZM11.0156 3.67188C11.0156 3.47711 11.093 3.29032 11.2307 3.15259C11.3684 3.01487 11.5552 2.9375 11.75 2.9375C11.9448 2.9375 12.1316 3.01487 12.2693 3.15259C12.407 3.29032 12.4844 3.47711 12.4844 3.67188V8.07812C12.4844 8.27289 12.407 8.45968 12.2693 8.59741C12.1316 8.73513 11.9448 8.8125 11.75 8.8125C11.5552 8.8125 11.3684 8.73513 11.2307 8.59741C11.093 8.45968 11.0156 8.27289 11.0156 8.07812V3.67188ZM5.14062 5.875H9.54688V8.07812C9.54688 8.66243 9.77899 9.2228 10.1922 9.63597C10.6053 10.0491 11.1657 10.2812 11.75 10.2812C12.3343 10.2812 12.8947 10.0491 13.3078 9.63597C13.721 9.2228 13.9531 8.66243 13.9531 8.07812V5.875H21.2969V8.07812C21.2969 8.66243 21.529 9.2228 21.9422 9.63597C22.3553 10.0491 22.9157 10.2812 23.5 10.2812C24.0843 10.2812 24.6447 10.0491 25.0578 9.63597C25.471 9.2228 25.7031 8.66243 25.7031 8.07812V5.875H33.0469V8.07812C33.0469 8.66243 33.279 9.2228 33.6922 9.63597C34.1053 10.0491 34.6657 10.2812 35.25 10.2812C35.8343 10.2812 36.3947 10.0491 36.8078 9.63597C37.221 9.2228 37.4531 8.66243 37.4531 8.07812V5.875H41.8594C42.4435 5.87568 43.0034 6.10801 43.4165 6.52103C43.8295 6.93405 44.0618 7.49403 44.0625 8.07812V13.2188H2.9375V8.07812C2.93818 7.49403 3.17051 6.93405 3.58353 6.52103C3.99655 6.10801 4.55653 5.87568 5.14062 5.875ZM41.8594 44.0625H5.14062C4.55653 44.0618 3.99655 43.8295 3.58353 43.4165C3.17051 43.0034 2.93818 42.4435 2.9375 41.8594V14.6875H44.0625V41.8594C44.0618 42.4435 43.8295 43.0034 43.4165 43.4165C43.0034 43.8295 42.4435 44.0618 41.8594 44.0625Z" fill="#1A3987"/>
<path d="M40.3906 19.8281H37.4531C37.2584 19.8281 37.0716 19.9055 36.9338 20.0432C36.7961 20.1809 36.7188 20.3677 36.7188 20.5625V23.5C36.7188 23.6948 36.7961 23.8816 36.9338 24.0193C37.0716 24.157 37.2584 24.2344 37.4531 24.2344H40.3906C40.5854 24.2344 40.7722 24.157 40.9099 24.0193C41.0476 23.8816 41.125 23.6948 41.125 23.5V20.5625C41.125 20.3677 41.0476 20.1809 40.9099 20.0432C40.7722 19.9055 40.5854 19.8281 40.3906 19.8281ZM39.6562 22.7656H38.1875V21.2969H39.6562V22.7656Z" fill="#1A3987"/>
<path d="M25.7031 34.5156H22.7656C22.5709 34.5156 22.3841 34.593 22.2463 34.7307C22.1086 34.8684 22.0312 35.0552 22.0312 35.25V38.1875C22.0312 38.3823 22.1086 38.5691 22.2463 38.7068C22.3841 38.8445 22.5709 38.9219 22.7656 38.9219H25.7031C25.8979 38.9219 26.0847 38.8445 26.2224 38.7068C26.3601 38.5691 26.4375 38.3823 26.4375 38.1875V35.25C26.4375 35.0552 26.3601 34.8684 26.2224 34.7307C26.0847 34.593 25.8979 34.5156 25.7031 34.5156ZM24.9688 37.4531H23.5V35.9844H24.9688V37.4531Z" fill="#1A3987"/>
<path d="M18.3594 19.8281H15.4219C15.2271 19.8281 15.0403 19.9055 14.9026 20.0432C14.7649 20.1809 14.6875 20.3677 14.6875 20.5625V23.5C14.6875 23.6948 14.7649 23.8816 14.9026 24.0193C15.0403 24.157 15.2271 24.2344 15.4219 24.2344H18.3594C18.5541 24.2344 18.7409 24.157 18.8787 24.0193C19.0164 23.8816 19.0938 23.6948 19.0938 23.5V20.5625C19.0938 20.3677 19.0164 20.1809 18.8787 20.0432C18.7409 19.9055 18.5541 19.8281 18.3594 19.8281ZM17.625 22.7656H16.1562V21.2969H17.625V22.7656Z" fill="#1A3987"/>
<path d="M11.0156 27.1719H8.07812C7.88336 27.1719 7.69657 27.2492 7.55884 27.387C7.42112 27.5247 7.34375 27.7115 7.34375 27.9062V30.8438C7.34375 31.0385 7.42112 31.2253 7.55884 31.363C7.69657 31.5008 7.88336 31.5781 8.07812 31.5781H11.0156C11.2104 31.5781 11.3972 31.5008 11.5349 31.363C11.6726 31.2253 11.75 31.0385 11.75 30.8438V27.9062C11.75 27.7115 11.6726 27.5247 11.5349 27.387C11.3972 27.2492 11.2104 27.1719 11.0156 27.1719ZM10.2812 30.1094H8.8125V28.6406H10.2812V30.1094Z" fill="#1A3987"/>
<path d="M18.3594 27.1719H15.4219C15.2271 27.1719 15.0403 27.2492 14.9026 27.387C14.7649 27.5247 14.6875 27.7115 14.6875 27.9062V30.8438C14.6875 31.0385 14.7649 31.2253 14.9026 31.363C15.0403 31.5008 15.2271 31.5781 15.4219 31.5781H18.3594C18.5541 31.5781 18.7409 31.5008 18.8787 31.363C19.0164 31.2253 19.0938 31.0385 19.0938 30.8438V27.9062C19.0938 27.7115 19.0164 27.5247 18.8787 27.387C18.7409 27.2492 18.5541 27.1719 18.3594 27.1719ZM17.625 30.1094H16.1562V28.6406H17.625V30.1094Z" fill="#1A3987"/>
<path d="M11.0156 34.5156H8.07812C7.88336 34.5156 7.69657 34.593 7.55884 34.7307C7.42112 34.8684 7.34375 35.0552 7.34375 35.25V38.1875C7.34375 38.3823 7.42112 38.5691 7.55884 38.7068C7.69657 38.8445 7.88336 38.9219 8.07812 38.9219H11.0156C11.2104 38.9219 11.3972 38.8445 11.5349 38.7068C11.6726 38.5691 11.75 38.3823 11.75 38.1875V35.25C11.75 35.0552 11.6726 34.8684 11.5349 34.7307C11.3972 34.593 11.2104 34.5156 11.0156 34.5156ZM10.2812 37.4531H8.8125V35.9844H10.2812V37.4531Z" fill="#1A3987"/>
<path d="M18.3594 34.5156H15.4219C15.2271 34.5156 15.0403 34.593 14.9026 34.7307C14.7649 34.8684 14.6875 35.0552 14.6875 35.25V38.1875C14.6875 38.3823 14.7649 38.5691 14.9026 38.7068C15.0403 38.8445 15.2271 38.9219 15.4219 38.9219H18.3594C18.5541 38.9219 18.7409 38.8445 18.8787 38.7068C19.0164 38.5691 19.0938 38.3823 19.0938 38.1875V35.25C19.0938 35.0552 19.0164 34.8684 18.8787 34.7307C18.7409 34.593 18.5541 34.5156 18.3594 34.5156ZM17.625 37.4531H16.1562V35.9844H17.625V37.4531Z" fill="#1A3987"/>
<path d="M33.8918 22.8558L30.2199 22.2948L28.5707 18.7816C28.5114 18.6553 28.4174 18.5486 28.2997 18.4738C28.182 18.399 28.0454 18.3593 27.9059 18.3593C27.7664 18.3593 27.6298 18.399 27.5121 18.4738C27.3944 18.5486 27.3004 18.6553 27.2411 18.7816L25.5926 22.2948L21.9207 22.8558C21.7872 22.8762 21.6618 22.9329 21.5585 23.0199C21.4551 23.1069 21.3777 23.2207 21.3348 23.3488C21.292 23.4769 21.2853 23.6143 21.3155 23.746C21.3457 23.8777 21.4116 23.9985 21.506 24.0951L24.1847 26.8405L23.5513 30.7258C23.5294 30.8617 23.5461 31.0009 23.5995 31.1277C23.6529 31.2545 23.7408 31.3638 23.8532 31.4431C23.9657 31.5223 24.0982 31.5684 24.2355 31.5761C24.3729 31.5837 24.5097 31.5526 24.6302 31.4863L27.9059 29.6757L31.1816 31.4863C31.3022 31.553 31.4391 31.5844 31.5768 31.5769C31.7144 31.5694 31.8471 31.5233 31.9598 31.4439C32.0725 31.3646 32.1605 31.2551 32.2139 31.128C32.2673 31.0009 32.2838 30.8614 32.2616 30.7254L31.6282 26.84L34.307 24.0946C34.4014 23.998 34.4673 23.8772 34.4975 23.7455C34.5277 23.6139 34.521 23.4764 34.4781 23.3483C34.4353 23.2202 34.3579 23.1064 34.2545 23.0194C34.1511 22.9325 34.0258 22.8757 33.8922 22.8554L33.8918 22.8558ZM30.3178 26.0795C30.2375 26.1617 30.1776 26.2617 30.143 26.3713C30.1084 26.4809 30.1001 26.5971 30.1186 26.7106L30.5684 29.4691L28.261 28.1932C28.1522 28.1331 28.03 28.1015 27.9057 28.1015C27.7814 28.1015 27.6592 28.1331 27.5505 28.1932L25.243 29.4691L25.6929 26.7106C25.7114 26.5971 25.703 26.4809 25.6684 26.3713C25.6338 26.2617 25.5739 26.1617 25.4937 26.0795L23.5547 24.0919L26.2015 23.688C26.3207 23.6697 26.4336 23.6224 26.5302 23.5503C26.6267 23.4781 26.7041 23.3832 26.7553 23.2741L27.9059 20.8221L29.0566 23.2736C29.1078 23.3828 29.1851 23.4776 29.2817 23.5498C29.3783 23.622 29.4912 23.6693 29.6104 23.6875L32.2571 24.0914L30.3178 26.0795Z" fill="#1A3987"/>
<path d="M40.3906 27.1719H37.4531C37.2584 27.1719 37.0716 27.2492 36.9338 27.387C36.7961 27.5247 36.7188 27.7115 36.7188 27.9062V30.8438C36.7188 31.0385 36.7961 31.2253 36.9338 31.363C37.0716 31.5008 37.2584 31.5781 37.4531 31.5781H40.3906C40.5854 31.5781 40.7722 31.5008 40.9099 31.363C41.0476 31.2253 41.125 31.0385 41.125 30.8438V27.9062C41.125 27.7115 41.0476 27.5247 40.9099 27.387C40.7722 27.2492 40.5854 27.1719 40.3906 27.1719ZM39.6562 30.1094H38.1875V28.6406H39.6562V30.1094Z" fill="#1A3987"/>
<path d="M40.3906 34.5156H37.4531C37.2584 34.5156 37.0716 34.593 36.9338 34.7307C36.7961 34.8684 36.7188 35.0552 36.7188 35.25V38.1875C36.7188 38.3823 36.7961 38.5691 36.9338 38.7068C37.0716 38.8445 37.2584 38.9219 37.4531 38.9219H40.3906C40.5854 38.9219 40.7722 38.8445 40.9099 38.7068C41.0476 38.5691 41.125 38.3823 41.125 38.1875V35.25C41.125 35.0552 41.0476 34.8684 40.9099 34.7307C40.7722 34.593 40.5854 34.5156 40.3906 34.5156ZM39.6562 37.4531H38.1875V35.9844H39.6562V37.4531Z" fill="#1A3987"/>
<path d="M33.0469 34.5156H30.1094C29.9146 34.5156 29.7278 34.593 29.5901 34.7307C29.4524 34.8684 29.375 35.0552 29.375 35.25V38.1875C29.375 38.3823 29.4524 38.5691 29.5901 38.7068C29.7278 38.8445 29.9146 38.9219 30.1094 38.9219H33.0469C33.2416 38.9219 33.4284 38.8445 33.5662 38.7068C33.7039 38.5691 33.7812 38.3823 33.7812 38.1875V35.25C33.7812 35.0552 33.7039 34.8684 33.5662 34.7307C33.4284 34.593 33.2416 34.5156 33.0469 34.5156ZM32.3125 37.4531H30.8438V35.9844H32.3125V37.4531Z" fill="#1A3987"/>
</svg>
