<svg viewBox="0 0 47 47" fill="none" xmlns="http://www.w3.org/2000/svg">
<path d="M27.1719 41.4922C26.6652 41.4922 26.2539 41.9034 26.2539 42.4102C26.2539 42.9169 26.6652 43.3281 27.1719 43.3281C27.6786 43.3281 28.0898 42.9169 28.0898 42.4102C28.0898 41.9034 27.6786 41.4922 27.1719 41.4922Z" fill="#1A3987"/>
<path d="M40.0234 4.22266H37.2695V2.75391C37.2695 1.2354 36.0341 0 34.5156 0H12.4844C10.9659 0 9.73047 1.2354 9.73047 2.75391V4.22266H6.97656C5.45806 4.22266 4.22266 5.45806 4.22266 6.97656C4.22266 12.9486 7.01714 17.3374 11.5506 18.5593C13.1047 21.9801 15.562 24.8882 18.6808 26.9895C19.3993 27.4735 19.8281 28.3022 19.8281 29.2061V34.264C19.1989 34.4254 18.6215 34.7526 18.15 35.2242C17.4563 35.918 17.0742 36.8399 17.0742 37.8203H16.1562C14.6377 37.8203 13.4023 39.0557 13.4023 40.5742V46.082C13.4023 46.589 13.8134 47 14.3203 47H32.6797C33.1866 47 33.5977 46.589 33.5977 46.082V40.5742C33.5977 39.0557 32.3623 37.8203 30.8438 37.8203H29.9258C29.9258 36.1125 28.7538 34.6732 27.1719 34.2647V29.2107C27.1719 28.3038 27.601 27.4736 28.3201 26.9896C31.4392 24.8881 33.8965 21.9799 35.4505 18.559C39.9833 17.3367 42.7773 12.9481 42.7773 6.97656C42.7773 5.45806 41.5419 4.22266 40.0234 4.22266ZM6.05859 6.97656C6.05859 6.47039 6.47039 6.05859 6.97656 6.05859H9.73047V10.1619C9.73047 12.2544 10.0474 14.3035 10.6732 16.2769C7.75197 14.8299 6.05859 11.488 6.05859 6.97656ZM30.8438 39.6562C31.3499 39.6562 31.7617 40.0681 31.7617 40.5742V45.1641H15.2383V40.5742C15.2383 40.0681 15.6501 39.6562 16.1562 39.6562H30.8438ZM35.4336 10.1619C35.4336 12.6694 34.9344 15.1094 33.9496 17.4139C32.5488 20.6926 30.2474 23.4772 27.2945 25.4667C26.0681 26.2923 25.3359 27.6919 25.3359 29.2107V35.0664C25.3359 35.5734 25.747 35.9844 26.2539 35.9844C27.2662 35.9844 28.0898 36.808 28.0898 37.8203H18.9102C18.9102 37.3303 19.1013 36.8694 19.4482 36.5224C19.7781 36.1925 20.2111 36.0036 20.6741 35.9858C20.6979 35.9876 20.7219 35.9885 20.746 35.9885C21.2529 35.9885 21.664 35.5734 21.664 35.0664V29.2061C21.664 27.6905 20.9323 26.2927 19.7067 25.4669C16.7535 23.4773 14.4521 20.6927 13.0511 17.4137C12.066 15.11 11.5664 12.6702 11.5664 10.1619V2.75391C11.5664 2.24774 11.9782 1.83594 12.4844 1.83594H34.5156C35.0218 1.83594 35.4336 2.24774 35.4336 2.75391V10.1619ZM36.3271 16.2767C36.9526 14.3029 37.2695 12.2539 37.2695 10.1619V6.05859H40.0234C40.5296 6.05859 40.9414 6.47039 40.9414 6.97656C40.9414 11.4877 39.2482 14.8295 36.3271 16.2767Z" fill="#1A3987"/>
<path d="M30.7637 10.8467C30.6558 10.5143 30.3685 10.2721 30.0226 10.222L26.061 9.64696L24.2891 6.05632C24.1344 5.74293 23.8153 5.54456 23.4658 5.54456C23.1164 5.54456 22.7973 5.74293 22.6426 6.05632L20.8706 9.64696L16.9092 10.222C16.5633 10.2722 16.276 10.5144 16.168 10.8467C16.06 11.1791 16.1501 11.5439 16.4003 11.7878L19.2675 14.5821L18.5908 18.5282C18.5318 18.8726 18.6733 19.2206 18.956 19.4261C19.2388 19.6314 19.6136 19.6585 19.9228 19.4959L23.4659 17.6331L27.0099 19.4959C27.3211 19.6595 27.6957 19.6301 27.9766 19.426C28.2593 19.2205 28.4008 18.8725 28.3417 18.528L27.6643 14.582L30.5314 11.7878C30.7817 11.5439 30.8716 11.1791 30.7637 10.8467ZM26.0372 13.6041C25.8208 13.8151 25.7219 14.119 25.7732 14.4169L26.2175 17.0053L23.893 15.7834C23.6254 15.6429 23.3059 15.6429 23.0387 15.7835L20.7149 17.0053L21.1588 14.4167C21.2098 14.1188 21.1111 13.815 20.8947 13.6041L19.0143 11.7715L21.6123 11.3944C21.9114 11.351 22.1698 11.1632 22.3036 10.8922L23.4659 8.53677L24.6283 10.8922C24.762 11.1632 25.0205 11.351 25.3196 11.3944L27.9176 11.7715L26.0372 13.6041Z" fill="#1A3987"/>
<path d="M23.5 41.4922H19.8281C19.3212 41.4922 18.9102 41.9032 18.9102 42.4102C18.9102 42.9172 19.3212 43.3281 19.8281 43.3281H23.5C24.0069 43.3281 24.418 42.9172 24.418 42.4102C24.418 41.9032 24.0069 41.4922 23.5 41.4922Z" fill="#1A3987"/>
<path d="M37.6387 44.246H38.1504C37.8897 44.1944 37.7144 44.1893 37.6387 44.246Z" fill="#1A3987"/>
</svg>
