<svg width="47" height="47" viewBox="0 0 47 47" fill="none" xmlns="http://www.w3.org/2000/svg">
<path d="M35.9446 6.34474C35.7212 6.03672 35.2909 5.96823 34.9832 6.19163C34.6752 6.41467 34.6067 6.84532 34.8301 7.15298C36.5656 9.54616 37.4832 12.379 37.4832 15.3451C37.4832 18.1916 36.6413 20.986 35.0488 23.4268C32.694 27.036 31.1234 29.6895 30.7598 33.5381C30.7165 33.9957 30.4009 34.3611 29.9824 34.479C29.9548 34.4837 29.9272 34.4905 29.9007 34.4988C29.8329 34.512 29.7626 34.5192 29.6909 34.5192H17.3392C17.2675 34.5192 17.1972 34.512 17.1291 34.4988C17.1025 34.4905 17.0753 34.4841 17.0473 34.479C16.6292 34.3611 16.3133 33.9957 16.2703 33.5381C15.9067 29.6895 14.3361 27.036 11.9813 23.4268C10.3885 20.986 9.54688 18.1916 9.54688 15.3451C9.54688 7.64317 15.8131 1.37695 23.5151 1.37695C27.0697 1.37695 30.4561 2.71303 33.0515 5.13883C33.3294 5.39845 33.7648 5.38374 34.0247 5.10584C34.2843 4.8283 34.2696 4.39262 33.9917 4.13265C31.1407 1.46767 27.42 0 23.5151 0C15.0536 0 8.16992 6.88369 8.16992 15.3451C8.16992 18.4594 9.08897 21.5142 10.8281 24.1792C13.0707 27.6165 14.5656 30.1338 14.8994 33.6676C14.9823 34.5429 15.5058 35.2701 16.2394 35.6376V42.0993C16.2394 42.9548 16.7787 43.6871 17.5354 43.9732C17.6028 45.6539 18.9908 47 20.6876 47H26.3425C28.0393 47 29.4274 45.6539 29.4948 43.9732C30.2514 43.6871 30.7907 42.9552 30.7907 42.0993V35.6376C31.5243 35.2701 32.0482 34.5432 32.1307 33.6676C32.4645 30.1338 33.9595 27.6165 36.202 24.1795C37.9412 21.5142 38.8602 18.4594 38.8602 15.3451C38.8602 12.0867 37.8522 8.97422 35.9446 6.34474ZM21.9301 38.5708H29.4137V39.8269H17.6164V38.5708H19.1766C19.557 38.5708 19.8651 38.2624 19.8651 37.8823C19.8651 37.5019 19.557 37.1939 19.1766 37.1939H17.6164V35.8962H29.4137V37.1939H21.9305C21.55 37.1939 21.242 37.5019 21.242 37.8823C21.242 38.2624 21.55 38.5708 21.9301 38.5708ZM28.8214 42.7243C28.817 42.7239 28.8131 42.7239 28.8088 42.7239C28.8059 42.7239 28.8031 42.7239 28.8002 42.7239C28.7905 42.7239 28.7808 42.7243 28.7711 42.725H18.259C18.2493 42.7246 18.2396 42.7243 18.2299 42.7239C18.2228 42.7239 18.2152 42.7239 18.2081 42.7239C17.8789 42.7063 17.616 42.4327 17.616 42.0993V41.2039H29.4137V42.0993C29.4137 42.4331 29.1509 42.7067 28.8214 42.7243ZM26.3425 45.623H20.6876C19.7944 45.623 19.0529 44.9611 18.9281 44.1019H28.102C27.9772 44.9611 27.2357 45.623 26.3425 45.623Z" fill="#00276F"/>
<path d="M31.0729 19.306C31.097 19.2214 31.178 19.1622 31.2698 19.1622H31.8274C32.7009 19.1622 33.4116 18.4519 33.4116 17.5784V16.5578C33.4116 15.6847 32.7009 14.974 31.8274 14.974H31.2311C31.1411 14.974 31.0604 14.9163 31.0353 14.8338C30.8789 14.3178 30.6685 13.8151 30.4092 13.3403C30.3665 13.2621 30.3816 13.1628 30.4458 13.0983L30.8736 12.6708C31.1726 12.3714 31.3376 11.9737 31.3376 11.5506C31.3376 11.1275 31.1726 10.7298 30.8736 10.4308L30.1517 9.70894C29.8527 9.40988 29.455 9.24529 29.0319 9.24529C28.6088 9.24529 28.2111 9.40988 27.9117 9.70894L27.4843 10.1367C27.4201 10.2009 27.3204 10.2163 27.2422 10.1733C26.7678 9.91441 26.2654 9.70356 25.7487 9.54722C25.6662 9.52212 25.6085 9.44144 25.6085 9.35143V8.75511C25.6085 7.88161 24.8982 7.1709 24.0247 7.1709H23.0041C22.1306 7.1709 21.4203 7.88161 21.4203 8.75511V9.31271C21.4203 9.4045 21.3608 9.48554 21.2765 9.50957C20.744 9.66089 20.2255 9.86958 19.736 10.1296C19.6596 10.1701 19.5618 10.1539 19.4983 10.0905L19.1171 9.70894C18.8177 9.40988 18.42 9.24493 17.9969 9.24493C17.5738 9.24493 17.1761 9.40988 16.8771 9.70894L16.1552 10.4308C15.8562 10.7298 15.6912 11.1275 15.6912 11.5506C15.6912 11.9737 15.8562 12.3714 16.1552 12.6708L16.4977 13.0129C16.5629 13.0782 16.578 13.1779 16.5342 13.2557C16.2535 13.7552 16.0269 14.2859 15.8612 14.8324C15.8361 14.9159 15.7533 14.974 15.6604 14.974H15.2014C14.3279 14.974 13.6172 15.6847 13.6172 16.5578V17.5784C13.6172 18.4519 14.3279 19.1622 15.2014 19.1622H15.6245C15.7174 19.1622 15.7988 19.2207 15.8225 19.3046C15.9831 19.8693 16.2072 20.4169 16.4894 20.9325C16.5307 21.0082 16.5145 21.1065 16.45 21.171L16.1552 21.4658C15.8562 21.7648 15.6912 22.1625 15.6912 22.5856C15.6912 23.0087 15.8562 23.4064 16.1552 23.7058L16.8767 24.4273C17.1761 24.7263 17.5738 24.8913 17.9969 24.8913C18.42 24.8913 18.8177 24.7263 19.1168 24.4273L19.4119 24.1325C19.4761 24.068 19.5743 24.0518 19.65 24.0934C20.1656 24.3753 20.7135 24.5998 21.2783 24.76C21.3618 24.7837 21.4203 24.8651 21.4203 24.958V25.3815C21.4203 26.255 22.1306 26.9653 23.0041 26.9653H24.0247C24.8982 26.9653 25.6085 26.2546 25.6085 25.3815V24.9221C25.6085 24.8292 25.6666 24.7468 25.7502 24.7213C26.297 24.5556 26.8273 24.329 27.3268 24.0483C27.4046 24.0049 27.5043 24.0199 27.5696 24.0848L27.9117 24.4273C28.2111 24.7263 28.6088 24.8913 29.0319 24.8913C29.455 24.8913 29.8527 24.7263 30.1517 24.4273L30.8736 23.7058C31.1726 23.4064 31.3376 23.0087 31.3376 22.5856C31.3376 22.1625 31.1726 21.7648 30.8736 21.4658L30.4924 21.0842C30.4286 21.0208 30.4124 20.9229 30.4529 20.8465C30.7133 20.357 30.9216 19.8385 31.0729 19.306ZM29.7483 18.9295C29.6236 19.3688 29.4514 19.7966 29.237 20.201C28.91 20.8164 29.0233 21.5626 29.5185 22.0578L29.8997 22.4393C29.9807 22.52 29.9807 22.6512 29.9 22.7319L29.1782 23.4534C29.0975 23.534 28.9663 23.534 28.8856 23.4534L28.5431 23.1113C28.0433 22.6111 27.2655 22.5028 26.652 22.8477C26.2396 23.0797 25.8018 23.2665 25.3503 23.4035C24.6916 23.6033 24.2316 24.2275 24.2316 24.9221V25.3811C24.2316 25.4951 24.1387 25.588 24.0247 25.588H23.0041C22.8901 25.588 22.7972 25.4951 22.7972 25.3811V24.9576C22.7972 24.2523 22.3271 23.6262 21.6544 23.4351C21.1883 23.3028 20.7361 23.1177 20.3105 22.885C20.0767 22.757 19.8189 22.695 19.5625 22.695C19.1512 22.695 18.742 22.8545 18.4383 23.1586L18.1432 23.4534C18.093 23.5036 18.036 23.514 17.9969 23.514C17.9578 23.514 17.9008 23.5036 17.8506 23.4534L17.1288 22.7315C17.0481 22.6509 17.0481 22.5196 17.1288 22.4389L17.4235 22.1442C17.9177 21.6504 18.0303 20.8802 17.6975 20.2717C17.4648 19.846 17.2794 19.3939 17.1471 18.9277C16.9559 18.255 16.3299 17.7849 15.6245 17.7849H15.201C15.087 17.7849 14.9941 17.692 14.9941 17.578V16.5575C14.9941 16.4435 15.087 16.3506 15.201 16.3506H15.6604C16.3546 16.3506 16.9792 15.8905 17.179 15.2318C17.3156 14.7807 17.5024 14.3425 17.7344 13.9302C18.0794 13.3166 17.9711 12.5389 17.4712 12.039L17.1288 11.6966C17.0481 11.6159 17.0481 11.4846 17.1288 11.404L17.8506 10.6821C17.9313 10.6018 18.0625 10.6014 18.1432 10.6821L18.5244 11.0637C19.0199 11.5589 19.7658 11.6722 20.3815 11.3451C20.7856 11.1307 21.2134 10.9586 21.6526 10.8338C22.3264 10.6423 22.7969 10.0166 22.7969 9.31199V8.75439C22.7969 8.64037 22.8897 8.54749 23.0041 8.54749H24.0247C24.1387 8.54749 24.2316 8.64037 24.2316 8.75439V9.35072C24.2316 10.0535 24.6809 10.662 25.3496 10.8646C25.776 10.9937 26.1905 11.1676 26.5821 11.3814C27.1931 11.7152 27.9644 11.6033 28.4578 11.1099L28.8856 10.6821C28.9663 10.6014 29.0975 10.6014 29.1782 10.6821L29.8997 11.404C29.9803 11.4846 29.9803 11.6159 29.8997 11.6966L29.4722 12.124C28.9788 12.6178 28.8669 13.3891 29.2004 13.9997C29.4145 14.3917 29.5884 14.8065 29.7175 15.2325C29.9201 15.9013 30.5283 16.3502 31.2311 16.3502H31.8274C31.9414 16.3502 32.0343 16.4435 32.0343 16.5575V17.578C32.0343 17.692 31.9414 17.7849 31.8274 17.7849H31.2698C30.5655 17.7853 29.9398 18.2557 29.7483 18.9295Z" fill="#00276F"/>
<path d="M23.5157 12.0465C20.7467 12.0465 18.4941 14.2991 18.4941 17.0681C18.4941 19.8371 20.7467 22.09 23.5157 22.09C26.2847 22.09 28.5373 19.8371 28.5373 17.0681C28.5373 14.2991 26.2847 12.0465 23.5157 12.0465ZM23.5157 20.7131C21.5059 20.7131 19.8711 19.0779 19.8711 17.0681C19.8711 15.0582 21.5062 13.4235 23.5157 13.4235C25.5252 13.4235 27.1603 15.0582 27.1603 17.0681C27.1603 19.0779 25.5256 20.7131 23.5157 20.7131Z" fill="#00276F"/>
</svg>
