<svg width="47" height="47" viewBox="0 0 47 47" fill="none" xmlns="http://www.w3.org/2000/svg">
<path d="M38.0813 24.1885H40.1282C40.4485 25.7733 41.8518 26.9704 43.5297 26.9704C45.4432 26.9704 47 25.4136 47 23.5C47 21.5864 45.4432 20.0296 43.5296 20.0296C41.8518 20.0296 40.4484 21.2267 40.1281 22.8115H38.0812C37.9175 19.3046 36.5112 16.1171 34.2927 13.6809L37.9797 9.99402C38.7054 10.5225 39.5978 10.8354 40.5623 10.8354C42.9872 10.8354 44.9599 8.86262 44.9599 6.43771C44.9599 4.01281 42.9872 2.04009 40.5623 2.04009C38.1374 2.04009 36.1647 4.0129 36.1647 6.43771C36.1647 7.40222 36.4775 8.29458 37.0061 9.02033L33.3191 12.7072C30.8829 10.4888 27.6954 9.08238 24.1885 8.9188V6.87191C25.7733 6.55163 26.9704 5.14824 26.9704 3.47038C26.9704 1.55678 25.4136 0 23.5 0C21.5864 0 20.0296 1.55678 20.0296 3.47038C20.0296 5.14824 21.2267 6.55163 22.8115 6.87191V8.91871C19.3046 9.08238 16.1171 10.4887 13.6809 12.7071L9.9942 9.02051C10.5228 8.29467 10.8357 7.40222 10.8357 6.43771C10.8357 4.97337 10.1104 3.60973 8.89558 2.78998C8.58016 2.57738 8.1523 2.66037 7.93979 2.9756C7.72709 3.29083 7.81017 3.71869 8.12531 3.93138C8.96029 4.49474 9.45866 5.43171 9.45866 6.43771C9.45866 8.10346 8.10337 9.45875 6.43762 9.45875C4.77188 9.45875 3.41668 8.10346 3.41668 6.43771C3.41668 5.09252 4.3195 3.89687 5.61219 3.53014C5.978 3.42632 6.19041 3.04564 6.08659 2.67983C5.98277 2.31402 5.6019 2.10187 5.23637 2.20542C3.35417 2.73949 2.03973 4.47987 2.03973 6.43771C2.03973 8.8628 4.01262 10.8357 6.43771 10.8357C7.40232 10.8357 8.29477 10.5228 9.02051 9.9942L12.7072 13.6808C10.4887 16.117 9.08238 19.3045 8.91871 22.8114H6.87191C6.55163 21.2266 5.14824 20.0295 3.47038 20.0295C1.55678 20.0296 0 21.5864 0 23.5C0 25.4136 1.55678 26.9704 3.47038 26.9704C5.14824 26.9704 6.55163 25.7733 6.87191 24.1885H8.9188C9.08247 27.6954 10.4888 30.8829 12.7073 33.3191L9.02033 37.006C8.29458 36.4775 7.40222 36.1646 6.43771 36.1646C4.01281 36.1646 2.04009 38.1374 2.04009 40.5623C2.04009 42.9872 4.01281 44.9599 6.43771 44.9599C8.86262 44.9599 10.8353 42.9871 10.8353 40.5623C10.8353 39.5978 10.5225 38.7054 9.99393 37.9797L13.6809 34.2928C16.1171 36.5112 19.3046 37.9176 22.8115 38.0812V40.128C21.2267 40.4483 20.0296 41.8517 20.0296 43.5295C20.0296 45.4432 21.5864 47 23.5 47C25.4136 47 26.9704 45.4432 26.9704 43.5296C26.9704 41.8518 25.7733 40.4484 24.1885 40.1281V38.0813C27.6954 37.9176 30.8829 36.5113 33.3191 34.2929L37.0058 37.9795C36.4772 38.7053 36.1643 39.5978 36.1643 40.5623C36.1643 42.9873 38.1372 44.9603 40.5623 44.9603C42.9874 44.9603 44.9603 42.9874 44.9603 40.5623C44.9603 40.0862 44.8844 39.6174 44.7349 39.1686C44.6146 38.808 44.2245 38.613 43.8641 38.7331C43.5034 38.8534 43.3084 39.2433 43.4286 39.604C43.5313 39.912 43.5834 40.2345 43.5834 40.5622C43.5834 42.2279 42.2281 43.5832 40.5624 43.5832C38.8966 43.5832 37.5413 42.228 37.5413 40.5622C37.5413 38.8964 38.8966 37.5412 40.5624 37.5412C40.9436 37.5412 41.3154 37.6113 41.6673 37.7496C42.0208 37.8887 42.4208 37.7146 42.56 37.3607C42.699 37.0068 42.5249 36.6072 42.171 36.4681C41.658 36.2665 41.1168 36.1642 40.5625 36.1642C39.5979 36.1642 38.7054 36.4771 37.9797 37.0057L34.293 33.3191C36.5112 30.8829 37.9176 27.6954 38.0813 24.1885ZM43.5296 21.4066C44.684 21.4066 45.623 22.3457 45.623 23.5C45.623 24.6543 44.684 25.5934 43.5296 25.5934C42.3753 25.5934 41.4362 24.6543 41.4362 23.5C41.4362 22.3457 42.3754 21.4066 43.5296 21.4066ZM40.5623 3.41705C42.2279 3.41705 43.583 4.77215 43.583 6.43771C43.583 8.10337 42.2278 9.45848 40.5623 9.45848C38.8967 9.45848 37.5416 8.10337 37.5416 6.43771C37.5416 4.77206 38.8967 3.41705 40.5623 3.41705ZM21.4066 3.47038C21.4066 2.31604 22.3457 1.37695 23.5 1.37695C24.6543 1.37695 25.5934 2.31604 25.5934 3.47038C25.5934 4.62473 24.6543 5.56381 23.5 5.56381C22.3457 5.56381 21.4066 4.62463 21.4066 3.47038ZM3.47038 25.5934C2.31604 25.5934 1.37695 24.6543 1.37695 23.5C1.37695 22.3457 2.31604 21.4066 3.47038 21.4066C4.62473 21.4066 5.56372 22.3457 5.56372 23.5C5.56372 24.6543 4.62463 25.5934 3.47038 25.5934ZM23.5 10.279C30.79 10.279 36.721 16.21 36.721 23.5C36.721 30.79 30.79 36.721 23.5 36.721C16.21 36.721 10.279 30.7901 10.279 23.5C10.279 16.2099 16.21 10.279 23.5 10.279ZM6.43771 43.583C4.77206 43.583 3.41705 42.2278 3.41705 40.5623C3.41705 38.8966 4.77215 37.5415 6.43771 37.5415C8.10328 37.5415 9.45838 38.8966 9.45838 40.5623C9.45838 42.2279 8.10328 43.583 6.43771 43.583ZM25.5934 43.5296C25.5934 44.684 24.6543 45.623 23.5 45.623C22.3457 45.623 21.4066 44.684 21.4066 43.5296C21.4066 42.3753 22.3457 41.4362 23.5 41.4362C24.6543 41.4362 25.5934 42.3754 25.5934 43.5296Z" fill="#1A3987"/>
<path d="M15.7098 31.9774H19.5978C19.5999 31.9774 19.602 31.9777 19.6041 31.9777C19.6062 31.9777 19.6082 31.9774 19.6103 31.9774H21.8923C22.2726 31.9774 22.5808 31.6692 22.5808 31.289C22.5808 30.9087 22.2726 30.6005 21.8923 30.6005H20.2926V29.4347C20.2926 29.0544 19.9844 28.7462 19.6041 28.7462C19.2238 28.7462 18.9156 29.0544 18.9156 29.4347V30.6005H16.3983V27.2095C16.3983 25.5438 17.7531 24.1885 19.4183 24.1885H27.579C29.2443 24.1885 30.5991 25.5438 30.5991 27.2095V30.6005H28.0817V29.4347C28.0817 29.0544 27.7735 28.7462 27.3932 28.7462C27.0129 28.7462 26.7048 29.0544 26.7048 29.4347V30.6005H25.1052C24.7249 30.6005 24.4167 30.9087 24.4167 31.289C24.4167 31.6692 24.7249 31.9774 25.1052 31.9774H27.3872C27.3893 31.9774 27.3913 31.9777 27.3934 31.9777C27.3955 31.9777 27.3975 31.9774 27.3997 31.9774H31.2877C31.668 31.9774 31.9762 31.6692 31.9762 31.289V27.2095C31.9762 24.7844 30.0037 22.8115 27.5792 22.8115H27.0681C28.1456 21.8365 28.8238 20.4277 28.8238 18.8635C28.8238 15.9273 26.4351 13.5386 23.4988 13.5386C20.5626 13.5386 18.1739 15.9273 18.1739 18.8635C18.1739 20.4277 18.8521 21.8365 19.9296 22.8115H19.4185C16.9939 22.8115 15.0215 24.7844 15.0215 27.2095V31.289C15.0213 31.6692 15.3296 31.9774 15.7098 31.9774ZM19.5507 18.8635C19.5507 16.6867 21.3218 14.9155 23.4987 14.9155C25.6757 14.9155 27.4467 16.6866 27.4467 18.8635C27.4467 21.0405 25.6757 22.8115 23.4987 22.8115C21.3218 22.8115 19.5507 21.0405 19.5507 18.8635Z" fill="#1A3987"/>
</svg>
