<svg width="43" height="43" viewBox="0 0 43 43" fill="none" xmlns="http://www.w3.org/2000/svg">
<g clip-path="url(#clip0)">
<path d="M21.252 34.1599C21.0226 34.1599 20.7933 34.0721 20.6177 33.8983L9.10268 22.3833C8.76585 22.0465 8.75152 21.5072 9.06685 21.1524L17.6973 11.4846C23.7299 4.42721 33.5536 -0.13975 42.1195 0.00537454C42.5979 0.0161245 42.9831 0.401333 42.9939 0.879708C43.1927 9.45104 38.5738 19.2694 31.4985 25.3145L21.8468 33.9324C21.6784 34.0847 21.4634 34.1599 21.252 34.1599ZM10.9678 21.715L21.286 32.0332L30.3214 23.9671C36.7821 18.4452 41.0732 9.64454 41.2058 1.79525C33.3565 1.92604 24.5576 6.21708 19.0464 12.6635L10.9678 21.715Z" fill="#1A3987"/>
<path d="M24.6814 40.7175C24.5954 40.7175 24.5076 40.7049 24.4252 40.6781C24.1027 40.5706 23.8375 40.3233 23.7909 39.9865L22.5618 31.4098C22.492 30.9206 22.8324 30.4674 23.3215 30.3957C23.8106 30.3186 24.2639 30.6644 24.3356 31.1554L25.2959 37.8562C28.4349 34.1026 30.18 29.344 30.18 24.4921C30.18 23.9976 30.5813 23.5963 31.0758 23.5963C31.5703 23.5963 31.9717 23.9976 31.9717 24.4921C31.9717 30.4279 29.5672 36.2383 25.3747 40.429C25.1956 40.6082 24.934 40.7175 24.6814 40.7175Z" fill="#1A3987"/>
<path d="M11.7203 20.4465C11.6791 20.4465 11.6361 20.4447 11.5931 20.4375L3.01638 19.2085C2.67954 19.1601 2.39825 18.9254 2.29254 18.6011C2.18684 18.2786 2.27284 17.922 2.51471 17.6838C6.76633 13.4321 12.5749 11.0277 18.5107 11.0277C19.0052 11.0277 19.4065 11.429 19.4065 11.9235C19.4065 12.418 19.0052 12.8194 18.5107 12.8194C13.6356 12.8194 8.85183 14.5806 5.13771 17.7017L11.8475 18.6638C12.3366 18.7355 12.677 19.187 12.6072 19.6779C12.5409 20.124 12.1575 20.4465 11.7203 20.4465Z" fill="#1A3987"/>
<path d="M30.6972 16.7808C29.5487 16.7808 28.4021 16.3436 27.5295 15.4711C25.7844 13.7242 25.7844 10.8826 27.5295 9.13572C29.2764 7.38884 32.118 7.38884 33.8648 9.13572C35.6099 10.8826 35.6099 13.7242 33.8648 15.4711C32.9905 16.3454 31.8438 16.7808 30.6972 16.7808ZM30.6972 9.61768C30.0092 9.61768 29.3194 9.87926 28.7962 10.4024C27.7499 11.4506 27.7499 13.1562 28.7962 14.2043C29.8443 15.2507 31.55 15.2489 32.5981 14.2043C33.6445 13.1562 33.6445 11.4506 32.5981 10.4024C32.0732 9.88105 31.3852 9.61768 30.6972 9.61768ZM33.2306 14.8386H33.2485H33.2306Z" fill="#1A3987"/>
<path d="M0.896219 43C0.661511 43 0.433969 42.9087 0.261969 42.7384C0.0290527 42.5055 -0.0569473 42.1633 0.038011 41.848C0.331844 40.8679 2.9638 32.207 4.88089 30.2899C7.03984 28.131 10.5533 28.1292 12.7123 30.2899C14.8712 32.4489 14.8712 35.9624 12.7123 38.1213C10.7952 40.0384 2.13426 42.6704 1.15422 42.9642C1.06822 42.9875 0.982219 43 0.896219 43ZM8.79747 30.4601C7.83714 30.4601 6.87859 30.8256 6.14759 31.5549C5.1138 32.5904 3.3938 37.2147 2.25789 40.7425C5.78389 39.6066 10.41 37.8866 11.4438 36.8528C12.904 35.3926 12.904 33.0151 11.4438 31.5549C10.7146 30.8256 9.75601 30.4601 8.79747 30.4601Z" fill="#1A3987"/>
</g>
<defs>
<clipPath id="clip0">
<rect width="43" height="43" fill="white"/>
</clipPath>
</defs>
</svg>
