<svg width="33" height="47" viewBox="0 0 33 47" fill="none" xmlns="http://www.w3.org/2000/svg">
<path d="M32.3594 41.5901V46.2168C32.3594 46.6493 32.0087 47 31.5762 47C31.1436 47 30.7929 46.6493 30.7929 46.2168V41.5901C30.7929 37.9877 27.8779 35.0725 24.2752 35.0726C22.5706 35.0726 21.024 34.2042 20.1379 32.7495C19.9129 32.3801 20.0299 31.8981 20.3994 31.6731C20.7688 31.4481 21.2507 31.5652 21.4757 31.9346C22.0751 32.9187 23.1216 33.5061 24.2752 33.5061C28.7432 33.5059 32.3594 37.1217 32.3594 41.5901ZM18.6914 33.7389C18.7836 34.1616 18.5156 34.5788 18.093 34.671C16.0317 35.12 13.9353 34.6705 12.2661 33.5312C10.6137 35.302 8.43064 35.0726 8.72288 35.0726C5.12051 35.0725 2.20513 37.9875 2.20513 41.5901V46.2168C2.20513 46.6493 1.85444 47 1.4219 47C0.989363 47 0.638672 46.6493 0.638672 46.2168V41.5901C0.638672 37.1222 4.25416 33.5061 8.72269 33.5061C10.5302 33.5061 11.9955 32.0498 11.9955 30.2418V30.0355C8.57681 28.4008 6.17719 24.9657 6.03092 20.9654C4.62404 20.6271 3.57579 19.3679 3.57579 17.8697V13.8093C3.533 11.8219 3.82808 6.84415 7.45748 3.34566C11.939 -0.974446 19.1259 -0.700022 24.4106 1.84401C24.9257 2.09219 25.0039 2.78809 24.5762 3.14848C27.2533 3.8015 29.5619 5.44726 31.045 7.80263C31.1216 7.92393 31.2618 8.11436 31.2252 8.41815C31.2025 8.6072 31.1462 8.76718 31.0005 8.91501C30.0459 9.88309 29.5203 11.1659 29.5203 12.5273V17.8699C29.5203 18.3024 29.1696 18.6531 28.7371 18.6531C28.3045 18.6531 27.9538 18.3024 27.9538 17.8699V12.5273C27.9538 10.9572 28.4902 9.4669 29.4755 8.26973C27.9738 6.12211 25.631 4.74088 22.9813 4.45716L21.6047 4.30972C20.7997 4.22356 20.6418 3.1146 21.3899 2.8067L22.016 2.54892C13.862 -0.293721 5.14215 2.86475 5.14215 13.8008V17.8697C5.14215 18.4912 5.50009 19.0313 6.02328 19.3026V14.225C6.02328 11.2019 8.48282 8.74241 11.5059 8.74241H21.4921C24.5152 8.74241 26.9747 11.2018 26.9747 14.2247V20.6377C26.9747 27.4493 20.3184 32.6231 13.5452 30.6291C13.5012 31.1879 13.3621 31.7272 13.1354 32.2285C14.453 33.1333 16.1169 33.4983 17.7594 33.1403C18.1821 33.0483 18.5993 33.3163 18.6914 33.7389ZM16.499 29.4874C21.4116 29.4874 25.4082 25.4908 25.4082 20.5782V14.2247C25.4082 12.0656 23.6515 10.3089 21.4921 10.3089H11.5059C9.34653 10.3089 7.58974 12.0657 7.58974 14.225V20.5782C7.58974 25.4908 11.5864 29.4874 16.499 29.4874ZM24.4292 42.9859H22.0795C21.647 42.9859 21.2963 43.3366 21.2963 43.7692C21.2963 44.2017 21.647 44.5524 22.0795 44.5524H24.4292C24.8617 44.5524 25.2124 44.2017 25.2124 43.7692C25.2124 43.3366 24.8617 42.9859 24.4292 42.9859Z" fill="#00276F"/>
</svg>
